<svg xmlns="http://www.w3.org/2000/svg" viewBox="349.732 1954.149 740.058 295.675">
    <defs>
        <style>
            .cls-1{fill:#fabf62}.cls-2{fill:#1c3e58}.cls-3{fill:#08d184}.cls-4{fill:#fff}.cls-5{fill:#ebf0f6}.cls-6{fill:#4088da}
        </style>
    </defs>
    <g id="Group_411" data-name="Group 411" transform="translate(0 1170)">
        <g id="Group_1" data-name="Group 1" transform="translate(349.732 784.149)">
            <g id="Group_1-2" data-name="Group 1" transform="translate(18.81 80.696)">
                <circle id="Ellipse_1" cx="28.44" cy="28.44" r="28.44" class="cls-1" data-name="Ellipse 1" transform="rotate(-45 48.549 20.11)"/>
            </g>
            <g id="Group_2" data-name="Group 2" transform="translate(69.555 254.43)">
                <path id="Path_2" d="M154.281 536.093a1.2 1.2 0 0 1-1.181-1.181v-11.131a1.181 1.181 0 0 1 2.362 0v11.131a1.173 1.173 0 0 1-1.181 1.181z" class="cls-2" data-name="Path 2" transform="translate(-153.1 -522.6)"/>
            </g>
            <g id="Group_3" data-name="Group 3" transform="translate(33.255 254.43)">
                <path id="Path_3" d="M74.381 535.73a1.2 1.2 0 0 1-1.181-1.181v-10.768a1.181 1.181 0 0 1 2.362 0v10.767a1.173 1.173 0 0 1-1.181 1.182z" class="cls-2" data-name="Path 3" transform="translate(-73.2 -522.6)"/>
            </g>
            <g id="Group_4" data-name="Group 4" transform="translate(73.78 256.656)">
                <path id="Path_4" d="M182.117 538.767h-18.536a1.2 1.2 0 0 1-1.181-1.181v-8.9a1.2 1.2 0 0 1 1.181-1.181h18.536a1.2 1.2 0 0 1 1.181 1.181v8.9a1.2 1.2 0 0 1-1.181 1.181zm-17.355-2.367h16.173v-6.5h-16.173z" class="cls-2" data-name="Path 4" transform="translate(-162.4 -527.5)"/>
            </g>
            <path id="Path_5" d="M241.081 544a1.2 1.2 0 0 0-1.181 1.181v42.342h2.362v-42.342a1.173 1.173 0 0 0-1.181-1.181z" class="cls-2" data-name="Path 5" transform="translate(-130.911 -291.848)"/>
            <path id="Path_6" d="M257.281 544a1.2 1.2 0 0 0-1.181 1.181v42.342h2.362v-42.342a1.173 1.173 0 0 0-1.181-1.181z" class="cls-2" data-name="Path 6" transform="translate(-139.752 -291.848)"/>
            <path id="Path_7" d="M1172.511 610.2h-169.093a1.319 1.319 0 0 0-1.318 1.318v12.13h2.635V612.79h166.459v10.858h2.635v-12.176a1.31 1.31 0 0 0-1.318-1.272z" class="cls-2" data-name="Path 7" transform="translate(-546.838 -327.973)"/>
            <g id="Group_5" data-name="Group 5" transform="translate(655.93 269.189)">
                <path id="Path_8" d="M1477.146 597.037a1.2 1.2 0 0 1-1.181-1.181c0-6.587-6.678-11.948-14.9-11.948s-14.9 5.361-14.9 11.948a1.181 1.181 0 0 1-2.362 0c0-7.9 7.769-14.356 17.264-14.356s17.264 6.451 17.264 14.356a1.145 1.145 0 0 1-1.185 1.181z" class="cls-2" data-name="Path 8" transform="translate(-1443.8 -581.5)"/>
            </g>
            <g id="Group_6" data-name="Group 6" transform="translate(693.047 273.72)">
                <path id="Path_9" d="M1526.681 602.98a1.2 1.2 0 0 1-1.181-1.181v-6.133a1.218 1.218 0 0 1 1-1.181l20.762-3a1.2 1.2 0 1 1 .363 2.362l-19.762 2.862v5.091a1.2 1.2 0 0 1-1.182 1.18z" class="cls-2" data-name="Path 9" transform="translate(-1525.5 -591.475)"/>
            </g>
            <g id="Group_7" data-name="Group 7" transform="translate(723.213 239.795)">
                <path id="Path_10" d="M1593.081 566.411a1.2 1.2 0 0 1-1.181-1.181v-47.249a1.181 1.181 0 1 1 2.362 0v47.2a1.184 1.184 0 0 1-1.181 1.23z" class="cls-2" data-name="Path 10" transform="translate(-1591.9 -516.8)"/>
            </g>
            <g id="Group_8" data-name="Group 8" transform="translate(712.716 242.881)">
                <path id="Path_11" d="M1569.978 570.118h-.091a1.207 1.207 0 0 1-1.09-1.272l3.634-44.159a1.185 1.185 0 0 1 2.363.182l-3.635 44.159a1.186 1.186 0 0 1-1.181 1.09z" class="cls-2" data-name="Path 11" transform="translate(-1568.794 -523.594)"/>
            </g>
            <g id="Group_11" data-name="Group 11" transform="translate(508.871 129.716)">
                <g id="Group_9" data-name="Group 9">
                    <path id="Path_12" d="M1120.1 274.5l1.5 12.085c-.546-4.362-1.5-12.085-1.5-12.085z" class="cls-1" data-name="Path 12" transform="translate(-1120.1 -274.5)"/>
                </g>
                <g id="Group_10" data-name="Group 10" transform="translate(1.524 12.085)">
                    <path id="Path_13" d="M1123.476 301.191v-.091c-.045.045 0 .045 0 .091z" class="cls-1" data-name="Path 13" transform="translate(-1123.456 -301.1)"/>
                </g>
            </g>
            <g id="Group_14" data-name="Group 14" transform="translate(341.55 147.022)">
                <g id="Group_12" data-name="Group 12">
                    <path id="Path_14" d="M752.982 338.22a1.061 1.061 0 0 1-.909-.454 1.174 1.174 0 0 1 .182-1.681c10.131-8.314 10.813-22.216 10.813-22.352a1.182 1.182 0 1 1 2.362.091c-.045.591-.727 15.083-11.676 24.078a1.064 1.064 0 0 1-.772.318z" class="cls-2" data-name="Path 14" transform="translate(-751.801 -312.594)"/>
                </g>
                <g id="Group_13" data-name="Group 13" transform="translate(33.116 .045)">
                    <path id="Path_15" d="M837.145 338.274a1.234 1.234 0 0 1-.772-.273c-10.949-9-11.676-23.488-11.676-24.078a1.182 1.182 0 1 1 2.362-.091c0 .136.682 14.038 10.813 22.352a1.164 1.164 0 0 1-.727 2.09z" class="cls-2" data-name="Path 15" transform="translate(-824.694 -312.694)"/>
                </g>
            </g>
            <path id="Path_16" d="M787.673 408.563h-.136a1.208 1.208 0 0 1-1.045-1.318c0-.182.954-9.995-8.268-19.535-7.587-7.814-30.393-20.489-38.116-24.669-.954 13.856-10.585 24.851-22.216 24.851s-21.262-10.992-22.216-24.851c-7.723 4.18-30.53 16.855-38.116 24.669-9.313 9.586-8.268 19.444-8.268 19.535a1.189 1.189 0 1 1-2.362.273c-.045-.454-1.181-11.085 8.9-21.489 8.268-8.541 32.983-22.079 40.388-25.986a1.216 1.216 0 0 1 1.181.045 1.184 1.184 0 0 1 .591 1c.136 13.448 9.041 24.442 19.9 24.442s19.762-10.949 19.9-24.442a1.129 1.129 0 0 1 .591-1 1.216 1.216 0 0 1 1.181-.045c7.36 3.952 32.12 17.445 40.388 25.986 10.086 10.4 8.95 21.034 8.9 21.489a1.147 1.147 0 0 1-1.177 1.045z" class="cls-2" data-name="Path 16" transform="translate(-352.991 -191.392)"/>
            <g id="Group_15" data-name="Group 15" transform="translate(111.215 216.852)">
                <path id="Path_17" d="M245.981 498.374a1.2 1.2 0 0 1-1.181-1.181v-29.712a1.2 1.2 0 0 1 1.181-1.181h15.492a1.181 1.181 0 0 1 0 2.362h-14.311v28.531a1.121 1.121 0 0 1-1.181 1.181z" class="cls-2" data-name="Path 17" transform="translate(-244.8 -466.3)"/>
            </g>
            <g id="Group_16" data-name="Group 16" transform="translate(38.336 254.43)">
                <path id="Path_18" d="M85.572 534.685a1.181 1.181 0 0 1-1.09-.727 1.169 1.169 0 0 1 .636-1.545l1.136-.5a7.892 7.892 0 0 0 4.816-7.269v-.863a1.181 1.181 0 0 1 2.362 0v.863a10.206 10.206 0 0 1-6.269 9.45l-1.136.5a.819.819 0 0 1-.455.091z" class="cls-2" data-name="Path 18" transform="translate(-84.383 -522.6)"/>
            </g>
            <g id="Group_17" data-name="Group 17" transform="translate(56.834 254.43)">
                <path id="Path_19" d="M132.96 534.685a1.613 1.613 0 0 1-.454-.091l-1.136-.5a10.206 10.206 0 0 1-6.269-9.45v-.863a1.181 1.181 0 0 1 2.362 0v.863a7.892 7.892 0 0 0 4.816 7.269l1.136.5a1.181 1.181 0 0 1-.454 2.272z" class="cls-2" data-name="Path 19" transform="translate(-125.1 -522.6)"/>
            </g>
            <g id="Group_18" data-name="Group 18" transform="translate(95.814 125.582)">
                <path id="Path_20" d="M264.463 286.934a21.522 21.522 0 0 0-21.534-21.534h-10.495a21.522 21.522 0 0 0-21.534 21.534 21.522 21.522 0 0 0 21.534 21.534h10.495a16.551 16.551 0 0 0 2.59-.182l12.721 3.952-2.726-7.86a21.507 21.507 0 0 0 8.949-17.444z" class="cls-2" data-name="Path 20" transform="translate(-210.9 -265.4)"/>
            </g>
            <g id="Group_19" data-name="Group 19" transform="translate(653.613 60.616)">
                <path id="Path_21" d="M1438.7 140.391a17.973 17.973 0 0 1 17.991-17.991h8.768a17.974 17.974 0 0 1 17.991 17.991 17.973 17.973 0 0 1-17.991 17.991h-8.768a17.566 17.566 0 0 1-2.181-.136l-10.631 3.316 2.271-6.587a17.894 17.894 0 0 1-7.45-14.584z" class="cls-2" data-name="Path 21" transform="translate(-1438.7 -122.4)"/>
            </g>
            <g id="Group_20" data-name="Group 20" transform="translate(10.404 147.622)">
                <path id="Path_22" d="M55.656 300.675A13.184 13.184 0 0 0 42.481 287.5h-6.406A13.184 13.184 0 0 0 22.9 300.675a13.184 13.184 0 0 0 13.175 13.175h6.406c.545 0 1.045-.045 1.59-.091l7.769 2.408-1.64-4.767a13.207 13.207 0 0 0 5.456-10.725z" class="cls-2" data-name="Path 22" transform="translate(-22.9 -287.5)"/>
            </g>
            <g id="Group_21" data-name="Group 21" transform="translate(224.89 44.234)">
                <circle id="Ellipse_2" cx="19.808" cy="19.808" r="19.808" class="cls-1" data-name="Ellipse 2" transform="rotate(-45 33.813 14.006)"/>
            </g>
            <g id="Group_22" data-name="Group 22" transform="translate(432.145)">
                <path id="Path_196" d="M33.937 0a34.046 34.046 0 0 1 30.189 18.419 33.494 33.494 0 0 1 3.747 15.517A33.937 33.937 0 1 1 33.937 0z" class="cls-3" data-name="Path 196" transform="rotate(-9.218 67.437 5.437)"/>
            </g>
            <g id="Group_23" data-name="Group 23" transform="translate(523 27.905)">
                <path id="Path_23" d="M1194.178 50.4h-22.806a20.184 20.184 0 0 0-20.172 20.171 20.143 20.143 0 0 0 12.539 18.672c.273 2.635.318 5.724-.772 7.269 0 0 9.177-.818 14.084-5.77h17.082a20.184 20.184 0 0 0 20.167-20.171 20.116 20.116 0 0 0-20.122-20.171z" class="cls-2" data-name="Path 23" transform="translate(-1151.2 -50.4)"/>
            </g>
            <g id="Group_24" data-name="Group 24" transform="translate(681.219 107.972)">
                <path id="Path_197" d="M22.988 0A22.988 22.988 0 1 1 0 22.988 22.988 22.988 0 0 1 22.988 0z" class="cls-3" data-name="Path 197" transform="rotate(-13.286 45.357 5.283)"/>
            </g>
            <g id="Group_25" data-name="Group 25" transform="translate(78.315 90.826)">
                <path id="Path_24" d="M186.066 205.287a1.614 1.614 0 0 1-.454-.091 1.184 1.184 0 0 1-.636-1.545 31.29 31.29 0 0 0 2.453-12.266 31.751 31.751 0 0 0-14.492-26.713 1.185 1.185 0 1 1 1.272-2 34.134 34.134 0 0 1 15.583 28.712 33.609 33.609 0 0 1-2.635 13.175 1.181 1.181 0 0 1-1.091.728z" class="cls-2" data-name="Path 24" transform="translate(-172.384 -162.484)"/>
            </g>
            <g id="Group_26" data-name="Group 26" transform="translate(19.717 85.283)">
                <path id="Path_25" d="M44.581 187.09a1.2 1.2 0 0 1-1.181-1.181 38.4 38.4 0 0 1 23.715-35.527 1.181 1.181 0 1 1 .909 2.181 35.975 35.975 0 0 0-22.261 33.3 1.213 1.213 0 0 1-1.182 1.227z" class="cls-2" data-name="Path 25" transform="translate(-43.4 -150.283)"/>
            </g>
            <g id="Group_27" data-name="Group 27" transform="translate(42.569 189.827)">
                <path id="Path_26" d="M104.558 396.891h-1.726a9.132 9.132 0 0 1-9.132-9.131v-6.179a1.181 1.181 0 1 1 2.362 0v6.179a6.786 6.786 0 0 0 6.769 6.769h1.726a6.786 6.786 0 0 0 6.769-6.769v-6.179a1.181 1.181 0 1 1 2.362 0v6.133a9.113 9.113 0 0 1-9.13 9.177z" class="cls-2" data-name="Path 26" transform="translate(-93.7 -380.4)"/>
            </g>
            <g id="Group_28" data-name="Group 28" transform="translate(45.806 177.845)">
                <path id="Path_27" d="M118.441 369.006a.773.773 0 0 1-.318-.045c-13.22-3.589-17.082-12.948-17.218-13.311a1.194 1.194 0 0 1 2.226-.863c.045.091 3.634 8.632 15.628 11.9a1.167 1.167 0 0 1 .818 1.454 1.123 1.123 0 0 1-1.136.865z" class="cls-2" data-name="Path 27" transform="translate(-100.826 -354.026)"/>
            </g>
            <g id="Group_29" data-name="Group 29" transform="translate(39.159 183.263)">
                <path id="Path_28" d="M87.378 375.513a1.155 1.155 0 0 1-1.181-1.09 1.207 1.207 0 0 1 1.09-1.272c7.5-.591 9.313-6.133 9.359-6.36a1.155 1.155 0 0 1 1.5-.772 1.215 1.215 0 0 1 .818 1.5c-.091.318-2.272 7.36-11.494 8.087-.001-.093-.047-.093-.092-.093z" class="cls-2" data-name="Path 28" transform="translate(-86.194 -365.95)"/>
            </g>
            <g id="Group_30" data-name="Group 30" transform="translate(39.114 175.971)">
                <path id="Path_29" d="M90.5 371.253a3.841 3.841 0 0 1-2.272-.772c-1.181-.909-1.908-2.544-2.09-4.816-.273-3.271.591-8.359 3.816-11.857a12.462 12.462 0 0 1 9.586-3.907c3.907 0 7 1.181 9.222 3.544 3.544 3.725 3.634 9.177 3.544 11.358-.273 5.406-3.544 6.179-3.68 6.224l-.545-2.317h-.045c.091 0 1.681-.545 1.863-4.043.091-1.454.091-6.406-2.862-9.586-1.726-1.863-4.271-2.771-7.5-2.771a10.133 10.133 0 0 0-7.86 3.135c-2.726 2.908-3.407 7.224-3.18 10.04.136 1.908.681 2.726 1.136 3.089a1.36 1.36 0 0 0 .909.318 1.153 1.153 0 0 1 1.363.954 1.221 1.221 0 0 1-.954 1.408c-.037-.047-.174-.001-.451-.001z" class="cls-2" data-name="Path 29" transform="translate(-86.096 -349.9)"/>
            </g>
            <g id="Group_31" data-name="Group 31" transform="translate(22.534 217.54)">
                <path id="Path_30" d="M101.437 480.652H56.914a7.31 7.31 0 0 1-7.314-7.314v-24.624a7.31 7.31 0 0 1 7.314-7.314h44.522a7.31 7.31 0 0 1 7.314 7.314v24.624a7.31 7.31 0 0 1-7.313 7.314zm-44.522-36.89a4.964 4.964 0 0 0-4.952 4.952v24.624a4.964 4.964 0 0 0 4.952 4.952h44.522a4.964 4.964 0 0 0 4.952-4.952v-24.624a4.964 4.964 0 0 0-4.952-4.952z" class="cls-2" data-name="Path 30" transform="translate(-49.6 -441.4)"/>
            </g>
            <g id="Group_32" data-name="Group 32" transform="translate(29.53 224.991)">
                <path id="Path_31" d="M66.181 480.652A1.2 1.2 0 0 1 65 479.471v-20.49a1.181 1.181 0 1 1 2.362 0v20.489a1.146 1.146 0 0 1-1.181 1.182z" class="cls-2" data-name="Path 31" transform="translate(-65 -457.8)"/>
            </g>
            <g id="Group_35" data-name="Group 35" transform="translate(33.255 203.638)">
                <g id="Group_33" data-name="Group 33">
                    <path id="Path_32" d="M74.381 427.064a1.2 1.2 0 0 1-1.181-1.181c0-2.408 3.089-3.771 3.725-4l10.813-4.725v-5.179a1.181 1.181 0 1 1 2.362 0v5.951a1.181 1.181 0 0 1-.727 1.09l-11.539 5.043c-1.045.409-2.226 1.317-2.226 1.817a1.277 1.277 0 0 1-1.227 1.184z" class="cls-2" data-name="Path 32" transform="translate(-73.2 -410.8)"/>
                </g>
                <g id="Group_34" data-name="Group 34" transform="translate(21.761)">
                    <path id="Path_33" d="M136.819 427.064a1.2 1.2 0 0 1-1.181-1.181c0-.5-1.181-1.363-2.226-1.772l-11.585-5.088a1.181 1.181 0 0 1-.727-1.09v-5.951a1.181 1.181 0 0 1 2.362 0v5.179l10.858 4.725c.591.227 3.68 1.59 3.68 4a1.173 1.173 0 0 1-1.181 1.178z" class="cls-2" data-name="Path 33" transform="translate(-121.1 -410.8)"/>
                </g>
            </g>
            <g id="Group_36" data-name="Group 36" transform="translate(48.293 209.523)">
                <path id="Path_34" d="M110.616 427.273a7.889 7.889 0 0 1-4.316-1.318l1.317-2a5.273 5.273 0 0 0 5.951 0 1.178 1.178 0 0 1 1.317 1.954 7.032 7.032 0 0 1-4.269 1.364z" class="cls-2" data-name="Path 34" transform="translate(-106.3 -423.754)"/>
            </g>
            <g id="Group_37" data-name="Group 37" transform="translate(38.344 264.152)">
                <path id="Path_35" d="M110.75 546.362H85.581a1.181 1.181 0 1 1 0-2.362h25.169a1.2 1.2 0 0 1 1.181 1.181 1.173 1.173 0 0 1-1.181 1.181z" class="cls-2" data-name="Path 35" transform="translate(-84.4 -544)"/>
            </g>
            <path id="Path_38" d="M111.351 608.481a1.2 1.2 0 0 0-1.181-1.181H0v2.362h110.17a1.173 1.173 0 0 0 1.181-1.181z" class="cls-2" data-name="Path 38" transform="translate(0 -326.39)"/>
            <g id="Group_38" data-name="Group 38" transform="translate(125.435 268.462)">
                <path id="Path_39" d="M335.387 582.262h-58.106a1.181 1.181 0 1 1 0-2.362h58.106a1.181 1.181 0 1 1 0 2.362z" class="cls-2" data-name="Path 39" transform="translate(-276.1 -579.9)"/>
            </g>
            <g id="Group_39" data-name="Group 39" transform="translate(127.115 174.829)">
                <path id="Path_40" d="M358.123 428.5h-68.237a10.092 10.092 0 0 1-10.086-10.087v-34.527a10.092 10.092 0 0 1 10.086-10.086h68.237a10.092 10.092 0 0 1 10.086 10.086v34.573a10.112 10.112 0 0 1-10.086 10.041zm-68.237-52.291a7.7 7.7 0 0 0-7.678 7.678v34.573a7.7 7.7 0 0 0 7.678 7.678h68.237a7.7 7.7 0 0 0 7.678-7.678v-34.574a7.7 7.7 0 0 0-7.678-7.678z" class="cls-2" data-name="Path 40" transform="translate(-279.8 -373.8)"/>
            </g>
            <g id="Group_40" data-name="Group 40" transform="translate(131.977 179.962)">
                <path id="Path_41" d="M291.681 397.366a1.2 1.2 0 0 1-1.181-1.181v-4.543a6.544 6.544 0 0 1 6.542-6.542h36.118a1.181 1.181 0 1 1 0 2.362h-36.118a4.149 4.149 0 0 0-4.134 4.134v4.543a1.251 1.251 0 0 1-1.227 1.227z" class="cls-2" data-name="Path 41" transform="translate(-290.5 -385.1)"/>
            </g>
            <g id="Group_43" data-name="Group 43" transform="translate(152.012 227.21)">
                <g id="Group_41" data-name="Group 41" transform="translate(2.799)">
                    <path id="Path_42" d="M372.581 503.32h-30.62a1.256 1.256 0 0 1-1.181-.954 1.168 1.168 0 0 1 .727-1.318l1.408-.591a9.8 9.8 0 0 0 6.042-9.086v-1.09a1.181 1.181 0 1 1 2.362 0v1.09a12.1 12.1 0 0 1-4.634 9.586h21.125a12.238 12.238 0 0 1-4.634-9.586v-1.09a1.181 1.181 0 0 1 2.362 0v1.09a9.85 9.85 0 0 0 6.042 9.086l1.408.591a1.2 1.2 0 0 1 .727 1.318 1.167 1.167 0 0 1-1.134.954z" class="cls-2" data-name="Path 42" transform="translate(-340.762 -489.1)"/>
                </g>
                <g id="Group_42" data-name="Group 42" transform="translate(0 11.812)">
                    <path id="Path_43" d="M369.173 523.1H338.6a4 4 0 1 1 0-8h30.575a4 4 0 1 1 0 8zm-30.573-5.592a1.59 1.59 0 1 0 0 3.18h30.575a1.59 1.59 0 1 0 0-3.18z" class="cls-2" data-name="Path 43" transform="translate(-334.6 -515.1)"/>
                </g>
            </g>
            <g id="Group_44" data-name="Group 44" transform="translate(111.215 235.115)">
                <path id="Path_44" d="M271.059 512.815h-10.631a3.257 3.257 0 0 1-3.271-3.271v-.681h-11.176a1.181 1.181 0 0 1 0-2.362h12.357a1.2 1.2 0 0 1 1.181 1.181v1.863a.863.863 0 0 0 .863.863h10.631a.621.621 0 0 0 .636-.636v-2.09a1.2 1.2 0 0 1 1.181-1.181h13.538a1.181 1.181 0 0 1 0 2.362h-12.356v.909a2.968 2.968 0 0 1-2.953 3.043z" class="cls-2" data-name="Path 44" transform="translate(-244.8 -506.5)"/>
            </g>
            <g id="Group_45" data-name="Group 45" transform="translate(111.215 225.257)">
                <path id="Path_45" d="M271.059 491.115h-10.631a3.257 3.257 0 0 1-3.271-3.271v-.681h-11.176a1.181 1.181 0 0 1 0-2.362h12.357a1.2 1.2 0 0 1 1.181 1.181v1.863a.863.863 0 0 0 .863.863h10.631a.621.621 0 0 0 .636-.636 1.181 1.181 0 1 1 2.362 0 2.968 2.968 0 0 1-2.952 3.043z" class="cls-2" data-name="Path 45" transform="translate(-244.8 -484.8)"/>
            </g>
            <g id="Group_46" data-name="Group 46" transform="translate(152.193 227.21)">
                <path id="Path_46" d="M336.181 505.273a1.2 1.2 0 0 1-1.181-1.181v-13.811a1.181 1.181 0 1 1 2.362 0v13.811a1.2 1.2 0 0 1-1.181 1.181z" class="cls-2" data-name="Path 46" transform="translate(-335 -489.1)"/>
            </g>
            <g id="Group_47" data-name="Group 47" transform="translate(193.822 117.418)">
                <path id="Path_47" d="M441.881 297.891a11.883 11.883 0 0 1-11.539-9.132v-.091l-2-13.448c-.409-1.454-2.09-7.769-1.635-10.131 1.181-5.951 5.588-8.859 14.674-9.722 9.222-.863 10.949-6.951 10.949-7.042a1.23 1.23 0 0 1 1.863-.681c.363.273 8.95 6.587 7 17.355-.636 3.5-1.136 5.5-1.5 6.951a11.556 11.556 0 0 0-.5 4.861 1.185 1.185 0 0 1-2.362.182 14.254 14.254 0 0 1 .545-5.679 92.564 92.564 0 0 0 1.5-6.769 15.43 15.43 0 0 0-4.861-13.993c-1.272 2.317-4.543 6.406-12.357 7.133-9.858.954-11.857 4.316-12.539 7.814-.273 1.408.818 6.315 1.59 9.086 0 .045.045.091.045.136l2 13.448a9.44 9.44 0 0 0 10.177 7.178l2.453-.273a1.189 1.189 0 0 1 .273 2.362l-2.453.273a3.653 3.653 0 0 1-1.323.182z" class="cls-2" data-name="Path 47" transform="translate(-426.63 -247.431)"/>
            </g>
            <g id="Group_48" data-name="Group 48" transform="translate(202.387 165.368)">
                <path id="Path_48" d="M446.672 364.844a1.181 1.181 0 0 1-1.09-.727 1.169 1.169 0 0 1 .636-1.545c3.862-1.636 2.908-8.132 2.908-8.223a1.2 1.2 0 1 1 2.362-.363c.045.363 1.272 8.4-4.316 10.767a1.933 1.933 0 0 1-.5.091z" class="cls-2" data-name="Path 48" transform="translate(-445.483 -352.975)"/>
            </g>
            <g id="Group_49" data-name="Group 49" transform="translate(195.475 139.281)">
                <path id="Path_49" d="M455.725 304.524a1.279 1.279 0 0 1-.954-.454 17.424 17.424 0 0 0-11.494-6.042 12.509 12.509 0 0 0-10.858 4 1.2 1.2 0 1 1-1.908-1.454c.182-.227 4.407-5.679 12.948-4.952a19.593 19.593 0 0 1 13.22 7 1.216 1.216 0 0 1-.227 1.681 1.508 1.508 0 0 1-.727.221z" class="cls-2" data-name="Path 49" transform="translate(-430.27 -295.553)"/>
            </g>
            <g id="Group_50" data-name="Group 50" transform="translate(202.394 156.929)">
                <path id="Path_50" d="M455.313 340.9h-8.632a1.2 1.2 0 0 1-1.181-1.181v-4.134a1.2 1.2 0 0 1 1.181-1.181h8.632a1.2 1.2 0 0 1 1.181 1.181v4.134a1.2 1.2 0 0 1-1.181 1.181zm-7.451-2.408h6.224v-1.726h-6.224z" class="cls-2" data-name="Path 50" transform="translate(-445.5 -334.4)"/>
            </g>
            <g id="Group_51" data-name="Group 51" transform="translate(219.749 144.799)">
                <path id="Path_51" d="M486.244 318.285a2.579 2.579 0 0 1-2.544-2.59v-5.405a2.579 2.579 0 0 1 2.544-2.59 5.3 5.3 0 1 1 0 10.585zm-.045-8.223c-.091 0-.136.091-.136.227v5.411c0 .091.091.227.182.227a3 3 0 0 0 3.089-2.908 3.048 3.048 0 0 0-3.135-2.953z" class="cls-2" data-name="Path 51" transform="translate(-483.7 -307.7)"/>
            </g>
            <g id="Group_52" data-name="Group 52" transform="translate(219.703 152.431)">
                <path id="Path_52" d="M485.872 334.449a2.448 2.448 0 0 1-2.272-2.59v-5.406a1.181 1.181 0 1 1 2.362 0v5.406a.34.34 0 0 0 .045.227 1.017 1.017 0 0 0 .772-.318c.772-.818.636-3.135.5-4.634-.045-.545-.045-1-.045-1.454a1.181 1.181 0 1 1 2.362 0c0 .363.045.818.045 1.272.136 2.044.318 4.861-1.136 6.451a3.419 3.419 0 0 1-2.633 1.046z" class="cls-2" data-name="Path 52" transform="translate(-483.6 -324.5)"/>
            </g>
            <g id="Group_53" data-name="Group 53" transform="translate(210.983 151.619)">
                <path id="Path_53" d="M467.355 331.656a7.154 7.154 0 0 1-2.044-.273 1.2 1.2 0 0 1 .591-2.317 4.7 4.7 0 0 0 2.226.091c1.953-.954 4.407-4.543 5.179-5.861a1.192 1.192 0 1 1 2.044 1.227c-.318.545-3.226 5.361-6.224 6.815a4.4 4.4 0 0 1-1.772.318z" class="cls-2" data-name="Path 53" transform="translate(-464.405 -322.711)"/>
            </g>
            <g id="Group_54" data-name="Group 54" transform="translate(210.118 159.99)">
                <path id="Path_54" d="M463.681 360.61a1.181 1.181 0 0 1 0-2.362 13.576 13.576 0 0 0 11.676-6.269c-.545-2.59-2.135-9.268-2.135-9.359a1.212 1.212 0 1 1 2.362-.545c.091.318 1.772 7.632 2.272 9.859a1.458 1.458 0 0 1-.091.772 16.184 16.184 0 0 1-14.084 7.904z" class="cls-2" data-name="Path 54" transform="translate(-462.5 -341.138)"/>
            </g>
            <g id="Group_55" data-name="Group 55" transform="translate(223.029 169.795)">
                <path id="Path_55" d="M493.864 438.444a1.093 1.093 0 0 1-1-.591 1.15 1.15 0 0 1 .409-1.635l12.721-7.723a6.639 6.639 0 0 0 3.135-5.588v-39.752a10.867 10.867 0 0 0-4.452-8.723l-13.266-9.54a1.2 1.2 0 0 1 1.408-1.954l13.22 9.586a13.172 13.172 0 0 1 5.452 10.631v39.752a8.9 8.9 0 0 1-4.271 7.587l-12.72 7.723a.917.917 0 0 1-.636.227z" class="cls-2" data-name="Path 55" transform="translate(-490.92 -362.72)"/>
            </g>
            <path id="Path_56" d="M362.953 592.918a1.173 1.173 0 0 0-1.136-.818H257.281a1.181 1.181 0 1 0 0 2.362h103.628l6.042 19.308h2.449a1 1 0 0 0-.045-.363z" class="cls-2" data-name="Path 56" transform="translate(-139.752 -318.096)"/>
            <g id="Group_56" data-name="Group 56" transform="translate(220.839 274.004)">
                <path id="Path_57" d="M527.442 594.462h-40.161a1.181 1.181 0 1 1 0-2.362h40.161a1.2 1.2 0 0 1 1.181 1.181 1.145 1.145 0 0 1-1.181 1.181z" class="cls-2" data-name="Path 57" transform="translate(-486.1 -592.1)"/>
            </g>
            <g id="Group_57" data-name="Group 57" transform="translate(222.611 279.592)">
                <path id="Path_58" d="M529.57 606.762h-38.389a1.181 1.181 0 1 1 0-2.362h38.389a1.2 1.2 0 0 1 1.181 1.181 1.145 1.145 0 0 1-1.181 1.181z" class="cls-2" data-name="Path 58" transform="translate(-490 -604.4)"/>
            </g>
            <g id="Group_58" data-name="Group 58" transform="translate(209.247 186.956)">
                <path id="Path_59" d="M461.772 454.968a1.14 1.14 0 0 1-1-.545 1.184 1.184 0 0 1 .363-1.636l13.039-8.223a6.761 6.761 0 0 0 3.18-6.088l-1.726-36.754a1.174 1.174 0 0 1 1.136-1.227 1.148 1.148 0 0 1 1.227 1.136l1.726 36.754a9.31 9.31 0 0 1-4.271 8.223l-13.084 8.178a1 1 0 0 1-.59.182z" class="cls-2" data-name="Path 59" transform="translate(-460.584 -400.494)"/>
            </g>
            <g id="Group_59" data-name="Group 59" transform="translate(241.238 187.64)">
                <path id="Path_60" d="M546.674 447.2a1.2 1.2 0 0 1-1.181-1.181v-28.345a13.3 13.3 0 0 0-13.311-13.311 1.181 1.181 0 1 1 0-2.362 15.724 15.724 0 0 1 15.718 15.718v28.349a1.272 1.272 0 0 1-1.226 1.132z" class="cls-2" data-name="Path 60" transform="translate(-531 -402)"/>
            </g>
            <g id="Group_60" data-name="Group 60" transform="translate(241.238 193.319)">
                <path id="Path_61" d="M541.54 454.025a1.2 1.2 0 0 1-1.181-1.181v-26.759c0-4.361-3.5-9.222-8.177-9.222a1.181 1.181 0 1 1 0-2.362c5.633 0 10.585 5.452 10.585 11.63v26.759a1.272 1.272 0 0 1-1.227 1.135z" class="cls-2" data-name="Path 61" transform="translate(-531 -414.5)"/>
            </g>
            <g id="Group_61" data-name="Group 61" transform="translate(332.872 74.217)">
                <path id="Path_62" d="M764.729 229.417a32.05 32.05 0 0 1-32.029-32.029v-13.857a32 32 0 0 1 24.714-31.166 1.212 1.212 0 0 1 .545 2.362 29.519 29.519 0 0 0-22.9 28.894v13.856a29.666 29.666 0 0 0 59.333 0v-10.72a1.181 1.181 0 1 1 2.362 0v10.722a32.031 32.031 0 0 1-32.025 31.938z" class="cls-2" data-name="Path 62" transform="translate(-732.7 -152.338)"/>
            </g>
            <g id="Group_62" data-name="Group 62" transform="translate(394.612 107.3)">
                <path id="Path_63" d="M869.781 237.626a1.2 1.2 0 0 1-1.181-1.181v-9.858a1.181 1.181 0 0 1 2.362 0v8.5a5.556 5.556 0 0 0 4.316-5.406 5.219 5.219 0 0 0-.727-2.726 1.2 1.2 0 0 1 2.09-1.181 7.925 7.925 0 0 1-6.86 11.857z" class="cls-2" data-name="Path 63" transform="translate(-868.6 -225.159)"/>
            </g>
            <g id="Group_63" data-name="Group 63" transform="translate(322.195 102.321)">
                <path id="Path_64" d="M721.057 233.826c-5.27 0-11.857 0-11.857-9.813s6.587-9.813 11.857-9.813a1.2 1.2 0 0 1 1.181 1.181V232.6a1.157 1.157 0 0 1-1.181 1.226zm-1.181-17.218c-5.315.091-8.268.818-8.268 7.405s2.953 7.314 8.268 7.405z" class="cls-2" data-name="Path 64" transform="translate(-709.2 -214.2)"/>
            </g>
            <g id="Group_64" data-name="Group 64" transform="translate(344.726 69.433)">
                <path id="Path_65" d="M811.4 181.919c-13.538 0-20.035-8.541-28.849-20.171a348.551 348.551 0 0 0-5.225-6.769c-11.267-14.129-16.537-10.358-16.582-10.313a1.192 1.192 0 1 1-1.545-1.817 5.854 5.854 0 0 1 4.361-1c4.543.454 9.813 4.361 15.628 11.676 1.863 2.362 3.589 4.634 5.27 6.815 9.132 11.994 15.174 19.944 28.712 19.172 3.044-.182 5.77-.409 8.087-.681a1.189 1.189 0 1 1 .273 2.362c-2.408.273-5.179.5-8.268.681-.631.045-1.262.045-1.862.045z" class="cls-2" data-name="Path 65" transform="translate(-758.792 -141.807)"/>
            </g>
            <g id="Group_65" data-name="Group 65" transform="translate(357.859 134.077)">
                <path id="Path_66" d="M800.92 294.731h-8.95a4.266 4.266 0 0 1-4.27-4.271v-2.09a4.266 4.266 0 0 1 4.27-4.271h8.95a4.266 4.266 0 0 1 4.271 4.271v2.09a4.325 4.325 0 0 1-4.271 4.271zm-8.95-8.223a1.871 1.871 0 0 0-1.863 1.863v2.09a1.871 1.871 0 0 0 1.863 1.863h8.95a1.871 1.871 0 0 0 1.863-1.863v-2.09a1.871 1.871 0 0 0-1.863-1.863z" class="cls-2" data-name="Path 66" transform="translate(-787.7 -284.1)"/>
            </g>
            <g id="Group_66" data-name="Group 66" transform="translate(325.221 118.294)">
                <path id="Path_67" d="M749.678 272.684a.576.576 0 0 1-.273-.045l-18.717-4.361a13.24 13.24 0 0 1-8.268-6.088l-6.406-11.04a1.2 1.2 0 0 1 2.09-1.181l6.406 11.04a10.725 10.725 0 0 0 6.724 5l18.717 4.361a1.215 1.215 0 0 1 .909 1.454 1.227 1.227 0 0 1-1.182.86z" class="cls-2" data-name="Path 67" transform="translate(-715.859 -249.359)"/>
            </g>
            <g id="Group_67" data-name="Group 67" transform="translate(363.757 40.704)">
                <path id="Path_68" d="M862.113 197.2c-.591 0-1.136 0-1.726-.045-28.485-1-37.8-16.537-38.162-17.218a1.2 1.2 0 1 1 2.09-1.181c.091.136 9.132 15.083 36.208 16.037a44.2 44.2 0 0 0 30.711-10.722 51.708 51.708 0 0 0 9.313-10.086c-9.359-2.317-14.538-13.4-22.17-29.621-.727-1.5-1.408-3.044-2.181-4.634a138.943 138.943 0 0 1-6.269-17.4c-5.043-16.355-10.267-33.255-28.8-39.025-11.676-3.634-21.989-3.044-29.848 1.726a23.693 23.693 0 0 0-8.359 8.223 1.179 1.179 0 1 1-2.09-1.09 25.971 25.971 0 0 1 9.222-9.177c5.906-3.589 16.219-6.815 31.8-1.954 19.717 6.133 25.123 23.669 30.348 40.615 1.908 6.133 3.68 11.948 6.133 17.082q1.159 2.385 2.181 4.634c7.769 16.537 12.9 27.486 22.125 28.621a1.171 1.171 0 0 1 .863 1.772 50.482 50.482 0 0 1-10.767 12.13 47.858 47.858 0 0 1-30.622 11.313z" class="cls-2" data-name="Path 68" transform="translate(-800.683 -78.571)"/>
            </g>
            <g id="Group_68" data-name="Group 68" transform="translate(270.416 42.58)">
                <path id="Path_69" d="M640.054 199.139c-16.719 0-27.531-6.179-33.846-11.812a40.854 40.854 0 0 1-10.9-14.947 1.014 1.014 0 0 1 .091-.954 1.246 1.246 0 0 1 .772-.591c14.629-3.362 19.081-18.354 23.76-34.255 1.59-5.361 3.226-10.858 5.27-15.946C635.42 95.466 650 82.7 668.494 82.7c21.67 0 25.35 7.269 25.487 7.587a1.177 1.177 0 0 1-.591 1.59 1.21 1.21 0 0 1-1.59-.545c-.091-.136-3.634-6.224-23.351-6.224-17.445 0-31.256 12.266-41.115 36.481-2 4.952-3.635 10.4-5.179 15.719-4.543 15.356-9.222 31.256-24.124 35.527a40.588 40.588 0 0 0 9.813 12.857c9.995 8.814 23.851 12.493 40.161 10.676 12.266-2.362 20.807-7.769 20.807-13.175a1.2 1.2 0 0 1 1.181-1.181 1.2 1.2 0 0 1 1.181 1.181c0 6.769-9 12.9-22.806 15.537h-.091a86.7 86.7 0 0 1-8.223.409z" class="cls-2" data-name="Path 69" transform="translate(-595.226 -82.7)"/>
            </g>
            <g id="Group_69" data-name="Group 69" transform="translate(285.164 63.461)">
                <path id="Path_70" d="M628.875 199.551a1.186 1.186 0 0 1-.363-2.317c.136-.045 8.95-3.18 13.675-19.672.409-1.408.818-2.862 1.227-4.316 4.543-16.083 9.268-32.71 21.171-44.25a1.189 1.189 0 0 1 1.635 1.726c-11.494 11.131-16.083 27.44-20.535 43.2-.409 1.454-.818 2.862-1.227 4.316-5.134 17.809-14.81 21.125-15.265 21.262a.674.674 0 0 1-.318.051z" class="cls-2" data-name="Path 70" transform="translate(-627.688 -128.662)"/>
            </g>
            <g id="Group_70" data-name="Group 70" transform="translate(381.396 48.878)">
                <path id="Path_71" d="M901.563 177.583a1.144 1.144 0 0 1-.909-.409c-9.677-11.63-17.036-35.572-20.989-48.429-.363-1.181-.681-2.226-1-3.18-3.316-10.631-6.678-18.627-19.49-24.351-11.948-5.315-17.354.363-17.582.591a1.209 1.209 0 0 1-1.681.091 1.168 1.168 0 0 1-.091-1.681c.273-.318 6.678-7.224 20.308-1.181 13.72 6.133 17.4 14.947 20.807 25.8.318.954.636 2 1 3.18 3.907 12.721 11.176 36.345 20.535 47.612a1.209 1.209 0 0 1-.136 1.681 1.233 1.233 0 0 1-.772.276z" class="cls-2" data-name="Path 71" transform="translate(-839.508 -96.564)"/>
            </g>
            <path id="Path_72" d="M751.953 461.8h-158.1a19.369 19.369 0 0 0-19.353 19.354v61.513h2.362v-61.513a16.946 16.946 0 0 1 16.946-16.946h158.1a16.946 16.946 0 0 1 16.946 16.946v61.513h2.362v-61.513a19.234 19.234 0 0 0-19.263-19.354z" class="cls-2" data-name="Path 72" transform="translate(-313.5 -246.992)"/>
            <g id="Group_71" data-name="Group 71" transform="translate(431.729 223.531)">
                <path id="Path_73" d="M966.065 526.113a1.2 1.2 0 0 1-1.181-1.181v-28.168a13.4 13.4 0 0 0-13.4-13.4 1.181 1.181 0 0 1 0-2.362 15.773 15.773 0 0 1 15.765 15.764v28.167a1.2 1.2 0 0 1-1.184 1.18z" class="cls-2" data-name="Path 73" transform="translate(-950.3 -481)"/>
            </g>
            <g id="Group_72" data-name="Group 72" transform="translate(270.132 223.531)">
                <path id="Path_74" d="M595.781 528.339a1.2 1.2 0 0 1-1.181-1.181v-30.394A15.773 15.773 0 0 1 610.365 481h15.4a1.181 1.181 0 1 1 0 2.362h-15.4a13.4 13.4 0 0 0-13.4 13.4v30.393a1.173 1.173 0 0 1-1.184 1.184z" class="cls-2" data-name="Path 74" transform="translate(-594.6 -481)"/>
            </g>
            <g id="Group_73" data-name="Group 73" transform="translate(332.142 179.27)">
                <path id="Path_75" d="M763.852 414.3a33.191 33.191 0 0 1-22.17-8.5 32.257 32.257 0 0 1-10.582-20.9 1.244 1.244 0 0 1 1.09-1.317 1.21 1.21 0 0 1 1.318 1.09 30.636 30.636 0 0 0 57.833 10.358 1.189 1.189 0 1 1 2.135 1.045 32.912 32.912 0 0 1-29.624 18.224z" class="cls-2" data-name="Path 75" transform="translate(-731.093 -383.577)"/>
            </g>
            <g id="Group_74" data-name="Group 74" transform="translate(285.095 176.404)">
                <path id="Path_76" d="M628.747 412.945a.773.773 0 0 1-.318-.045 1.231 1.231 0 0 1-.863-1.454 71.405 71.405 0 0 1 6.315-14.492c6.906-12.175 22.761-19.263 23.442-19.581a1.2 1.2 0 1 1 1 2.181c-.136.091-15.81 7.087-22.307 18.581a64.624 64.624 0 0 0-6.088 13.9 1.255 1.255 0 0 1-1.181.91z" class="cls-2" data-name="Path 76" transform="translate(-627.537 -377.266)"/>
            </g>
            <g id="Group_75" data-name="Group 75" transform="translate(274.51 188.291)">
                <path id="Path_77" d="M605.447 427.224a.886.886 0 0 1-.318-.045 1.231 1.231 0 0 1-.863-1.454 65.793 65.793 0 0 1 11.267-21.852 1.2 1.2 0 1 1 1.863 1.5 63.727 63.727 0 0 0-10.812 20.989 1.214 1.214 0 0 1-1.137.862z" class="cls-2" data-name="Path 77" transform="translate(-604.237 -403.433)"/>
            </g>
            <g id="Group_76" data-name="Group 76" transform="translate(417.365 176.457)">
                <path id="Path_78" d="M945.813 414.417h-.045a1.2 1.2 0 0 1-1.136-1.227c0-.045.136-5.088-4.18-13.039-7.042-13.084-20.989-20.489-21.125-20.535a1.179 1.179 0 1 1 1.09-2.09c.591.318 14.72 7.769 22.125 21.534 4.634 8.632 4.452 14.038 4.452 14.265a1.157 1.157 0 0 1-1.181 1.092z" class="cls-2" data-name="Path 78" transform="translate(-918.683 -377.383)"/>
            </g>
            <g id="Group_80" data-name="Group 80" transform="translate(41.064 101.18)">
                <g id="Group_77" data-name="Group 77">
                    <path id="Path_79" d="M126.431 198.077a115.021 115.021 0 0 1-16.536-10.177 115.021 115.021 0 0 1-16.537 10.176s-3.271 16.628 16.537 26.85c19.805-10.176 16.536-26.849 16.536-26.849z" class="cls-4" data-name="Path 79" transform="translate(-91.898 -186.707)"/>
                    <path id="Path_80" d="M108.338 224.675a1.21 1.21 0 0 1-.545-.136c-10.585-5.452-14.72-12.766-16.31-17.945a22.513 22.513 0 0 1-.863-10.177 1.3 1.3 0 0 1 .681-.863c7.587-3.544 16.264-9.995 16.355-10.04a1.159 1.159 0 0 1 1.408 0c.091.045 8.768 6.542 16.355 10.04a1.3 1.3 0 0 1 .681.863 22.507 22.507 0 0 1-.863 10.177c-1.59 5.179-5.679 12.493-16.31 17.945a1.4 1.4 0 0 1-.589.136zm-15.446-27.213A21.791 21.791 0 0 0 93.8 206c2.09 6.678 6.951 12.085 14.538 16.128 16.219-8.632 15.764-21.807 15.446-24.669a110.618 110.618 0 0 1-15.446-9.5 110.617 110.617 0 0 1-15.446 9.503z" class="cls-2" data-name="Path 80" transform="translate(-90.387 -185.275)"/>
                </g>
                <g id="Group_79" data-name="Group 79" transform="translate(9.938 16.031)">
                    <g id="Group_78" data-name="Group 78">
                        <path id="Path_81" d="M120.411 229.847h-.273a1.241 1.241 0 0 1-.863-.363l-6.678-6.905a1.189 1.189 0 1 1 1.726-1.635l6 6.179 6-6.179a1.189 1.189 0 1 1 1.726 1.635l-6.724 6.905a1.231 1.231 0 0 1-.914.363z" class="cls-2" data-name="Path 81" transform="translate(-112.262 -220.562)"/>
                    </g>
                </g>
            </g>
            <g id="Group_85" data-name="Group 85" transform="translate(104.673 136.621)">
                <g id="Group_81" data-name="Group 81" transform="translate(5.452)">
                    <path id="Path_82" d="M265.206 292.062h-21.625a1.181 1.181 0 0 1 0-2.362h21.625a1.2 1.2 0 0 1 1.181 1.181 1.146 1.146 0 0 1-1.181 1.181z" class="cls-5" data-name="Path 82" transform="translate(-242.4 -289.7)"/>
                </g>
                <g id="Group_82" data-name="Group 82" transform="translate(0 6.678)">
                    <path id="Path_83" d="M263.883 306.762h-32.3a1.181 1.181 0 1 1 0-2.362h32.3a1.2 1.2 0 0 1 1.181 1.181 1.173 1.173 0 0 1-1.181 1.181z" class="cls-5" data-name="Path 83" transform="translate(-230.4 -304.4)"/>
                </g>
                <g id="Group_83" data-name="Group 83" transform="translate(0 13.311)">
                    <path id="Path_84" d="M263.883 321.362h-32.3a1.181 1.181 0 1 1 0-2.362h32.3a1.2 1.2 0 0 1 1.181 1.181 1.173 1.173 0 0 1-1.181 1.181z" class="cls-5" data-name="Path 84" transform="translate(-230.4 -319)"/>
                </g>
                <g id="Group_84" data-name="Group 84" transform="translate(5.452 19.944)">
                    <path id="Path_85" d="M265.206 335.962h-21.625a1.181 1.181 0 1 1 0-2.362h21.625a1.2 1.2 0 0 1 1.181 1.181 1.146 1.146 0 0 1-1.181 1.181z" class="cls-5" data-name="Path 85" transform="translate(-242.4 -333.6)"/>
                </g>
            </g>
            <g id="Group_86" data-name="Group 86" transform="translate(133.294 76.88)">
                <circle id="Ellipse_5" cx="25.441" cy="25.441" r="25.441" class="cls-6" data-name="Ellipse 5"/>
            </g>
            <g id="Group_87" data-name="Group 87" transform="translate(124.299 72.127)">
                <path id="Path_86" d="M274.781 179.159a1.2 1.2 0 0 1-1.181-1.181 32.364 32.364 0 0 1 20.9-30.166 1.194 1.194 0 1 1 .863 2.226 30 30 0 0 0-19.354 27.94 1.277 1.277 0 0 1-1.228 1.181z" class="cls-2" data-name="Path 86" transform="translate(-273.6 -147.738)"/>
            </g>
            <g id="Group_95" data-name="Group 95" transform="translate(140.2 89.146)">
                <g id="Group_88" data-name="Group 88" transform="translate(5.315 7.064)">
                    <path id="Path_87" d="M323.071 214.037a1.185 1.185 0 0 1-.954-.5 9.909 9.909 0 0 1-1.817-5.906 9.656 9.656 0 0 1 2.272-6.5 1.19 1.19 0 0 1 1.772 1.59 7.323 7.323 0 0 0-1.681 4.861 7.551 7.551 0 0 0 1.363 4.5 1.216 1.216 0 0 1-.227 1.681.979.979 0 0 1-.728.274z" class="cls-2" data-name="Path 87" transform="translate(-320.3 -200.748)"/>
                </g>
                <g id="Group_89" data-name="Group 89" transform="translate(0 2.297)">
                    <path id="Path_88" d="M314.415 213.445a1.282 1.282 0 0 1-.681-.182c-3.18-2.135-5.134-6.451-5.134-11.312 0-5 2.181-9.54 5.5-11.539a1.192 1.192 0 1 1 1.227 2.044c-2.635 1.59-4.361 5.315-4.361 9.5 0 4 1.59 7.632 4.089 9.313a1.172 1.172 0 0 1 .318 1.635 1.02 1.02 0 0 1-.958.541z" class="cls-2" data-name="Path 88" transform="translate(-308.6 -190.256)"/>
                </g>
                <g id="Group_90" data-name="Group 90" transform="translate(27.444 7.091)">
                    <path id="Path_89" d="M370.595 214.07a1.508 1.508 0 0 1-.727-.227 1.176 1.176 0 0 1-.227-1.681 7.551 7.551 0 0 0 1.363-4.5 7.323 7.323 0 0 0-1.681-4.861 1.19 1.19 0 0 1 1.772-1.59 9.656 9.656 0 0 1 2.272 6.5 9.909 9.909 0 0 1-1.817 5.906 1.141 1.141 0 0 1-.955.453z" class="cls-2" data-name="Path 89" transform="translate(-369.008 -200.809)"/>
                </g>
                <g id="Group_91" data-name="Group 91" transform="translate(29.782 2.297)">
                    <path id="Path_90" d="M375.675 213.445a1.2 1.2 0 0 1-1-.545 1.172 1.172 0 0 1 .318-1.636c2.5-1.681 4.089-5.315 4.089-9.313 0-4.18-1.726-7.9-4.361-9.5a1.192 1.192 0 1 1 1.227-2.044c3.362 2 5.5 6.542 5.5 11.539 0 4.861-1.954 9.177-5.134 11.312a1.479 1.479 0 0 1-.639.187z" class="cls-2" data-name="Path 90" transform="translate(-374.156 -190.256)"/>
                </g>
                <g id="Group_92" data-name="Group 92" transform="translate(18.081)">
                    <circle id="Ellipse_6" cx="1.817" cy="1.817" r="1.817" class="cls-4" data-name="Ellipse 6"/>
                </g>
                <g id="Group_94" data-name="Group 94" transform="translate(15.358 5.739)">
                    <g id="Group_93" data-name="Group 93">
                        <path id="Path_91" d="M347.264 217.717a1.755 1.755 0 0 1-1.227-.5 13.5 13.5 0 0 1-3.589-8.859c-.318-6.042 1.227-9.359 1.317-9.5a1.809 1.809 0 0 1 3.271 1.545c-.045.045-1.227 2.771-.954 7.769a10.128 10.128 0 0 0 2.453 6.406 1.8 1.8 0 0 1 .091 2.544 2.057 2.057 0 0 1-1.362.595z" class="cls-4" data-name="Path 91" transform="translate(-342.405 -197.833)"/>
                    </g>
                </g>
            </g>
            <g id="Group_96" data-name="Group 96" transform="translate(537.765 37.764)">
                <path id="Path_92" d="M1217 74.462h-32.12a1.181 1.181 0 0 1 0-2.362H1217a1.181 1.181 0 0 1 0 2.362z" class="cls-5" data-name="Path 92" transform="translate(-1183.7 -72.1)"/>
            </g>
            <g id="Group_97" data-name="Group 97" transform="translate(532.404 44.215)">
                <path id="Path_93" d="M1215.832 88.662h-42.75a1.181 1.181 0 1 1 0-2.362h42.75a1.2 1.2 0 0 1 1.181 1.181 1.121 1.121 0 0 1-1.181 1.181z" class="cls-5" data-name="Path 93" transform="translate(-1171.9 -86.3)"/>
            </g>
            <g id="Group_98" data-name="Group 98" transform="translate(532.404 50.712)">
                <path id="Path_94" d="M1215.832 102.962h-42.75a1.181 1.181 0 1 1 0-2.362h42.75a1.2 1.2 0 0 1 1.181 1.181 1.145 1.145 0 0 1-1.181 1.181z" class="cls-5" data-name="Path 94" transform="translate(-1171.9 -100.6)"/>
            </g>
            <g id="Group_99" data-name="Group 99" transform="translate(537.765 57.163)">
                <path id="Path_95" d="M1217 117.162h-32.12a1.181 1.181 0 0 1 0-2.362H1217a1.181 1.181 0 0 1 0 2.362z" class="cls-5" data-name="Path 95" transform="translate(-1183.7 -114.8)"/>
            </g>
            <g id="Group_100" data-name="Group 100" transform="translate(572.856 59.575)">
                <circle id="Ellipse_7" cx="25.759" cy="25.759" r="25.759" class="cls-6" data-name="Ellipse 7" transform="rotate(-13.286 50.827 5.92)"/>
            </g>
            <g id="Group_101" data-name="Group 101" transform="translate(612.107 59.588)">
                <path id="Path_96" d="M1371.49 152.331a1.2 1.2 0 0 1-1.181-1.181 29.7 29.7 0 0 0-22.079-28.667 1.2 1.2 0 0 1 .591-2.317 32.043 32.043 0 0 1 23.851 30.984 1.2 1.2 0 0 1-1.182 1.181z" class="cls-2" data-name="Path 96" transform="translate(-1347.338 -120.137)"/>
            </g>
            <g id="Group_102" data-name="Group 102" transform="translate(507.678 107.102)">
                <path id="Path_97" d="M1142.11 284.227c-11.812 0-21.4-9.132-22.761-21.761-.091-1-1.817-14.856-1.863-14.992a1.144 1.144 0 0 1 .272-.909 1.247 1.247 0 0 1 .818-.454c7.36-.545 19.99-15.265 24.26-20.9a1.156 1.156 0 0 1 1.545-.318l19.9 11.494a1.2 1.2 0 0 1 .591 1.045v23.988a22.782 22.782 0 0 1-22.762 22.807zm-22.079-35.845c.409 3.362 1.635 12.993 1.726 13.856 1.227 11.358 9.813 19.626 20.4 19.626a20.426 20.426 0 0 0 20.4-20.4V238.16l-18.4-10.631c-3.001 3.817-15.267 18.9-24.126 20.853z" class="cls-2" data-name="Path 97" transform="translate(-1117.475 -224.723)"/>
            </g>
            <g id="Group_103" data-name="Group 103" transform="translate(532.793 98.751)">
                <path id="Path_98" d="M1173.957 217.136a1.136 1.136 0 0 1-.636-.182 1.24 1.24 0 0 1-.409-1.635 35.536 35.536 0 0 0 3.68-8.041 1.185 1.185 0 1 1 2.317.5c-.818 3.68-3.816 8.586-3.952 8.768a1.093 1.093 0 0 1-1 .59z" class="cls-2" data-name="Path 98" transform="translate(-1172.755 -206.342)"/>
            </g>
            <g id="Group_104" data-name="Group 104" transform="translate(501.864 128.054)">
                <path id="Path_99" d="M1113.229 285.861h-.091c-.273 0-2.953-.318-6.088-4.134-3.362-4.134-2.181-9.722-2.135-9.949a1.19 1.19 0 0 1 1.408-.909 26.818 26.818 0 0 0 5.361.5 1.2 1.2 0 1 1 .046 2.408 29.766 29.766 0 0 1-4.634-.318 9.479 9.479 0 0 0 1.817 6.769c2.453 3 4.407 3.271 4.407 3.271a1.207 1.207 0 0 1 1.09 1.272 1.186 1.186 0 0 1-1.181 1.09z" class="cls-2" data-name="Path 99" transform="translate(-1104.677 -270.842)"/>
            </g>
            <g id="Group_105" data-name="Group 105" transform="translate(552.711 123.628)">
                <path id="Path_100" d="M1217.781 279.318a1.2 1.2 0 0 1-1.181-1.181v-15.856a1.2 1.2 0 0 1 1.181-1.181 9.114 9.114 0 0 1 0 18.218zm1.181-15.764v13.266a6.823 6.823 0 0 0 0-13.266z" class="cls-2" data-name="Path 100" transform="translate(-1216.6 -261.1)"/>
            </g>
            <g id="Group_106" data-name="Group 106" transform="translate(523.772 153.067)">
                <path id="Path_101" d="M1164.485 334.032h-8.4a3.189 3.189 0 0 1-3.18-3.18v-1.772a3.189 3.189 0 0 1 3.18-3.18h8.4a3.189 3.189 0 0 1 3.18 3.18v1.772a3.219 3.219 0 0 1-3.18 3.18zm-8.4-5.724a.8.8 0 0 0-.772.772v1.772a.8.8 0 0 0 .772.772h8.4a.8.8 0 0 0 .772-.772v-1.772a.8.8 0 0 0-.772-.772z" class="cls-2" data-name="Path 101" transform="translate(-1152.9 -325.9)"/>
            </g>
            <g id="Group_107" data-name="Group 107" transform="translate(535.904 139.427)">
                <path id="Path_102" d="M1180.784 312.923a1.163 1.163 0 0 1-1.136-.909 1.194 1.194 0 0 1 .863-1.454c.182-.045 14.311-3.771 15.946-13.675a1.2 1.2 0 1 1 2.362.363c-1.863 11.449-17.036 15.447-17.718 15.628a.886.886 0 0 1-.317.047z" class="cls-2" data-name="Path 102" transform="translate(-1179.604 -295.874)"/>
            </g>
            <g id="Group_108" data-name="Group 108" transform="translate(478.546 95.719)">
                <path id="Path_103" d="M1054.554 292.452a1.241 1.241 0 0 1-.863-.363 1.207 1.207 0 0 1 0-1.681c.045-.045 4.225-4.589 7.632-23.806a174.306 174.306 0 0 0 2.226-24.714c.363-9.5.682-17.718 3.862-25.078 4.816-11.085 17.627-16.764 18.172-17.037a1.211 1.211 0 0 1 .954 2.226c-.136.045-12.494 5.543-16.946 15.764-3 6.951-3.316 14.947-3.68 24.215a174.659 174.659 0 0 1-2.271 25.078c-3.589 20.262-8.087 24.9-8.268 25.078a1.166 1.166 0 0 1-.818.318z" class="cls-2" data-name="Path 103" transform="translate(-1053.35 -199.668)"/>
            </g>
            <g id="Group_109" data-name="Group 109" transform="translate(564.155 140.707)">
                <path id="Path_104" d="M1242.975 339.039a1 1 0 0 1-.363-.045 1.189 1.189 0 0 1-.772-1.5c3.044-9.677 1-37.253 1-37.526a1.185 1.185 0 0 1 2.362-.182c.091 1.136 2.09 28.3-1.09 38.389a1.259 1.259 0 0 1-1.137.864z" class="cls-2" data-name="Path 104" transform="translate(-1241.788 -298.694)"/>
            </g>
            <g id="Group_110" data-name="Group 110" transform="translate(484.747 162.56)">
                <path id="Path_105" d="M1068.181 397.725a1.2 1.2 0 0 1-1.181-1.181 48.5 48.5 0 0 1 .636-7.269c2.726-14.765 16.855-21.034 25.3-24.76 1.181-.545 2.317-1 3.226-1.5 7-3.362 8-14.992 8-15.128a1.185 1.185 0 1 1 2.362.182c-.045.545-1.136 13.084-9.359 17.082-1 .454-2.09.954-3.317 1.5-8.541 3.771-21.4 9.5-23.9 22.988a47.6 47.6 0 0 0-.591 6.86 1.184 1.184 0 0 1-1.176 1.226z" class="cls-2" data-name="Path 105" transform="translate(-1067 -346.794)"/>
            </g>
            <g id="Group_111" data-name="Group 111" transform="translate(538.489 163.196)">
                <path id="Path_106" d="M1223.64 398.489a1.2 1.2 0 0 1-1.181-1.181 48.006 48.006 0 0 0-.591-6.905c-2.5-13.493-15.356-19.217-23.9-22.988-1.181-.545-2.317-1.045-3.316-1.5-8.223-4-9.313-15.9-9.359-16.446a1.185 1.185 0 0 1 2.363-.182c0 .182 1.045 11.085 8 14.492.954.454 2.044.954 3.226 1.5 8.45 3.725 22.579 10.04 25.3 24.76a49.317 49.317 0 0 1 .636 7.314 1.11 1.11 0 0 1-1.181 1.136z" class="cls-2" data-name="Path 106" transform="translate(-1185.294 -348.194)"/>
            </g>
            <g id="Group_112" data-name="Group 112" transform="translate(538.489 163.196)">
                <path id="Path_107" d="M1223.64 398.489a1.2 1.2 0 0 1-1.181-1.181 48.006 48.006 0 0 0-.591-6.905c-2.5-13.493-15.356-19.217-23.9-22.988-1.181-.545-2.317-1.045-3.316-1.5-8.223-4-9.313-15.9-9.359-16.446a1.185 1.185 0 0 1 2.363-.182c0 .182 1.045 11.085 8 14.492.954.454 2.044.954 3.226 1.5 8.45 3.725 22.579 10.04 25.3 24.76a49.317 49.317 0 0 1 .636 7.314 1.11 1.11 0 0 1-1.181 1.136z" class="cls-2" data-name="Path 107" transform="translate(-1185.294 -348.194)"/>
            </g>
            <g id="Group_113" data-name="Group 113" transform="translate(517.652 174.759)">
                <path id="Path_108" d="M1153.045 387.346c-5.452 0-11.676-3.725-13.539-12.039a1.214 1.214 0 0 1 2.09-1.181l.045.045a1.422 1.422 0 0 1 .227.454c1.635 7.678 7.133 10.358 11.312 10.313 4.089-.045 9.359-2.771 10.813-10.313a1.2 1.2 0 1 1 2.362.454c-1.454 7.36-6.588 12.175-13.13 12.266z" class="cls-2" data-name="Path 108" transform="translate(-1139.429 -373.647)"/>
            </g>
            <g id="Group_114" data-name="Group 114" transform="translate(510.092 186.181)">
                <path id="Path_109" d="M1145.191 415.967c-17.082 0-22.307-15.492-22.352-15.628a1.193 1.193 0 0 1 2.272-.727c.182.591 4.77 13.993 20.08 13.993a20.185 20.185 0 0 0 16.764-8.268 1.192 1.192 0 0 1 2.044 1.227c-.227.362-5.905 9.403-18.808 9.403z" class="cls-2" data-name="Path 109" transform="translate(-1122.788 -398.788)"/>
            </g>
            <g id="Group_115" data-name="Group 115" transform="translate(666.379 70.474)">
                <path id="Path_110" d="M1484.609 146.462h-16.628a1.181 1.181 0 0 1 0-2.362h16.628a1.2 1.2 0 0 1 1.181 1.181 1.173 1.173 0 0 1-1.181 1.181z" class="cls-5" data-name="Path 110" transform="translate(-1466.8 -144.1)"/>
            </g>
            <g id="Group_116" data-name="Group 116" transform="translate(659.383 75.426)">
                <path id="Path_111" d="M1483.156 157.362h-30.575a1.181 1.181 0 0 1 0-2.362h30.53a1.2 1.2 0 0 1 1.181 1.181 1.109 1.109 0 0 1-1.136 1.181z" class="cls-5" data-name="Path 111" transform="translate(-1451.4 -155)"/>
            </g>
            <g id="Group_117" data-name="Group 117" transform="translate(659.383 80.378)">
                <path id="Path_112" d="M1483.156 168.262h-30.575a1.181 1.181 0 0 1 0-2.362h30.53a1.2 1.2 0 0 1 1.181 1.181 1.164 1.164 0 0 1-1.136 1.181z" class="cls-5" data-name="Path 112" transform="translate(-1451.4 -165.9)"/>
            </g>
            <g id="Group_118" data-name="Group 118" transform="translate(670.15 85.33)">
                <path id="Path_113" d="M1485.322 179.162h-9.041a1.181 1.181 0 0 1 0-2.362h9.041a1.2 1.2 0 0 1 1.181 1.181 1.146 1.146 0 0 1-1.181 1.181z" class="cls-5" data-name="Path 113" transform="translate(-1475.1 -176.8)"/>
            </g>
            <g id="Group_119" data-name="Group 119" transform="translate(680.046 103.457)">
                <path id="Path_114" d="M1553.679 236.644a1.184 1.184 0 0 1-1.09-.681 30.01 30.01 0 0 0-26.9-16.9 29.671 29.671 0 0 0-26.577 16.31 1.179 1.179 0 0 1-2.09-1.09 32.22 32.22 0 0 1 57.743.681 1.2 1.2 0 0 1-.545 1.59 2.283 2.283 0 0 1-.541.09z" class="cls-2" data-name="Path 114" transform="translate(-1496.883 -216.7)"/>
            </g>
            <g id="Group_120" data-name="Group 120" transform="translate(692.502 119.267)">
                <path id="Path_115" d="M1543.2 284.256h-5a1.2 1.2 0 0 1-1.181-1.181v-1.681a14.659 14.659 0 0 1-3.271-1.363l-1.181 1.181a1.207 1.207 0 0 1-1.681 0l-3.544-3.544a1.207 1.207 0 0 1 0-1.681l1.181-1.181a14.653 14.653 0 0 1-1.363-3.271h-1.681a1.2 1.2 0 0 1-1.181-1.181v-5a1.2 1.2 0 0 1 1.181-1.181h1.681a13.49 13.49 0 0 1 1.363-3.226l-1.181-1.181a1.207 1.207 0 0 1 0-1.681l3.544-3.544a1.207 1.207 0 0 1 1.681 0l1.181 1.181a13.5 13.5 0 0 1 3.226-1.363v-1.681a1.2 1.2 0 0 1 1.181-1.181h5a1.2 1.2 0 0 1 1.181 1.181v1.681a13.5 13.5 0 0 1 3.225 1.363l1.181-1.181a1.207 1.207 0 0 1 1.681 0l3.544 3.544a1.207 1.207 0 0 1 0 1.681l-1.181 1.181a14.316 14.316 0 0 1 1.363 3.226h1.681a1.2 1.2 0 0 1 1.181 1.181v5a1.2 1.2 0 0 1-1.181 1.181h-1.681a14.653 14.653 0 0 1-1.363 3.271l1.181 1.181a1.207 1.207 0 0 1 0 1.681l-3.544 3.544a1.207 1.207 0 0 1-1.681 0l-1.181-1.181a14.658 14.658 0 0 1-3.271 1.363v1.681a1.051 1.051 0 0 1-1.09 1.181zm-3.816-2.362h2.589v-1.408a1.216 1.216 0 0 1 .954-1.181 11.653 11.653 0 0 0 4.18-1.726 1.174 1.174 0 0 1 1.5.136l1 1 1.863-1.863-1-1a1.174 1.174 0 0 1-.136-1.5 10.9 10.9 0 0 0 1.726-4.18 1.179 1.179 0 0 1 1.181-.954h1.454v-2.59h-1.454a1.216 1.216 0 0 1-1.181-.954 11.653 11.653 0 0 0-1.726-4.18 1.174 1.174 0 0 1 .136-1.5l1-1-1.863-1.863-1.045 1.045a1.174 1.174 0 0 1-1.5.136 10.894 10.894 0 0 0-4.18-1.726 1.179 1.179 0 0 1-.954-1.181v-1.454h-2.59v1.454a1.216 1.216 0 0 1-.954 1.181 11.652 11.652 0 0 0-4.179 1.726 1.174 1.174 0 0 1-1.5-.136l-1.045-1.045-1.86 1.869 1 1a1.174 1.174 0 0 1 .136 1.5 10.9 10.9 0 0 0-1.726 4.18 1.179 1.179 0 0 1-1.181.954h-1.454v2.59h1.454a1.216 1.216 0 0 1 1.181.954 10.9 10.9 0 0 0 1.726 4.18 1.174 1.174 0 0 1-.136 1.5l-1 1 1.863 1.863 1-1a1.174 1.174 0 0 1 1.5-.136 10.894 10.894 0 0 0 4.18 1.726 1.179 1.179 0 0 1 .954 1.181v1.408zm1.318-8.041a5.951 5.951 0 1 1 5.951-5.951 5.972 5.972 0 0 1-5.953 5.95zm0-9.54a3.589 3.589 0 1 0 3.589 3.589 3.568 3.568 0 0 0-3.591-3.591z" class="cls-4" data-name="Path 115" transform="translate(-1524.3 -251.5)"/>
            </g>
            <g id="Group_121" data-name="Group 121" transform="translate(467.392 211.128)">
                <path id="Path_116" d="M1158.959 527.162a1.2 1.2 0 0 1-1.181-1.181v-59.242a10.645 10.645 0 0 0-10.631-10.631h-105.354a10.645 10.645 0 0 0-10.631 10.631v11.812a1.181 1.181 0 1 1-2.362 0v-11.812a13.068 13.068 0 0 1 13.039-13.039h105.354a13.068 13.068 0 0 1 13.038 13.039v59.241a1.357 1.357 0 0 1-1.272 1.182z" class="cls-2" data-name="Path 116" transform="translate(-1028.8 -453.7)"/>
            </g>
            <g id="Group_122" data-name="Group 122" transform="translate(482.385 219.169)">
                <path id="Path_117" d="M1168.88 497.841a1.2 1.2 0 0 1-1.181-1.181V485.3a11.556 11.556 0 0 0-11.54-11.539h-93.179a1.181 1.181 0 0 1 0-2.362h93.179a13.9 13.9 0 0 1 13.9 13.9v11.361a1.146 1.146 0 0 1-1.179 1.181z" class="cls-2" data-name="Path 117" transform="translate(-1061.8 -471.4)"/>
            </g>
            <g id="Group_123" data-name="Group 123" transform="translate(641.938 171.673)">
                <path id="Path_118" d="M1417.407 372.372h-3.226a1.181 1.181 0 0 1 0-2.362h3.226a15.48 15.48 0 0 0 8.45-2.953 1.21 1.21 0 1 1 1.363 2c-1.454.952-5.361 3.315-9.813 3.315z" class="cls-2" data-name="Path 118" transform="translate(-1413 -366.854)"/>
            </g>
            <g id="Group_124" data-name="Group 124" transform="translate(658.501 143.345)">
                <path id="Path_119" d="M1450.659 330.532a1.4 1.4 0 0 1-.591-.136 1.19 1.19 0 0 1-.454-1.635 14.469 14.469 0 0 0 1.817-7v-16.08a1.181 1.181 0 0 1 2.363 0v16.083a16.644 16.644 0 0 1-2.135 8.178 1.129 1.129 0 0 1-1 .59z" class="cls-2" data-name="Path 119" transform="translate(-1449.459 -304.5)"/>
            </g>
            <g id="Group_125" data-name="Group 125" transform="translate(622.738 124.372)">
                <path id="Path_120" d="M1380.444 324.279h-.136a1.208 1.208 0 0 1-1.045-1.318 30.492 30.492 0 0 0 .136-6.633c-2.408 1.817-5.951 1.454-7.814.818a1.193 1.193 0 0 1-.818-.909 1.181 1.181 0 0 1 .363-1.136c2.59-2.272 2.317-8.314 2-15.31a99.04 99.04 0 0 1 .045-14.674c1.272-12.493 8.95-18.354 24.124-18.354 12.4 0 17.309-3.725 17.355-3.771a1.217 1.217 0 0 1 1.181-.182 1.085 1.085 0 0 1 .727.954c.091.636 2.181 15.674-6.86 20.217-4.725 2.362-7.905 1.454-10.994.545a13.919 13.919 0 0 0-6.951-.727c-6.133 1.09-7.178 4.043-7 9.859a1.2 1.2 0 0 1-1.136 1.227 1.174 1.174 0 0 1-1.227-1.136c-.182-6.542 1.227-10.9 8.95-12.266a16.029 16.029 0 0 1 8.041.818c2.862.818 5.361 1.545 9.268-.363 5.861-2.953 6-11.994 5.77-15.9-2.5 1.272-7.86 3.226-17.082 3.226-13.9 0-20.625 5-21.761 16.173a94.187 94.187 0 0 0-.045 14.311c.318 6.678.591 12.175-1.408 15.537 1.59.182 3.816-.045 4.861-2.044a1.142 1.142 0 0 1 1.09-.636 1.191 1.191 0 0 1 1.045.727c.045.136 1.363 3.226.5 9.995a1.224 1.224 0 0 1-1.179.952z" class="cls-2" data-name="Path 120" transform="translate(-1370.739 -262.736)"/>
            </g>
            <g id="Group_126" data-name="Group 126" transform="translate(628.672 154.249)">
                <path id="Path_121" d="M1390.706 342.311a6.906 6.906 0 1 1 6.906-6.906 6.9 6.9 0 0 1-6.906 6.906zm0-11.4a4.5 4.5 0 1 0 4.5 4.5 4.479 4.479 0 0 0-4.5-4.503z" class="cls-2" data-name="Path 121" transform="translate(-1383.8 -328.5)"/>
            </g>
            <g id="Group_127" data-name="Group 127" transform="translate(650.706 167.196)">
                <path id="Path_122" d="M1441.386 363.815h-6.5a2.588 2.588 0 0 1-2.589-2.59v-1.635a2.588 2.588 0 0 1 2.589-2.59h6.5a2.588 2.588 0 0 1 2.59 2.59v1.636a2.618 2.618 0 0 1-2.59 2.589zm-6.5-4.407a.2.2 0 0 0-.182.182v1.636a.2.2 0 0 0 .182.182h6.5a.2.2 0 0 0 .182-.182v-1.636a.2.2 0 0 0-.182-.182z" class="cls-2" data-name="Path 122" transform="translate(-1432.3 -357)"/>
            </g>
            <g id="Group_128" data-name="Group 128" transform="translate(638.958 163.353)">
                <path id="Path_123" d="M1419.007 357.836c-6.542 0-12.085-7.042-12.312-7.36a1.2 1.2 0 0 1 1.908-1.454c.045.045 5.27 6.724 10.767 6.451a1.244 1.244 0 0 1 1.272 1.136 1.211 1.211 0 0 1-1.136 1.272 2.231 2.231 0 0 0-.499-.045z" class="cls-2" data-name="Path 123" transform="translate(-1406.441 -348.541)"/>
            </g>
            <g id="Group_129" data-name="Group 129" transform="translate(647.841 174.508)">
                <path id="Path_124" d="M1427.95 385.317a1.155 1.155 0 0 1-1.181-1.09l-.772-9.858a1.185 1.185 0 1 1 2.362-.182l.772 9.858a1.207 1.207 0 0 1-1.09 1.272z" class="cls-2" data-name="Path 124" transform="translate(-1425.994 -373.094)"/>
            </g>
            <g id="Group_130" data-name="Group 130" transform="translate(624.489 182.615)">
                <path id="Path_125" d="M1395.9 412.773a1.633 1.633 0 0 1-.5-.091c-16.719-7.814-20.535-17.264-20.717-17.673a1.209 1.209 0 0 1 .182-1.227c1.5-1.772 5.588-2.635 6.36-2.817a1.1 1.1 0 0 1 1.045.318c6.633 6.451 17.4 9.5 17.536 9.54a1.133 1.133 0 0 1 .818.863 1.158 1.158 0 0 1-.318 1.136c-2 2.044-3.044 7.133-3.271 8.9a1.256 1.256 0 0 1-.591.909 1.211 1.211 0 0 1-.544.142zm-18.627-17.9c1.227 2.226 5.679 8.95 17.718 14.947a23.052 23.052 0 0 1 2.544-7.224c-3.316-1.09-10.949-4.043-16.4-9.132a14.248 14.248 0 0 0-3.859 1.409z" class="cls-2" data-name="Path 125" transform="translate(-1374.592 -390.938)"/>
            </g>
            <g id="Group_131" data-name="Group 131" transform="translate(648.19 184.408)">
                <path id="Path_126" d="M1434.049 408.748a1.4 1.4 0 0 1-.591-.136l-6.088-3.407a1.232 1.232 0 0 1-.545-1.454 15.052 15.052 0 0 0 .364-7.451 1.122 1.122 0 0 1 .227-1 1.1 1.1 0 0 1 .954-.409c2.68.091 7.769 1.635 8.132 6.86.182 4.407-1.363 6.406-1.545 6.633a1.269 1.269 0 0 1-.908.364zm-4.634-5.179l4.179 2.362a9.8 9.8 0 0 0 .545-4.089c-.182-2.953-2.68-4-4.316-4.407a18.062 18.062 0 0 1-.408 6.134z" class="cls-2" data-name="Path 126" transform="translate(-1426.763 -394.885)"/>
            </g>
            <g id="Group_132" data-name="Group 132" transform="translate(655.537 193.516)">
                <path id="Path_127" d="M1463.453 492.968a1.032 1.032 0 0 1-.727-.273l-8.5-6.769a10.4 10.4 0 0 1-3.862-8.5c.409-9.177 1.09-26.35.818-38.435-.318-15.81-7.723-21.852-7.814-21.943a1.2 1.2 0 1 1 1.5-1.863c.318.273 8.359 6.724 8.723 23.76.273 12.175-.409 29.439-.818 38.616a7.82 7.82 0 0 0 2.953 6.5l8.5 6.769a1.215 1.215 0 0 1 .182 1.681 1.141 1.141 0 0 1-.955.457z" class="cls-2" data-name="Path 127" transform="translate(-1442.933 -414.933)"/>
            </g>
            <g id="Group_133" data-name="Group 133" transform="translate(607.038 190.997)">
                <path id="Path_128" d="M1357.906 496.984c-10.858-.136-20.9-9.631-21.353-10.04a1.069 1.069 0 0 1-.364-.954c.045-.409 2.635-39.116 4.18-54.7 1.59-16.355 18.127-21.807 18.309-21.852a1.192 1.192 0 1 1 .727 2.272c-.136.045-15.174 5.043-16.627 19.808-1.408 14.538-3.816 49.2-4.134 54.063 1.954 1.726 10.54 8.9 19.308 9a1.213 1.213 0 0 1 1.181 1.227 1.276 1.276 0 0 1-1.227 1.176z" class="cls-2" data-name="Path 128" transform="translate(-1336.181 -409.388)"/>
            </g>
            <g id="Group_134" data-name="Group 134" transform="translate(648.601 209.754)">
                <path id="Path_129" d="M1428.863 508.93a1.931 1.931 0 0 1-.5-.091 1.215 1.215 0 0 1-.591-1.59c.046-.091 1.227-3 4.452-18.627 3.271-15.9 1.136-36.436 1.136-36.617a1.189 1.189 0 0 1 2.363-.273c0 .227 2.181 21.125-1.181 37.344-3.317 16.219-4.589 19.036-4.634 19.126a1.023 1.023 0 0 1-1.045.728z" class="cls-2" data-name="Path 129" transform="translate(-1427.667 -450.676)"/>
            </g>
            <g id="Group_135" data-name="Group 135" transform="translate(674.875 191.638)">
                <path id="Path_130" d="M1495.04 478.492a9.539 9.539 0 0 1-9.541-9.54v-48.611a9.539 9.539 0 0 1 9.541-9.54h.136l42.387 4.18a9.52 9.52 0 0 1 9.45 9.54v42.569a9.589 9.589 0 0 1-9.495 9.54l-2 .091h-.045a1.182 1.182 0 0 1-.045-2.362l2-.091h.045a7.116 7.116 0 0 0 7.133-7.133v-42.569a7.116 7.116 0 0 0-7.133-7.133h-.136l-42.337-4.18a7.165 7.165 0 0 0-7.087 7.133V469a7.135 7.135 0 0 0 7.087 7.13l31.711-1.408a1.148 1.148 0 0 1 1.227 1.136 1.174 1.174 0 0 1-1.136 1.227l-31.711 1.408z" class="cls-2" data-name="Path 130" transform="translate(-1485.5 -410.8)"/>
            </g>
            <g id="Group_136" data-name="Group 136" transform="translate(716.353 224.348)">
                <path id="Path_131" d="M1577.981 503.7a1.2 1.2 0 0 1-1.181-1.181v-18.538a1.2 1.2 0 0 1 1.181-1.181 10.449 10.449 0 1 1 0 20.9zm1.181-18.445v15.992a8.082 8.082 0 0 0 0-15.992z" class="cls-2" data-name="Path 131" transform="translate(-1576.8 -482.8)"/>
            </g>
            <g id="Group_137" data-name="Group 137" transform="translate(681.553 198.02)">
                <path id="Path_132" d="M1501.381 464.305a1.2 1.2 0 0 1-1.181-1.181v-29.257a8.907 8.907 0 0 1 2.862-6.587 8.772 8.772 0 0 1 6.724-2.408l4.452.273a1.206 1.206 0 0 1-.136 2.408l-4.452-.273a6.624 6.624 0 0 0-4.952 1.772 6.535 6.535 0 0 0-2.09 4.816v29.257a1.277 1.277 0 0 1-1.227 1.18z" class="cls-2" data-name="Path 132" transform="translate(-1500.2 -424.848)"/>
            </g>
            <g id="Group_138" data-name="Group 138" transform="translate(620.92 216.534)">
                <path id="Path_133" d="M1367.947 512.258a1.615 1.615 0 0 1-.454-.091 1.23 1.23 0 0 1-.682-1.545c.045-.091 3.953-9.9 6.815-20.08 2.817-10.086 3.089-23.624 3.089-23.76a1.2 1.2 0 1 1 2.408.045c0 .545-.318 13.993-3.18 24.351-2.862 10.313-6.86 20.217-6.86 20.353a1.294 1.294 0 0 1-1.136.727z" class="cls-2" data-name="Path 133" transform="translate(-1366.738 -465.6)"/>
            </g>
            <g id="Group_139" data-name="Group 139" transform="translate(621.732 258.063)">
                <path id="Path_134" d="M1410.855 572.27a1.327 1.327 0 0 1-.409-.091c-.273-.091-28.712-10.676-32.983-12.175a11.125 11.125 0 0 0-7.314 0 1.19 1.19 0 0 1-1.545-.681 1.207 1.207 0 0 1 .636-1.545 13.479 13.479 0 0 1 9 0c4.316 1.545 32.71 12.085 33.028 12.175a1.14 1.14 0 0 1 .681 1.545 1.079 1.079 0 0 1-1.094.772z" class="cls-2" data-name="Path 134" transform="translate(-1368.525 -557.01)"/>
            </g>
            <g id="Group_140" data-name="Group 140" transform="translate(615.676 203.725)">
                <path id="Path_135" d="M1356.378 466.115h-.045a1.215 1.215 0 0 1-1.136-1.272c0-.091.545-9.4 1.045-16.446a13.425 13.425 0 0 1 6.678-10.858 1.189 1.189 0 0 1 1.045 2.135 10.854 10.854 0 0 0-5.361 8.9c-.5 7-1.045 16.31-1.045 16.4a1.164 1.164 0 0 1-1.181 1.141z" class="cls-2" data-name="Path 135" transform="translate(-1355.194 -437.404)"/>
            </g>
            <g id="Group_141" data-name="Group 141" transform="translate(20.716 280.91)">
                <path id="Path_136" d="M55.822 607.3h-9.041a1.2 1.2 0 0 0-1.181 1.181v13.584h2.362v-12.4H54.6v12.4h2.362v-13.584a1.085 1.085 0 0 0-1.14-1.181z" class="cls-2" data-name="Path 136" transform="translate(-45.6 -607.3)"/>
                <path id="Path_137" d="M182.022 607.3h-9.041a1.2 1.2 0 0 0-1.181 1.181v13.584h2.362v-12.4h6.638v12.4h2.362v-13.584a1.11 1.11 0 0 0-1.14-1.181z" class="cls-2" data-name="Path 137" transform="translate(-114.466 -607.3)"/>
            </g>
            <g id="Group_145" data-name="Group 145" transform="translate(707.858 158.837)">
                <g id="Group_142" data-name="Group 142">
                    <path id="Path_138" d="M1559.281 341.735a1.2 1.2 0 0 1-1.181-1.181v-.772a1.181 1.181 0 0 1 2.362 0v.772a1.145 1.145 0 0 1-1.181 1.181z" class="cls-2" data-name="Path 138" transform="translate(-1558.1 -338.6)"/>
                </g>
                <g id="Group_143" data-name="Group 143" transform="translate(0 7.496)">
                    <path id="Path_139" d="M1559.281 375.362a1.2 1.2 0 0 1-1.181-1.181v-1.5a1.181 1.181 0 1 1 2.362 0v1.5a1.145 1.145 0 0 1-1.181 1.181zm0-8.223a1.2 1.2 0 0 1-1.181-1.181v-1.5a1.181 1.181 0 0 1 2.362 0v1.5a1.121 1.121 0 0 1-1.181 1.181zm0-8.178a1.2 1.2 0 0 1-1.181-1.181v-1.5a1.181 1.181 0 1 1 2.362 0v1.5a1.145 1.145 0 0 1-1.181 1.182z" class="cls-2" data-name="Path 139" transform="translate(-1558.1 -355.1)"/>
                </g>
                <g id="Group_144" data-name="Group 144" transform="translate(0 32.12)">
                    <path id="Path_140" d="M1559.281 412.435a1.2 1.2 0 0 1-1.181-1.181v-.772a1.181 1.181 0 1 1 2.362 0v.772a1.145 1.145 0 0 1-1.181 1.181z" class="cls-2" data-name="Path 140" transform="translate(-1558.1 -409.3)"/>
                </g>
            </g>
            <g id="Group_149" data-name="Group 149" transform="translate(602.685 117.359)">
                <g id="Group_146" data-name="Group 146">
                    <path id="Path_141" d="M1327.781 250.435a1.2 1.2 0 0 1-1.181-1.181v-.772a1.181 1.181 0 1 1 2.362 0v.772a1.2 1.2 0 0 1-1.181 1.181z" class="cls-2" data-name="Path 141" transform="translate(-1326.6 -247.3)"/>
                </g>
                <g id="Group_147" data-name="Group 147" transform="translate(0 7.496)">
                    <path id="Path_142" d="M1327.781 341.441a1.2 1.2 0 0 1-1.181-1.181v-1.5a1.181 1.181 0 1 1 2.362 0v1.5a1.173 1.173 0 0 1-1.181 1.181zm0-8.178a1.2 1.2 0 0 1-1.181-1.181v-1.5a1.181 1.181 0 1 1 2.362 0v1.5a1.2 1.2 0 0 1-1.181 1.182zm0-8.223a1.2 1.2 0 0 1-1.181-1.181v-1.5a1.181 1.181 0 0 1 2.362 0v1.5a1.173 1.173 0 0 1-1.181 1.182zm0-8.178a1.2 1.2 0 0 1-1.181-1.181v-1.5a1.181 1.181 0 1 1 2.362 0v1.5a1.2 1.2 0 0 1-1.181 1.182zm0-8.223a1.2 1.2 0 0 1-1.181-1.181v-1.5a1.181 1.181 0 0 1 2.362 0v1.5a1.173 1.173 0 0 1-1.181 1.182zm0-8.178a1.2 1.2 0 0 1-1.181-1.181v-1.5a1.181 1.181 0 0 1 2.362 0v1.5a1.2 1.2 0 0 1-1.181 1.183zm0-8.223a1.2 1.2 0 0 1-1.181-1.181v-1.5a1.181 1.181 0 1 1 2.362 0v1.5a1.173 1.173 0 0 1-1.181 1.183zm0-8.178a1.2 1.2 0 0 1-1.181-1.181v-1.5a1.181 1.181 0 0 1 2.362 0v1.5a1.2 1.2 0 0 1-1.181 1.183zm0-8.223a1.2 1.2 0 0 1-1.181-1.181v-1.5a1.181 1.181 0 0 1 2.362 0v1.5a1.173 1.173 0 0 1-1.181 1.183zm0-8.178a1.2 1.2 0 0 1-1.181-1.181v-1.5a1.181 1.181 0 1 1 2.362 0v1.5a1.2 1.2 0 0 1-1.181 1.184z" class="cls-2" data-name="Path 142" transform="translate(-1326.6 -263.8)"/>
                </g>
                <g id="Group_148" data-name="Group 148" transform="translate(0 89.499)">
                    <path id="Path_143" d="M1327.781 447.435a1.2 1.2 0 0 1-1.181-1.181v-.772a1.181 1.181 0 1 1 2.362 0v.772a1.173 1.173 0 0 1-1.181 1.181z" class="cls-2" data-name="Path 143" transform="translate(-1326.6 -444.3)"/>
                </g>
            </g>
            <g id="Group_153" data-name="Group 153" transform="translate(555.346 69.429)">
                <g id="Group_150" data-name="Group 150">
                    <path id="Path_144" d="M1223.581 144.935a1.2 1.2 0 0 1-1.181-1.181v-.772a1.181 1.181 0 1 1 2.362 0v.772a1.173 1.173 0 0 1-1.181 1.181z" class="cls-2" data-name="Path 144" transform="translate(-1222.4 -141.8)"/>
                </g>
                <g id="Group_151" data-name="Group 151" transform="translate(0 8.586)">
                    <path id="Path_145" d="M1223.581 164.789a1.2 1.2 0 0 1-1.181-1.181v-1.726a1.181 1.181 0 0 1 2.362 0v1.726a1.2 1.2 0 0 1-1.181 1.181z" class="cls-2" data-name="Path 145" transform="translate(-1222.4 -160.7)"/>
                </g>
                <g id="Group_152" data-name="Group 152" transform="translate(0 18.127)">
                    <path id="Path_146" d="M1223.581 184.835a1.2 1.2 0 0 1-1.181-1.181v-.772a1.181 1.181 0 0 1 2.362 0v.772a1.2 1.2 0 0 1-1.181 1.181z" class="cls-2" data-name="Path 146" transform="translate(-1222.4 -181.7)"/>
                </g>
            </g>
            <g id="Group_157" data-name="Group 157" transform="translate(468.937 79.061)">
                <g id="Group_154" data-name="Group 154">
                    <path id="Path_147" d="M1033.381 166.135a1.2 1.2 0 0 1-1.181-1.181v-.772a1.181 1.181 0 0 1 2.362 0v.772a1.2 1.2 0 0 1-1.181 1.181z" class="cls-2" data-name="Path 147" transform="translate(-1032.2 -163)"/>
                </g>
                <g id="Group_155" data-name="Group 155" transform="translate(0 7.678)">
                    <path id="Path_148" d="M1033.381 302.609a1.2 1.2 0 0 1-1.181-1.181v-1.545a1.181 1.181 0 1 1 2.362 0v1.545a1.173 1.173 0 0 1-1.181 1.181zm0-8.45a1.2 1.2 0 0 1-1.181-1.181v-1.545a1.181 1.181 0 1 1 2.362 0v1.545a1.2 1.2 0 0 1-1.181 1.181zm0-8.5a1.2 1.2 0 0 1-1.181-1.181v-1.545a1.181 1.181 0 0 1 2.362 0v1.545a1.2 1.2 0 0 1-1.181 1.185zm0-8.5a1.2 1.2 0 0 1-1.181-1.181v-1.545a1.181 1.181 0 1 1 2.362 0v1.545a1.2 1.2 0 0 1-1.181 1.189zm0-8.5a1.2 1.2 0 0 1-1.181-1.181v-1.545a1.181 1.181 0 1 1 2.362 0v1.545a1.173 1.173 0 0 1-1.181 1.194zm0-8.45a1.2 1.2 0 0 1-1.181-1.181V257.5a1.181 1.181 0 1 1 2.362 0v1.545a1.2 1.2 0 0 1-1.181 1.177zm0-8.5a1.2 1.2 0 0 1-1.181-1.181V249a1.181 1.181 0 0 1 2.362 0v1.545a1.2 1.2 0 0 1-1.181 1.181zm0-8.5a1.2 1.2 0 0 1-1.181-1.181V240.5a1.181 1.181 0 1 1 2.362 0v1.545a1.2 1.2 0 0 1-1.181 1.186zm0-8.5a1.2 1.2 0 0 1-1.181-1.181v-1.545a1.181 1.181 0 0 1 2.362 0v1.545a1.2 1.2 0 0 1-1.181 1.207zm0-8.5a1.2 1.2 0 0 1-1.181-1.181v-1.545a1.181 1.181 0 1 1 2.362 0v1.545a1.173 1.173 0 0 1-1.181 1.211zm0-8.45a1.2 1.2 0 0 1-1.181-1.181v-1.545a1.181 1.181 0 1 1 2.362 0v1.545a1.2 1.2 0 0 1-1.181 1.211zm0-8.5a1.2 1.2 0 0 1-1.181-1.181v-1.545a1.181 1.181 0 0 1 2.362 0v1.545a1.2 1.2 0 0 1-1.181 1.216zm0-8.5a1.2 1.2 0 0 1-1.181-1.181v-1.545a1.181 1.181 0 0 1 2.362 0v1.545a1.2 1.2 0 0 1-1.181 1.222zm0-8.5a1.2 1.2 0 0 1-1.181-1.181v-1.545a1.181 1.181 0 1 1 2.362 0v1.545a1.2 1.2 0 0 1-1.181 1.222zm0-8.5a1.2 1.2 0 0 1-1.181-1.181v-1.545a1.181 1.181 0 0 1 2.362 0v1.545a1.173 1.173 0 0 1-1.181 1.229z" class="cls-2" data-name="Path 148" transform="translate(-1032.2 -179.9)"/>
                </g>
                <g id="Group_156" data-name="Group 156" transform="translate(0 134.975)">
                    <path id="Path_149" d="M1033.381 463.235a1.2 1.2 0 0 1-1.181-1.181v-.772a1.181 1.181 0 0 1 2.362 0v.772a1.173 1.173 0 0 1-1.181 1.181z" class="cls-2" data-name="Path 149" transform="translate(-1032.2 -460.1)"/>
                </g>
            </g>
            <g id="Group_161" data-name="Group 161" transform="translate(251.959 99.595)">
                <g id="Group_158" data-name="Group 158">
                    <path id="Path_150" d="M555.781 211.335a1.2 1.2 0 0 1-1.181-1.181v-.772a1.181 1.181 0 0 1 2.362 0v.772a1.145 1.145 0 0 1-1.181 1.181z" class="cls-2" data-name="Path 150" transform="translate(-554.6 -208.2)"/>
                </g>
                <g id="Group_159" data-name="Group 159" transform="translate(0 7.723)">
                    <path id="Path_151" d="M555.781 297.39a1.2 1.2 0 0 1-1.181-1.181v-1.59a1.181 1.181 0 0 1 2.362 0v1.545a1.157 1.157 0 0 1-1.181 1.226zm0-8.541a1.2 1.2 0 0 1-1.181-1.181v-1.545a1.181 1.181 0 0 1 2.362 0v1.545a1.145 1.145 0 0 1-1.181 1.181zm0-8.541a1.2 1.2 0 0 1-1.181-1.181v-1.545a1.181 1.181 0 0 1 2.362 0v1.545a1.145 1.145 0 0 1-1.181 1.181zm0-8.541a1.2 1.2 0 0 1-1.181-1.181v-1.545a1.181 1.181 0 0 1 2.362 0v1.545a1.145 1.145 0 0 1-1.181 1.181zm0-8.541a1.2 1.2 0 0 1-1.181-1.181V260.5a1.181 1.181 0 0 1 2.362 0v1.545a1.121 1.121 0 0 1-1.181 1.181zm0-8.5a1.2 1.2 0 0 1-1.181-1.181V252a1.181 1.181 0 0 1 2.362 0v1.545a1.145 1.145 0 0 1-1.181 1.185zm0-8.541a1.2 1.2 0 0 1-1.181-1.181v-1.545a1.181 1.181 0 0 1 2.362 0v1.545a1.145 1.145 0 0 1-1.181 1.185zm0-8.541a1.2 1.2 0 0 1-1.181-1.181v-1.545a1.181 1.181 0 1 1 2.362 0v1.545a1.145 1.145 0 0 1-1.181 1.185zm0-8.541a1.2 1.2 0 0 1-1.181-1.181v-1.545a1.181 1.181 0 0 1 2.362 0v1.545a1.121 1.121 0 0 1-1.181 1.185z" class="cls-2" data-name="Path 151" transform="translate(-554.6 -225.2)"/>
                </g>
                <g id="Group_160" data-name="Group 160" transform="translate(0 84.501)">
                    <path id="Path_152" d="M555.781 397.335a1.2 1.2 0 0 1-1.181-1.181v-.772a1.181 1.181 0 0 1 2.362 0v.772a1.121 1.121 0 0 1-1.181 1.181z" class="cls-2" data-name="Path 152" transform="translate(-554.6 -394.2)"/>
                </g>
            </g>
            <g id="Group_165" data-name="Group 165" transform="translate(158.872 128.762)">
                <g id="Group_162" data-name="Group 162">
                    <path id="Path_153" d="M350.881 275.58a1.2 1.2 0 0 1-1.181-1.18v-.818a1.181 1.181 0 0 1 2.362 0v.772a1.213 1.213 0 0 1-1.181 1.226z" class="cls-2" data-name="Path 153" transform="translate(-349.7 -272.4)"/>
                </g>
                <g id="Group_163" data-name="Group 163" transform="translate(0 7.587)">
                    <path id="Path_154" d="M350.881 317.721a1.2 1.2 0 0 1-1.181-1.181v-1.5a1.181 1.181 0 1 1 2.362 0v1.5a1.2 1.2 0 0 1-1.181 1.181zm0-8.268a1.2 1.2 0 0 1-1.181-1.181v-1.5a1.181 1.181 0 0 1 2.362 0v1.5a1.2 1.2 0 0 1-1.181 1.181zm0-8.268A1.2 1.2 0 0 1 349.7 300v-1.5a1.181 1.181 0 1 1 2.362 0v1.5a1.2 1.2 0 0 1-1.181 1.185zm0-8.223a1.2 1.2 0 0 1-1.181-1.181v-1.5a1.181 1.181 0 0 1 2.362 0v1.5a1.2 1.2 0 0 1-1.181 1.181z" class="cls-2" data-name="Path 154" transform="translate(-349.7 -289.1)"/>
                </g>
                <g id="Group_164" data-name="Group 164" transform="translate(0 40.57)">
                    <path id="Path_155" d="M350.881 364.835a1.2 1.2 0 0 1-1.181-1.181v-.772a1.181 1.181 0 0 1 2.362 0v.772a1.173 1.173 0 0 1-1.181 1.181z" class="cls-2" data-name="Path 155" transform="translate(-349.7 -361.7)"/>
                </g>
            </g>
            <g id="Group_169" data-name="Group 169" transform="translate(114.395 171.24)">
                <g id="Group_166" data-name="Group 166">
                    <path id="Path_156" d="M252.981 369.035a1.2 1.2 0 0 1-1.181-1.181v-.772a1.181 1.181 0 1 1 2.362 0v.772a1.173 1.173 0 0 1-1.181 1.181z" class="cls-2" data-name="Path 156" transform="translate(-251.8 -365.9)"/>
                </g>
                <g id="Group_167" data-name="Group 167" transform="translate(0 7.632)">
                    <path id="Path_157" d="M252.981 411.594a1.2 1.2 0 0 1-1.181-1.181v-1.5a1.181 1.181 0 1 1 2.362 0v1.5a1.2 1.2 0 0 1-1.181 1.181zm0-8.359a1.2 1.2 0 0 1-1.181-1.181v-1.5a1.181 1.181 0 0 1 2.362 0v1.5a1.2 1.2 0 0 1-1.181 1.181zm0-8.314a1.2 1.2 0 0 1-1.181-1.181v-1.5a1.181 1.181 0 1 1 2.362 0v1.5a1.2 1.2 0 0 1-1.181 1.181zm0-8.359a1.2 1.2 0 0 1-1.181-1.181v-1.5a1.181 1.181 0 1 1 2.362 0v1.5a1.2 1.2 0 0 1-1.181 1.181z" class="cls-2" data-name="Path 157" transform="translate(-251.8 -382.7)"/>
                </g>
                <g id="Group_168" data-name="Group 168" transform="translate(0 40.979)">
                    <path id="Path_158" d="M252.981 459.235a1.2 1.2 0 0 1-1.181-1.181v-.772a1.181 1.181 0 0 1 2.362 0v.772a1.2 1.2 0 0 1-1.181 1.181z" class="cls-2" data-name="Path 158" transform="translate(-251.8 -456.1)"/>
                </g>
            </g>
            <g id="Group_173" data-name="Group 173" transform="translate(57.833 151.211)">
                <g id="Group_170" data-name="Group 170">
                    <path id="Path_159" d="M128.481 298.58a1.2 1.2 0 0 1-1.181-1.18v-.818a1.181 1.181 0 1 1 2.362 0v.772a1.157 1.157 0 0 1-1.181 1.226z" class="cls-2" data-name="Path 159" transform="translate(-127.3 -295.4)"/>
                </g>
                <g id="Group_171" data-name="Group 171" transform="translate(0 6.86)">
                    <path id="Path_160" d="M128.481 321.631a1.2 1.2 0 0 1-1.181-1.181v-1.363a1.181 1.181 0 1 1 2.362 0v1.363a1.121 1.121 0 0 1-1.181 1.181zm0-7.405a1.2 1.2 0 0 1-1.181-1.181v-1.363a1.181 1.181 0 1 1 2.362 0v1.363a1.145 1.145 0 0 1-1.181 1.18z" class="cls-2" data-name="Path 160" transform="translate(-127.3 -310.5)"/>
                </g>
                <g id="Group_172" data-name="Group 172" transform="translate(0 21.716)">
                    <path id="Path_161" d="M128.481 346.335a1.2 1.2 0 0 1-1.181-1.181v-.772a1.181 1.181 0 0 1 2.362 0v.772a1.121 1.121 0 0 1-1.181 1.181z" class="cls-2" data-name="Path 161" transform="translate(-127.3 -343.2)"/>
                </g>
            </g>
            <g id="Group_174" data-name="Group 174" transform="translate(20.193 125.951)">
                <path id="Path_162" d="M45.834 242.617a1.4 1.4 0 0 1-.273-2.771c.091 0 .182-.045.273-.045a1.366 1.366 0 0 1 1.363 1.136 1.409 1.409 0 0 1-.182 1.045 1.256 1.256 0 0 1-.909.591.576.576 0 0 1-.273.045z" class="cls-2" data-name="Path 162" transform="translate(-44.447 -239.8)"/>
            </g>
            <g id="Group_175" data-name="Group 175" transform="translate(87.964 136.946)">
                <path id="Path_163" d="M195.02 266.817a1.366 1.366 0 0 1-1.363-1.136 1.409 1.409 0 0 1 .182-1.045 1.256 1.256 0 0 1 .909-.591c.091 0 .182-.045.273-.045a1.4 1.4 0 0 1 .273 2.771c-.045.045-.136.045-.273.045z" class="cls-2" data-name="Path 163" transform="translate(-193.622 -264)"/>
            </g>
            <g id="Group_179" data-name="Group 179" transform="translate(17.131 159.298)">
                <g id="Group_176" data-name="Group 176" transform="translate(15.265)">
                    <path id="Path_164" d="M75.348 314.836a2.042 2.042 0 0 0-2-1.635 1.258 1.258 0 0 0-.409.045 2.043 2.043 0 0 0 .409 4.043 1.258 1.258 0 0 0 .409-.045 1.821 1.821 0 0 0 1.272-.863 2.058 2.058 0 0 0 .319-1.545z" class="cls-5" data-name="Path 164" transform="translate(-71.308 -313.2)"/>
                </g>
                <g id="Group_177" data-name="Group 177" transform="translate(7.632 .045)">
                    <path id="Path_165" d="M56.549 313.3a1.258 1.258 0 0 0-.409.045 2.043 2.043 0 0 0 .409 4.043 1.258 1.258 0 0 0 .409-.045 1.821 1.821 0 0 0 1.272-.863 2.058 2.058 0 0 0 .318-1.545 2.08 2.08 0 0 0-1.999-1.635z" class="cls-5" data-name="Path 165" transform="translate(-54.508 -313.3)"/>
                </g>
                <g id="Group_178" data-name="Group 178" transform="translate(0 .045)">
                    <path id="Path_166" d="M39.749 313.3a1.258 1.258 0 0 0-.409.045 2.043 2.043 0 0 0 .409 4.043 1.258 1.258 0 0 0 .409-.045 1.821 1.821 0 0 0 1.272-.863 2.058 2.058 0 0 0 .318-1.545 2.08 2.08 0 0 0-1.999-1.635z" class="cls-5" data-name="Path 166" transform="translate(-37.708 -313.3)"/>
                </g>
            </g>
            <g id="Group_180" data-name="Group 180" transform="translate(151.158 70.111)">
                <path id="Path_167" d="M334.12 146.117a1.366 1.366 0 0 1-1.363-1.136 1.409 1.409 0 0 1 .182-1.045 1.256 1.256 0 0 1 .909-.591c.091 0 .182-.045.273-.045a1.366 1.366 0 0 1 1.363 1.136 1.409 1.409 0 0 1-.182 1.045 1.256 1.256 0 0 1-.909.591.576.576 0 0 1-.273.045z" class="cls-2" data-name="Path 167" transform="translate(-332.722 -143.3)"/>
            </g>
            <g id="Group_181" data-name="Group 181" transform="translate(394.27 183.279)">
                <path id="Path_168" d="M869.234 395.217a1.4 1.4 0 0 1-.273-2.771c.091 0 .182-.045.273-.045a1.4 1.4 0 0 1 .273 2.771.576.576 0 0 1-.273.045z" class="cls-2" data-name="Path 168" transform="translate(-867.847 -392.4)"/>
            </g>
            <g id="Group_182" data-name="Group 182" transform="translate(304.442 223.258)">
                <path id="Path_169" d="M671.52 483.217a1.366 1.366 0 0 1-1.363-1.136 1.408 1.408 0 0 1 .182-1.045 1.256 1.256 0 0 1 .909-.591c.091 0 .182-.045.273-.045a1.4 1.4 0 0 1 .273 2.771.577.577 0 0 1-.273.045z" class="cls-2" data-name="Path 169" transform="translate(-670.122 -480.4)"/>
            </g>
            <g id="Group_183" data-name="Group 183" transform="translate(289.631 183.233)">
                <path id="Path_170" d="M638.92 395.117a1.366 1.366 0 0 1-1.363-1.136 1.409 1.409 0 0 1 .182-1.045 1.256 1.256 0 0 1 .909-.591c.091 0 .182-.045.273-.045a1.4 1.4 0 0 1 .273 2.771.576.576 0 0 1-.273.045z" class="cls-2" data-name="Path 170" transform="translate(-637.521 -392.3)"/>
            </g>
            <g id="Group_184" data-name="Group 184" transform="translate(131.759 194.909)">
                <path id="Path_171" d="M291.42 420.817a1.366 1.366 0 0 1-1.363-1.136 1.409 1.409 0 0 1 .182-1.045 1.256 1.256 0 0 1 .909-.591c.091 0 .182-.045.273-.045a1.4 1.4 0 0 1 .273 2.771.576.576 0 0 1-.273.045z" class="cls-2" data-name="Path 171" transform="translate(-290.022 -418)"/>
            </g>
            <g id="Group_185" data-name="Group 185" transform="translate(447.776 132.305)">
                <path id="Path_172" d="M987.02 283.017a1.366 1.366 0 0 1-1.363-1.136 1.409 1.409 0 0 1 .182-1.045 1.256 1.256 0 0 1 .909-.591c.091 0 .182-.045.273-.045a1.366 1.366 0 0 1 1.363 1.136 1.408 1.408 0 0 1-.182 1.045 1.256 1.256 0 0 1-.909.591.576.576 0 0 1-.273.045z" class="cls-2" data-name="Path 172" transform="translate(-985.622 -280.2)"/>
            </g>
            <g id="Group_186" data-name="Group 186" transform="translate(551.733 187.549)">
                <path id="Path_173" d="M1215.834 404.617a1.4 1.4 0 0 1-.273-2.771c.091 0 .182-.045.273-.045a1.366 1.366 0 0 1 1.363 1.136 1.415 1.415 0 0 1-1.136 1.635.34.34 0 0 1-.227.045z" class="cls-2" data-name="Path 173" transform="translate(-1214.447 -401.8)"/>
            </g>
            <g id="Group_187" data-name="Group 187" transform="translate(474.047 190.593)">
                <path id="Path_174" d="M1044.834 411.317a1.4 1.4 0 0 1-.272-2.771c.091 0 .182-.045.272-.045a1.366 1.366 0 0 1 1.363 1.136 1.415 1.415 0 0 1-1.136 1.635.552.552 0 0 1-.227.045z" class="cls-2" data-name="Path 174" transform="translate(-1043.447 -408.5)"/>
            </g>
            <g id="Group_188" data-name="Group 188" transform="translate(604.706 58.299)">
                <path id="Path_175" d="M1332.434 120.117a1.4 1.4 0 0 1-.273-2.771c.091 0 .182-.045.273-.045a1.4 1.4 0 0 1 .272 2.771.576.576 0 0 1-.272.045z" class="cls-2" data-name="Path 175" transform="translate(-1331.047 -117.3)"/>
            </g>
            <g id="Group_189" data-name="Group 189" transform="translate(737.273 127.808)">
                <path id="Path_176" d="M1624.234 273.117a1.4 1.4 0 0 1-.273-2.771c.091 0 .182-.045.273-.045a1.366 1.366 0 0 1 1.363 1.136 1.409 1.409 0 0 1-.182 1.045 1.256 1.256 0 0 1-.908.591.577.577 0 0 1-.273.045z" class="cls-2" data-name="Path 176" transform="translate(-1622.847 -270.3)"/>
            </g>
            <g id="Group_190" data-name="Group 190" transform="translate(681.348 243.248)">
                <path id="Path_177" d="M1501.134 527.217a1.4 1.4 0 0 1-.273-2.771c.091 0 .182-.045.273-.045a1.366 1.366 0 0 1 1.363 1.136 1.409 1.409 0 0 1-.182 1.045 1.256 1.256 0 0 1-.909.591.577.577 0 0 1-.273.045z" class="cls-2" data-name="Path 177" transform="translate(-1499.747 -524.4)"/>
            </g>
            <g id="Group_191" data-name="Group 191" transform="translate(626.91 201.224)">
                <path id="Path_178" d="M1381.32 434.717a1.366 1.366 0 0 1-1.363-1.136 1.409 1.409 0 0 1 .182-1.045 1.257 1.257 0 0 1 .909-.591c.091 0 .182-.045.273-.045a1.366 1.366 0 0 1 1.363 1.136 1.409 1.409 0 0 1-.182 1.045 1.257 1.257 0 0 1-.909.591c-.091 0-.182.045-.272.045z" class="cls-2" data-name="Path 178" transform="translate(-1379.922 -431.9)"/>
            </g>
            <g id="Group_192" data-name="Group 192" transform="translate(588.066 247.745)">
                <path id="Path_179" d="M1295.82 537.117a1.366 1.366 0 0 1-1.363-1.136 1.409 1.409 0 0 1 .182-1.045 1.256 1.256 0 0 1 .909-.591c.091 0 .182-.045.273-.045a1.366 1.366 0 0 1 1.363 1.136 1.409 1.409 0 0 1-.182 1.045 1.256 1.256 0 0 1-.909.591.576.576 0 0 1-.272.045z" class="cls-2" data-name="Path 179" transform="translate(-1294.422 -534.3)"/>
            </g>
            <g id="Group_193" data-name="Group 193" transform="translate(326.612 60.116)">
                <path id="Path_180" d="M720.32 124.117a1.366 1.366 0 0 1-1.363-1.136 1.409 1.409 0 0 1 .182-1.045 1.256 1.256 0 0 1 .909-.591c.091 0 .182-.045.273-.045a1.366 1.366 0 0 1 1.363 1.136 1.408 1.408 0 0 1-.182 1.045 1.256 1.256 0 0 1-.909.591c-.091 0-.182.045-.273.045z" class="cls-2" data-name="Path 180" transform="translate(-718.922 -121.3)"/>
            </g>
            <g id="Group_194" data-name="Group 194" transform="translate(190.638 268.235)">
                <path id="Path_181" d="M421.02 582.217a1.366 1.366 0 0 1-1.363-1.136 1.409 1.409 0 0 1 .182-1.045 1.256 1.256 0 0 1 .909-.591c.091 0 .182-.045.273-.045a1.4 1.4 0 0 1 .273 2.771.576.576 0 0 1-.273.045z" class="cls-2" data-name="Path 181" transform="translate(-419.622 -579.4)"/>
            </g>
            <g id="Group_195" data-name="Group 195" transform="translate(594.707 207.477)">
                <path id="Path_182" d="M1310.2 457.492a.886.886 0 0 1-.363-.045 1.164 1.164 0 0 1-.727-1.5c4.225-12.448 18.536-10.131 18.672-10.086a1.176 1.176 0 1 1-.409 2.317c-.5-.091-12.448-2-15.992 8.5a1.321 1.321 0 0 1-1.181.814z" class="cls-2" data-name="Path 182" transform="translate(-1309.039 -445.663)"/>
            </g>
            <g id="Group_196" data-name="Group 196" transform="translate(609.679 269.595)">
                <path id="Path_183" d="M1343.178 597.525h-.091a1.221 1.221 0 0 1-1.09-1.318l1.181-12.721a1.209 1.209 0 1 1 2.408.227l-1.181 12.721a1.347 1.347 0 0 1-1.227 1.091z" class="cls-2" data-name="Path 183" transform="translate(-1341.994 -582.394)"/>
            </g>
            <g id="Group_197" data-name="Group 197" transform="translate(198.542 126.621)">
                <path id="Path_184" d="M438.238 278.688a1.508 1.508 0 0 1-.727-.227 1.224 1.224 0 0 1-.273-1.681c1.726-2.317 5.5-4.952 10.994-5.225 6-.318 9.586-1.772 9.995-3.044a1.193 1.193 0 0 1 2.272.727c-1.227 3.68-8.9 4.5-12.13 4.679-4.634.273-7.769 2.362-9.177 4.27a1.185 1.185 0 0 1-.954.501z" class="cls-2" data-name="Path 184" transform="translate(-437.02 -267.688)"/>
            </g>
            <g id="Group_200" data-name="Group 200" transform="translate(240.647 60.479)">
                <g id="Group_198" data-name="Group 198">
                    <path id="Path_185" d="M541.012 138.364h-10.994v-2.181l5.179-5.543a10.654 10.654 0 0 0 1-1.181 6.894 6.894 0 0 0 .636-.954 4.127 4.127 0 0 0 .363-.818 2.125 2.125 0 0 0 .091-.727 2.414 2.414 0 0 0-.545-1.681 1.925 1.925 0 0 0-1.545-.591 2.311 2.311 0 0 0-1 .182 2.186 2.186 0 0 0-.727.545 2.6 2.6 0 0 0-.454.863 3.975 3.975 0 0 0-.136 1.09h-3.18a5.134 5.134 0 0 1 .409-2.044 5.236 5.236 0 0 1 1.136-1.681 5.157 5.157 0 0 1 1.772-1.136 6.2 6.2 0 0 1 2.317-.409 6.58 6.58 0 0 1 2.226.318 4.764 4.764 0 0 1 1.635.909 3.63 3.63 0 0 1 1 1.454 4.925 4.925 0 0 1 .363 1.908 4.423 4.423 0 0 1-.273 1.545 7.559 7.559 0 0 1-.727 1.5 10.863 10.863 0 0 1-1.136 1.5c-.454.5-.909 1.045-1.454 1.59l-2.817 3h6.905v2.544z" class="cls-4" data-name="Path 185" transform="translate(-529.7 -122.1)"/>
                </g>
                <g id="Group_199" data-name="Group 199" transform="translate(12.811 .227)">
                    <path id="Path_186" d="M567.8 132.595h1.817v2.59H567.8v3.5h-3.18v-3.5h-6.588l-.136-2 6.678-10.585h3.226zm-6.769 0h3.544v-5.679l-.227.363z" class="cls-4" data-name="Path 186" transform="translate(-557.9 -122.6)"/>
                </g>
            </g>
            <g id="Group_201" data-name="Group 201" transform="translate(223.247 42.58)">
                <path id="Path_187" d="M521.066 142.033a29.666 29.666 0 1 1 29.666-29.666 29.7 29.7 0 0 1-29.666 29.666zm0-56.97a27.3 27.3 0 1 0 27.3 27.3 27.358 27.358 0 0 0-27.3-27.301z" class="cls-2" data-name="Path 187" transform="translate(-491.4 -82.7)"/>
            </g>
            <g id="Group_202" data-name="Group 202" transform="translate(240.647 78.788)">
                <path id="Path_188" d="M530.79 162.6v1.908h2.044V162.6h1.09v5.043h-1.09v-2.181h-2.044v2.181h-1.09V162.6z" class="cls-4" data-name="Path 188" transform="translate(-529.7 -162.509)"/>
                <path id="Path_189" d="M540.782 163.99a2.27 2.27 0 0 1 1.272-1.408 3.095 3.095 0 0 1 2.09 0 2.375 2.375 0 0 1 .772.545 2.278 2.278 0 0 1 .5.863 3.869 3.869 0 0 1 .182 1.045 2.665 2.665 0 0 1-.182 1.045 2.475 2.475 0 0 1-.5.818 2.376 2.376 0 0 1-.772.545 2.525 2.525 0 0 1-1.045.182 2.665 2.665 0 0 1-1.045-.182 2.375 2.375 0 0 1-.772-.545 2.473 2.473 0 0 1-.5-.818 2.665 2.665 0 0 1-.182-1.045 3.869 3.869 0 0 1 .182-1.045zm1 1.681a2.776 2.776 0 0 0 .227.545.8.8 0 0 0 .409.363 1.552 1.552 0 0 0 1.272 0 1.072 1.072 0 0 0 .409-.363 1.965 1.965 0 0 0 .227-.545 2.271 2.271 0 0 0 0-1.272 1.515 1.515 0 0 0-.227-.545 1.172 1.172 0 0 0-.409-.409 1.552 1.552 0 0 0-1.272 0 .891.891 0 0 0-.409.409 2.776 2.776 0 0 0-.227.545 3.069 3.069 0 0 0-.091.636c.045.227.045.409.09.636z" class="cls-4" data-name="Path 189" transform="translate(-535.648 -162.4)"/>
                <path id="Path_190" d="M556.089 162.545a2.3 2.3 0 0 1 .591.091 1.6 1.6 0 0 1 .772.772 2.281 2.281 0 0 1 .091.545 1.392 1.392 0 0 1-.182.772 1.3 1.3 0 0 1-.591.5.732.732 0 0 1 .318.182 1.2 1.2 0 0 1 .227.273 3.141 3.141 0 0 1 .136.363 1.13 1.13 0 0 1 .045.363v.273a.773.773 0 0 0 .045.318c0 .091.045.227.045.318.045.091.045.182.136.273h-1.09a2.3 2.3 0 0 1-.091-.591c0-.227-.045-.454-.045-.636a1.453 1.453 0 0 0-.227-.591.771.771 0 0 0-.591-.182h-1.09v1.954H553.5V162.5h2.59zm-.409 2.317a.771.771 0 0 0 .591-.182.664.664 0 0 0 .182-.545.724.724 0 0 0-.182-.545 1.011 1.011 0 0 0-.591-.182h-1.227v1.408h1.227z" class="cls-4" data-name="Path 190" transform="translate(-542.687 -162.455)"/>
                <path id="Path_191" d="M566.244 162.6l1.863 5.043h-1.136l-.363-1.136h-1.863l-.409 1.136H563.2l1.908-5.043zm.045 3.089l-.636-1.863-.636 1.863z" class="cls-4" data-name="Path 191" transform="translate(-547.981 -162.509)"/>
                <path id="Path_192" d="M575.372 166.307a.465.465 0 0 0 .227.273.914.914 0 0 0 .363.182 1.258 1.258 0 0 0 .409.045.887.887 0 0 0 .318-.045.842.842 0 0 0 .318-.091.453.453 0 0 0 .227-.182.657.657 0 0 0 .091-.318.412.412 0 0 0-.136-.318 1.259 1.259 0 0 0-.363-.227 2.049 2.049 0 0 0-.5-.136l-.545-.136a2.562 2.562 0 0 1-.545-.182 1.365 1.365 0 0 1-.5-.273 1.034 1.034 0 0 1-.363-.409 1.257 1.257 0 0 1-.136-.591 1.3 1.3 0 0 1 .636-1.136 1.408 1.408 0 0 1 .591-.273 3.507 3.507 0 0 1 .681-.091 4.479 4.479 0 0 1 .772.091 1.357 1.357 0 0 1 .636.273 2.381 2.381 0 0 1 .454.5 1.711 1.711 0 0 1 .182.727H577.1a.856.856 0 0 0-.091-.363.548.548 0 0 0-.227-.227 2.215 2.215 0 0 0-.318-.136 1 1 0 0 0-.364-.045.576.576 0 0 0-.273.045.347.347 0 0 0-.227.091.354.354 0 0 0-.182.182.646.646 0 0 0-.091.273.341.341 0 0 0 .045.227.492.492 0 0 0 .227.182 2.825 2.825 0 0 0 .454.136 6.626 6.626 0 0 0 .772.182 2.3 2.3 0 0 1 .409.091 2.434 2.434 0 0 1 .5.227.994.994 0 0 1 .409.454 1.5 1.5 0 0 1 .182.681 1.45 1.45 0 0 1-.136.636 1.419 1.419 0 0 1-.409.5 1.678 1.678 0 0 1-.636.318 4.285 4.285 0 0 1-.909.136 5.007 5.007 0 0 1-.818-.091 1.581 1.581 0 0 1-.682-.318 1.335 1.335 0 0 1-.454-.545 2.17 2.17 0 0 1-.182-.818h1.09a2.987 2.987 0 0 0 .183.499z" class="cls-4" data-name="Path 192" transform="translate(-553.929 -162.4)"/>
            </g>
        </g>
        <g id="Group_2-2" data-name="Group 2" transform="translate(803.813 805.876)">
            <path id="Path_193" d="M999.5 71.237l2.408-8.541a17.184 17.184 0 1 1 14.811 8.45 17.419 17.419 0 0 1-8.4-2.181zm9.268-5.406l.545.318a14.254 14.254 0 1 0-6.86-12.175 13.935 13.935 0 0 0 2.272 7.678l.363.545-1.408 4.903zm0 0" class="cls-4" data-name="Path 193" transform="translate(-999.5 -36.8)"/>
            <path id="Path_194" d="M1022.126 56.945l-1.136-.045a1.426 1.426 0 0 0-.954.318 4.993 4.993 0 0 0-1.681 2.544c-.409 1.772.227 3.907 1.817 6.088a17.929 17.929 0 0 0 9.768 7.087 4.95 4.95 0 0 0 4.043-.5 3.47 3.47 0 0 0 1.545-2.272l.182-.818a.579.579 0 0 0-.318-.636l-3.771-1.726a.563.563 0 0 0-.681.182l-1.5 1.908a.436.436 0 0 1-.454.136 11.646 11.646 0 0 1-6.27-5.361.409.409 0 0 1 .045-.454l1.408-1.636a.571.571 0 0 0 .091-.591l-1.635-3.816a.521.521 0 0 0-.5-.409zm0 0" class="cls-4" data-name="Path 194" transform="translate(-1009.723 -47.768)"/>
        </g>
        <g id="Group_3-2" data-name="Group 3" transform="translate(937.516 858.531)">
            <path id="Path_195" d="M1325.874 167.192a14.4 14.4 0 0 1-.909 5.179 8.812 8.812 0 0 1-2.5 3.68 5.831 5.831 0 0 1-3.725 1.317 4.6 4.6 0 0 1-2.726-.818 4.03 4.03 0 0 1-1.545-2.272h-.227a6.176 6.176 0 0 1-2.408 2.317 6.9 6.9 0 0 1-3.226.772 6.419 6.419 0 0 1-5.088-2.09 8.256 8.256 0 0 1-1.863-5.633 9.131 9.131 0 0 1 2.453-6.633 8.865 8.865 0 0 1 6.633-2.544 23.263 23.263 0 0 1 3.362.273 19.461 19.461 0 0 1 3.271.727l-.454 9.222v.454c0 2.135.681 3.18 2.044 3.18 1.045 0 1.863-.681 2.5-2.044a12.307 12.307 0 0 0 .909-5.179 11.891 11.891 0 0 0-1.408-5.951 9.222 9.222 0 0 0-3.952-3.952 12.413 12.413 0 0 0-5.861-1.408 15.189 15.189 0 0 0-7.36 1.726 11.524 11.524 0 0 0-4.77 5 16.6 16.6 0 0 0-1.635 7.542c0 3.816 1.045 6.769 3.089 8.859 2.044 2.044 5 3.089 8.814 3.089a26.014 26.014 0 0 0 9.132-1.772v3.267a23.8 23.8 0 0 1-9.086 1.726q-7.36 0-11.449-3.952t-4.089-11.04a18.6 18.6 0 0 1 2.226-9.222 15.267 15.267 0 0 1 6.179-6.179 18.559 18.559 0 0 1 8.9-2.135 16.219 16.219 0 0 1 7.678 1.772 12.808 12.808 0 0 1 5.224 5.088 15.564 15.564 0 0 1 1.867 7.634zm-20.444 2.544c0 3.089 1.227 4.634 3.635 4.634 2.544 0 3.952-1.954 4.18-5.815l.227-4.725a10.087 10.087 0 0 0-2.68-.318 4.867 4.867 0 0 0-3.952 1.681 6.79 6.79 0 0 0-1.41 4.544z" class="cls-4" data-name="Path 195" transform="translate(-1293.8 -152.7)"/>
        </g>
    </g>
</svg>
