<svg xmlns="http://www.w3.org/2000/svg" viewBox="221 3087.983 998 332.33">
    <defs>
        <style>
            .cls-1{fill:#4088da}.cls-2{fill:#fabf62}.cls-3{fill:#ebf0f6}.cls-4{fill:#1c3e58}.cls-5{fill:#25ce9e}.cls-6{fill:#fff}.cls-7{fill:#2b71b5}
        </style>
    </defs>
    <g id="Group_574" data-name="Group 574" transform="translate(0 2340)">
        <g id="Group_573" data-name="Group 573">
            <g id="Group_570" data-name="Group 570">
                <g id="Symbol_2_1" data-name="Symbol 2 – 1">
                    <g id="Group_410" data-name="Group 410" transform="translate(752.676 749.329)">
                        <path id="Path_489" d="M879.42 83.571s-10.585-26.771-2.129-44.225c8.456-17.519 18.554-18.8 31.571-21.9s28.53-2.372 36.256-6.083A48.719 48.719 0 0 0 957.953 2.3s6.752 15.33 6.752 27.009-3.285 12.835-3.285 12.835 2.251 22.021 2.251 36.073-1.886 43.129-7.726 46.293c-3.407.608-4.806-7.117-5.11-11.071a19.232 19.232 0 0 1 2.129-9.611c1.034-2.19 3.528-4.562 3.042-9.246s-2.737-13.687-5.353-13.87-3.589.669-4.2 2.8c-.608 2.068-1.947 5.11-3.65 5.6s-3.224-8.334-3.224-12.775-1.034-12.227-4.927-15.025-7.239-6.448-16.789-5.84-21.6 1.764-30.72 10.22c-9.183 8.508-7.723 17.879-7.723 17.879z" class="cls-1" data-name="Path 489" transform="translate(-874.015 -2.3)"/>
                    </g>
                    <g id="Group_411" data-name="Group 411" transform="translate(593.518 923.842)">
                        <path id="Path_490" d="M612.634 317.175s-1.217-10.1 1.642-15.208c2.92-5.11 8.821-13.14 29.5-12.775 20.622.426 29.686 14.9 31.876 30.72 2.19 15.755 4.319 29.807 7.178 35.4s6.083 10.706 9.49 11.862a34.488 34.488 0 0 0 4.806 1.4s-8.456 12.288-24.576 12.288c-23.055 0-32.606-23.968-32.606-23.968a24.516 24.516 0 0 0 5.779-11.071c1.277-6.448 2.007-11.01-1.095-14.174-3.163-3.163-7.908-14.478-14.113-15.512-6.14-.909-15.508-.483-17.881 1.038z" class="cls-2" data-name="Path 490" transform="translate(-612.377 -289.18)"/>
                    </g>
                    <g id="Group_412" data-name="Group 412" transform="translate(939.662 905.787)">
                        <path id="Path_491" d="M1307.818 274.514l-2.129.669a3.221 3.221 0 0 1-3.407-2.859c-.182-2.494-.487-6.2-.669-10.524H1183.6v26.34c5.292 1.46 7.3 4.015 7.3 4.015s3.224-6.874 15.086-6.509c10.524.3 19.344 6.448 24.941 25.793h56.573c7.178-6.631 15.329-10.646 18.432-12.592a20.8 20.8 0 0 1 4.927-2.372v-13.992c-.061-.061-.122-.061-.183-.122z" class="cls-3" data-name="Path 491" transform="translate(-1182.262 -260.401)"/>
                        <path id="Path_492" d="M1286.7 311.815h-56.573a1.447 1.447 0 0 1-1.338-.973c-6.326-21.778-16.546-24.576-23.663-24.758-10.767-.3-13.687 5.475-13.809 5.718a1.371 1.371 0 0 1-1.095.791 1.268 1.268 0 0 1-1.217-.487s-1.886-2.19-6.57-3.528a1.424 1.424 0 0 1-1.034-1.338V260.9a1.376 1.376 0 0 1 1.4-1.4h118.013a1.448 1.448 0 0 1 1.4 1.338c.182 4.319.426 8.03.669 10.463a1.684 1.684 0 0 0 1.886 1.582l1.095-.061a1.417 1.417 0 0 1 1.521 1.277 1.383 1.383 0 0 1-1.277 1.521l-1.1.061a4.508 4.508 0 0 1-4.867-4.137c-.182-2.19-.426-5.475-.608-9.246h-115.274v23.907a16.419 16.419 0 0 1 5.657 2.92c1.764-2.251 6.2-6.022 15.39-5.779 12.47.365 20.743 8.577 25.975 25.793h54.992a84.268 84.268 0 0 1 15.694-10.889c1.034-.608 1.886-1.095 2.555-1.521a23.587 23.587 0 0 1 4.258-2.19v-12.531a1.616 1.616 0 0 1 .061-1.4 1.384 1.384 0 0 1 1.886-.426l.183.122a1.384 1.384 0 0 1 .608 1.156v13.991a1.369 1.369 0 0 1-.973 1.338 21.131 21.131 0 0 0-4.623 2.19c-.669.426-1.582.973-2.677 1.582a83.858 83.858 0 0 0-15.573 10.889 1.382 1.382 0 0 1-.972.365z" class="cls-4" data-name="Path 492" transform="translate(-1181.4 -259.5)"/>
                    </g>
                    <g id="Group_413" data-name="Group 413" transform="translate(939.662 844.591)">
                        <path id="Path_493" d="M1300.131 212.055H1183.7V161.2h127.442v28.165s-9.611 1.521-9.611 22.69h-1.4z" class="cls-3" data-name="Path 493" transform="translate(-1182.301 -159.801)"/>
                        <path id="Path_494" d="M1300.63 212.553H1182.8a1.376 1.376 0 0 1-1.4-1.4V160.3a1.376 1.376 0 0 1 1.4-1.4h127.442a1.377 1.377 0 0 1 1.4 1.4v28.165a1.432 1.432 0 0 1-1.156 1.4c-.061 0-8.456 1.825-8.456 21.352a1.448 1.448 0 0 1-1.4 1.336zm-116.492-2.8h115.092c.365-16.789 6.874-21.23 9.611-22.325V161.7h-124.7z" class="cls-4" data-name="Path 494" transform="translate(-1181.4 -158.9)"/>
                    </g>
                    <g id="Group_414" data-name="Group 414" transform="translate(939.662 857.122)">
                        <path id="Rectangle_33" d="M0 0h18.067v38.324H0z" class="cls-5" data-name="Rectangle 33" transform="translate(1.399 1.399)"/>
                        <path id="Path_495" d="M1200.866 220.622H1182.8a1.377 1.377 0 0 1-1.4-1.4V180.9a1.376 1.376 0 0 1 1.4-1.4h18.067a1.377 1.377 0 0 1 1.4 1.4v38.324a1.457 1.457 0 0 1-1.401 1.398zm-16.729-2.8h15.269V182.3h-15.269z" class="cls-4" data-name="Path 495" transform="translate(-1181.4 -179.5)"/>
                    </g>
                    <g id="Group_415" data-name="Group 415" transform="translate(957.729 857.122)">
                        <path id="Rectangle_34" d="M0 0h18.067v38.324H0z" class="cls-1" data-name="Rectangle 34" transform="translate(1.399 1.399)"/>
                        <path id="Path_496" d="M1230.566 220.622H1212.5a1.377 1.377 0 0 1-1.4-1.4V180.9a1.377 1.377 0 0 1 1.4-1.4h18.067a1.377 1.377 0 0 1 1.4 1.4v38.324a1.457 1.457 0 0 1-1.401 1.398zm-16.729-2.8h15.269V182.3h-15.269z" class="cls-4" data-name="Path 496" transform="translate(-1211.1 -179.5)"/>
                    </g>
                    <g id="Group_416" data-name="Group 416" transform="translate(975.796 857.122)">
                        <path id="Rectangle_35" d="M0 0h18.067v38.324H0z" class="cls-2" data-name="Rectangle 35" transform="translate(1.399 1.399)"/>
                        <path id="Path_497" d="M1260.266 220.622H1242.2a1.377 1.377 0 0 1-1.4-1.4V180.9a1.377 1.377 0 0 1 1.4-1.4h18.067a1.376 1.376 0 0 1 1.4 1.4v38.324a1.457 1.457 0 0 1-1.401 1.398zm-16.729-2.8h15.269V182.3h-15.269z" class="cls-4" data-name="Path 497" transform="translate(-1240.8 -179.5)"/>
                    </g>
                    <g id="Group_417" data-name="Group 417" transform="translate(993.876 858.17)">
                        <path id="Rectangle_36" d="M0 0h18.067v32.91H0z" class="cls-1" data-name="Rectangle 36" transform="rotate(-22.18 21.578 .613)"/>
                        <path id="Path_498" d="M1284.317 221.3a1.778 1.778 0 0 1-.547-.122 1.235 1.235 0 0 1-.73-.73l-12.41-30.477a1.412 1.412 0 0 1 .73-1.825l16.729-6.813a1.412 1.412 0 0 1 1.825.73l12.41 30.477a1.509 1.509 0 0 1 0 1.034 1.235 1.235 0 0 1-.73.73l-16.729 6.813a.98.98 0 0 1-.548.183zm-10.645-31.085l11.375 27.861 14.174-5.779-11.375-27.861z" class="cls-4" data-name="Path 498" transform="translate(-1270.522 -181.222)"/>
                    </g>
                    <g id="Group_418" data-name="Group 418" transform="translate(1032.319 1006.264)">
                        <path id="Path_499" d="M1336.14 472.016a1.424 1.424 0 0 1-1.338-1.034c-2.737-10.4.547-43.677.73-45.076a1.33 1.33 0 0 1 1.521-1.217 1.3 1.3 0 0 1 1.217 1.521c-.061.365-3.346 34.187-.791 44.1a1.405 1.405 0 0 1-.973 1.7c-.123-.055-.245.006-.366.006z" class="cls-4" data-name="Path 499" transform="translate(-1333.717 -424.672)"/>
                    </g>
                    <g id="Group_419" data-name="Group 419" transform="translate(900.852 1041.91)">
                        <path id="Path_500" d="M1120.277 521.673c.426-13.687 4.562-36.5 4.623-36.8a1.36 1.36 0 0 0-2.677-.487c-.182 1.156-4.2 23.42-4.623 37.29z" class="cls-4" data-name="Path 500" transform="translate(-1117.6 -483.269)"/>
                    </g>
                    <g id="Group_420" data-name="Group 420" transform="translate(996.687 1041.893)">
                        <path id="Path_501" d="M1279.861 521.662h2.737c-.426-13.87-4.5-36.134-4.684-37.29a1.4 1.4 0 1 0-2.737.548c.061.243 4.198 23.055 4.684 36.742z" class="cls-4" data-name="Path 501" transform="translate(-1275.142 -483.242)"/>
                    </g>
                    <g id="Group_421" data-name="Group 421" transform="translate(221.243 1009.748)">
                        <path id="Rectangle_37" d="M0 0h47.388v20.865H0z" class="cls-2" data-name="Rectangle 37"/>
                    </g>
                    <g id="Group_422" data-name="Group 422" transform="translate(492.551 928.356)">
                        <circle id="Ellipse_16" cx="36.803" cy="36.803" r="36.803" class="cls-1" data-name="Ellipse 16"/>
                    </g>
                    <g id="Group_423" data-name="Group 423" transform="translate(496.08 931.884)">
                        <circle id="Ellipse_17" cx="33.275" cy="33.275" r="33.275" class="cls-6" data-name="Ellipse 17"/>
                    </g>
                    <g id="Group_424" data-name="Group 424" transform="translate(235.965 910.958)">
                        <path id="Rectangle_38" d="M0 0h15.39v34.126H0z" class="cls-7" data-name="Rectangle 38"/>
                    </g>
                    <g id="Group_425" data-name="Group 425" transform="translate(251.355 910.958)">
                        <path id="Rectangle_39" d="M0 0h15.39v34.126H0z" class="cls-3" data-name="Rectangle 39"/>
                    </g>
                    <g id="Group_426" data-name="Group 426" transform="translate(266.745 910.958)">
                        <path id="Rectangle_40" d="M0 0h15.39v34.126H0z" class="cls-1" data-name="Rectangle 40"/>
                    </g>
                    <g id="Group_427" data-name="Group 427" transform="translate(221.243 1030.614)">
                        <path id="Rectangle_41" d="M0 0h47.388v20.865H0z" class="cls-1" data-name="Rectangle 41"/>
                    </g>
                    <g id="Group_428" data-name="Group 428" transform="translate(975.735 757.967)">
                        <circle id="Ellipse_18" cx="31.997" cy="31.997" r="31.997" class="cls-2" data-name="Ellipse 18"/>
                    </g>
                    <g id="Group_429" data-name="Group 429" transform="translate(1126.841 929.633)">
                        <path id="Path_502" d="M1545.6 301h-43.008a11.164 11.164 0 0 0-11.193 11.193v45.38l8.091-9a16.774 16.774 0 0 1 12.47-5.536h33.7a11.163 11.163 0 0 0 11.193-11.193v-19.529A11.28 11.28 0 0 0 1545.6 301z" class="cls-2" data-name="Path 502" transform="translate(-1490.001 -299.601)"/>
                        <path id="Path_503" d="M1490.5 358.011a.732.732 0 0 1-.487-.122 1.372 1.372 0 0 1-.912-1.277v-45.32a12.617 12.617 0 0 1 12.592-12.592h43.007a12.617 12.617 0 0 1 12.592 12.592v19.527a12.617 12.617 0 0 1-12.592 12.592H1511a15.441 15.441 0 0 0-11.436 5.11l-8.091 9a1.269 1.269 0 0 1-.973.49zm11.193-56.512a9.787 9.787 0 0 0-9.794 9.794v41.73l5.657-6.326a18.067 18.067 0 0 1 13.5-6.022h33.7a9.787 9.787 0 0 0 9.794-9.794v-19.528a9.787 9.787 0 0 0-9.794-9.794h-43.069z" class="cls-4" data-name="Path 503" transform="translate(-1489.1 -298.7)"/>
                    </g>
                    <g id="Group_430" data-name="Group 430" transform="translate(315.228 844.895)">
                        <path id="Path_504" d="M171.446 159.4h78.473a16.563 16.563 0 0 1 16.546 16.546v67.1L254.6 229.721a24.705 24.705 0 0 0-18.432-8.212h-64.722a16.563 16.563 0 0 1-16.546-16.546v-28.956a16.576 16.576 0 0 1 16.546-16.607z" class="cls-2" data-name="Path 504" transform="translate(-154.9 -159.4)"/>
                    </g>
                    <g id="Group_431" data-name="Group 431" transform="translate(440.419 909.559)">
                        <path id="Path_505" d="M372.694 425.553c5.414 0 9.794-5.171 9.794-11.558V279.558c0-6.387-4.38-11.558-9.794-11.558-5.414 0-9.794 5.171-9.794 11.558V414c.061 6.383 4.38 11.553 9.794 11.553z" class="cls-1" data-name="Path 505" transform="translate(-361.562 -266.601)"/>
                        <path id="Path_506" d="M371.832 425.991c-6.144 0-11.132-5.779-11.132-12.957V278.657c0-7.117 4.988-12.957 11.132-12.957s11.132 5.779 11.132 12.957v134.438c.061 7.117-4.988 12.896-11.132 12.896zm0-157.493c-4.623 0-8.395 4.562-8.395 10.159v134.438c0 5.6 3.772 10.159 8.395 10.159s8.395-4.562 8.395-10.159V278.657c0-5.657-3.772-10.157-8.395-10.157z" class="cls-4" data-name="Path 506" transform="translate(-360.7 -265.7)"/>
                    </g>
                    <path id="Path_507" d="M71.538 174.6v179.451a1.4 1.4 0 0 0 2.8 0V173.2a1.377 1.377 0 0 0-1.4-1.4H0v2.737h71.538z" class="cls-4" data-name="Path 507" transform="translate(221 680.638)"/>
                    <path id="Path_508" d="M59.8 195.6v212.3h2.8V194.2a1.377 1.377 0 0 0-1.4-1.4H0v2.737h59.8z" class="cls-4" data-name="Path 508" transform="translate(221 672.413)"/>
                    <path id="Path_509" d="M61.2 249.1a1.4 1.4 0 1 0 0-2.8H0v2.737h61.2z" class="cls-4" data-name="Path 509" transform="translate(221 651.458)"/>
                    <g id="Group_432" data-name="Group 432" transform="translate(236.147 882.672)">
                        <path id="Path_510" d="M70.949 239.384H26.3a1.377 1.377 0 0 1-1.4-1.4V222.9a1.377 1.377 0 0 1 1.4-1.4h44.589a1.377 1.377 0 0 1 1.4 1.4v15.086a1.364 1.364 0 0 1-1.34 1.398zm-43.251-2.8H69.55v-12.347H27.7z" class="cls-4" data-name="Path 510" transform="translate(-24.9 -221.5)"/>
                    </g>
                    <path id="Path_511" d="M62.535 323.2a1.377 1.377 0 0 0-1.4-1.4H0v2.8h61.2a1.4 1.4 0 0 0 1.335-1.4z" class="cls-4" data-name="Path 511" transform="translate(221 621.885)"/>
                    <path id="Path_512" d="M61.2 405.4a1.4 1.4 0 1 0 0-2.8H0v2.737h61.2z" class="cls-4" data-name="Path 512" transform="translate(221 590.237)"/>
                    <g id="Group_433" data-name="Group 433" transform="translate(244.542 976.169)">
                        <path id="Path_513" d="M65.283 394.666H41.194a1.394 1.394 0 0 1-1.4-1.277L38.7 376.66a1.652 1.652 0 0 1 .365-1.034 1.253 1.253 0 0 1 1.035-.426h26.278a1.725 1.725 0 0 1 1.034.426 1.362 1.362 0 0 1 .365 1.034l-1.095 16.729a1.394 1.394 0 0 1-1.399 1.277zm-22.812-2.737h21.474l.912-13.991h-23.3z" class="cls-4" data-name="Path 513" transform="translate(-38.7 -375.2)"/>
                    </g>
                    <g id="Group_434" data-name="Group 434" transform="translate(260.966 954.818)">
                        <path id="Path_514" d="M71.357 351.415a5.657 5.657 0 1 1 5.657-5.657 5.686 5.686 0 0 1-5.657 5.657zm0-8.516a2.859 2.859 0 1 0 2.859 2.859 2.781 2.781 0 0 0-2.859-2.858z" class="cls-4" data-name="Path 514" transform="translate(-65.7 -340.1)"/>
                    </g>
                    <g id="Group_435" data-name="Group 435" transform="translate(232.193 950.559)">
                        <path id="Path_515" d="M26.308 348.916a7.908 7.908 0 1 1 7.908-7.908 7.892 7.892 0 0 1-7.908 7.908zm0-13.018a5.11 5.11 0 1 0 5.11 5.11 5.1 5.1 0 0 0-5.11-5.108z" class="cls-4" data-name="Path 515" transform="translate(-18.4 -333.1)"/>
                    </g>
                    <g id="Group_436" data-name="Group 436" transform="translate(244.545 960.053)">
                        <path id="Path_516" d="M47.766 367.56a1.429 1.429 0 0 1-1.4-1.46c.426-11.254-6.57-14.66-6.874-14.782a1.374 1.374 0 0 1 1.156-2.494c.365.182 9 4.2 8.516 17.459a1.394 1.394 0 0 1-1.398 1.277z" class="cls-4" data-name="Path 516" transform="translate(-38.706 -348.706)"/>
                    </g>
                    <g id="Group_437" data-name="Group 437" transform="translate(256.703 962.584)">
                        <path id="Path_517" d="M60.1 369.19h-.122a1.383 1.383 0 0 1-1.277-1.521c.73-9.49 6.387-14.3 6.631-14.478a1.382 1.382 0 0 1 1.764 2.129 19.35 19.35 0 0 0-5.657 12.592 1.3 1.3 0 0 1-1.339 1.278z" class="cls-4" data-name="Path 517" transform="translate(-58.692 -352.867)"/>
                    </g>
                    <g id="Group_438" data-name="Group 438" transform="translate(239.432 1035.541)">
                        <path id="Path_518" d="M35.836 483.871a5.536 5.536 0 1 1 5.536-5.536 5.556 5.556 0 0 1-5.536 5.536zm0-8.334a2.737 2.737 0 1 0 2.737 2.737 2.765 2.765 0 0 0-2.737-2.737z" class="cls-4" data-name="Path 518" transform="translate(-30.3 -472.8)"/>
                    </g>
                    <g id="Group_439" data-name="Group 439" transform="translate(239.432 1014.676)">
                        <path id="Path_519" d="M35.836 449.571a5.536 5.536 0 1 1 5.536-5.536 5.556 5.556 0 0 1-5.536 5.536zm0-8.334a2.737 2.737 0 1 0 2.737 2.737 2.726 2.726 0 0 0-2.737-2.737z" class="cls-4" data-name="Path 519" transform="translate(-30.3 -438.5)"/>
                    </g>
                    <path id="Path_520" d="M61.2 499.5a1.4 1.4 0 1 0 0-2.8H0v2.737h61.2z" class="cls-4" data-name="Path 520" transform="translate(221 553.38)"/>
                    <path id="Path_521" d="M61.2 516.7a1.4 1.4 0 1 0 0-2.8H0v2.737h61.2z" class="cls-4" data-name="Path 521" transform="translate(221 546.643)"/>
                    <g id="Group_440" data-name="Group 440" transform="translate(260.48 1060.603)">
                        <path id="Path_522" d="M67.7 533.709V515.4a1.4 1.4 0 0 0-2.8 0v18.31z" class="cls-4" data-name="Path 522" transform="translate(-64.9 -514)"/>
                    </g>
                    <g id="Group_441" data-name="Group 441" transform="translate(267.414 1067.721)">
                        <path id="Path_523" d="M81.227 535.555a4.927 4.927 0 1 1 4.927-4.927 4.907 4.907 0 0 1-4.927 4.927zm0-7.056a2.129 2.129 0 1 0 2.129 2.129 2.078 2.078 0 0 0-2.129-2.128z" class="cls-4" data-name="Path 523" transform="translate(-76.3 -525.7)"/>
                    </g>
                    <g id="Group_442" data-name="Group 442" transform="translate(323.82 961.24)">
                        <path id="Path_524" d="M188.719 391.805c-6.874 0-13.322-3.1-19.284-9.185a1.376 1.376 0 1 1 1.947-1.947c6.387 6.57 13.079 9.246 20.439 8.151 6.874-1.034 9.307-19.223 8.821-24.819-.122-1.338-.182-2.677-.3-3.893-.182-3.1-.365-6.266-1.156-7.178a1.379 1.379 0 1 1 2.068-1.825c1.4 1.582 1.582 4.623 1.825 8.821.061 1.217.182 2.494.243 3.832.426 4.562-1.217 26.34-11.132 27.8a21.158 21.158 0 0 1-3.471.243z" class="cls-4" data-name="Path 524" transform="translate(-169.025 -350.658)"/>
                    </g>
                    <g id="Group_443" data-name="Group 443" transform="translate(311.399 928.531)">
                        <path id="Path_525" d="M186.026 333.266c8.942.973 12.957-7.543 13.018-7.786 2.616-11.375.487-23.116 0-26.279a23.421 23.421 0 0 1-19.892 11.984c-14.478.608-27.374 8.516-28.226 19.527s3.346 29.747 3.346 29.747 1.886 4.867 6.022 3.772 3.528-4.745 2.129-10.524-1.521-8.881 2.859-9.733 4.867-1.156 4.623-5.779 9.187-5.659 16.121-4.929z" class="cls-1" data-name="Path 525" transform="translate(-149.47 -297.793)"/>
                        <path id="Path_526" d="M158.274 364.844c-4.258 0-6.083-4.623-6.144-4.806 0-.061-.061-.122-.061-.182-.183-.791-4.2-19.04-3.346-30.172.852-11.193 13.565-20.2 29.5-20.8a21.956 21.956 0 0 0 18.736-11.193 1.429 1.429 0 0 1 1.46-.791 1.355 1.355 0 0 1 1.156 1.156l.122.73c.669 4.137 2.372 15.208-.122 26.1-.243 1.034-4.38 8.942-12.957 8.942a12.717 12.717 0 0 1-1.521-.061c-1.338-.122-2.677-.243-4.076-.243-4.806 0-8.638.912-9.976 2.312a1.56 1.56 0 0 0-.487 1.277c.3 5.475-.912 6.326-5.718 7.239-1.642.3-2.068.913-2.19 1.156-.73 1.156-.365 3.589.426 6.874 1.217 5.049 2.616 10.706-3.163 12.227a5.954 5.954 0 0 1-1.639.235zm-3.528-5.718c.243.487 1.46 2.981 3.528 2.981a3.561 3.561 0 0 0 .791-.122c2.555-.669 2.737-2.312 1.156-8.881-1.034-4.2-1.4-7.056-.061-9.064a5.826 5.826 0 0 1 4.015-2.372c1.582-.3 2.859-.547 3.224-.973.365-.487.3-2.007.243-3.346A4.308 4.308 0 0 1 168.92 334c2.677-2.8 8.638-3.224 12.045-3.224a35.241 35.241 0 0 1 4.38.243 8.986 8.986 0 0 0 1.277.061c6.813 0 9.976-6.266 10.281-6.935 1.886-8.395 1.156-17.033.487-22.082a24.786 24.786 0 0 1-19.04 9.551c-14.6.608-26.158 8.456-26.887 18.249-.793 10.222 2.918 27.62 3.283 29.263z" class="cls-4" data-name="Path 526" transform="translate(-148.605 -296.887)"/>
                    </g>
                    <path id="Path_527" d="M115.667 492.465c-1.095-15.208-1.034-31.45-.122-38.2 1.4-10.159 14.113-18.919 19.588-22.629.487-.365.973-.669 1.338-.973a106.122 106.122 0 0 1 9.977-5.663c4.015-2.129 6.57-3.467 7.6-4.38 2.251-2.007 2.555-8.577 2.616-10.524a1.369 1.369 0 0 0-2.737-.061c-.061 3.467-.791 7.726-1.7 8.516a62.7 62.7 0 0 1-7 4.015 114.7 114.7 0 0 0-10.281 5.84c-.365.243-.852.608-1.338.912-6.2 4.258-19.223 13.14-20.744 24.576-.852 6.2-.973 22.812.122 38.567h2.677z" class="cls-4" data-name="Path 527" transform="translate(177.053 587.848)"/>
                    <g id="Group_444" data-name="Group 444" transform="translate(289.662 1055.842)">
                        <path id="Path_528" d="M131.321 527.663a143.164 143.164 0 0 1-17.276-1.338 1.385 1.385 0 0 1 .426-2.737c5.414.791 19.831 2.251 25.063.487-.3-3.832-.852-14.174 2.251-17.459a1.377 1.377 0 1 1 2.007 1.886c-2.007 2.129-1.947 11.132-1.4 16.3a1.354 1.354 0 0 1-.73 1.338c-2.25 1.16-6.144 1.523-10.341 1.523z" class="cls-4" data-name="Path 528" transform="translate(-112.872 -506.173)"/>
                    </g>
                    <g id="Group_445" data-name="Group 445" transform="translate(314.177 1073.981)">
                        <path id="Path_529" d="M153.676 542.323h2.8l-.547-5.11a1.371 1.371 0 0 0-1.523-1.213 1.33 1.33 0 0 0-1.217 1.521z" class="cls-4" data-name="Path 529" transform="translate(-153.172 -535.992)"/>
                    </g>
                    <g id="Group_446" data-name="Group 446" transform="translate(346.539 999.147)">
                        <path id="Path_530" d="M222.084 436.288a1.338 1.338 0 0 1-.487-.061c-12.41-4.684-15.086-20.987-15.208-21.656a1.385 1.385 0 0 1 2.737-.426c0 .182 2.494 15.39 13.444 19.527a1.349 1.349 0 0 1-.487 2.616z" class="cls-4" data-name="Path 530" transform="translate(-206.372 -412.972)"/>
                    </g>
                    <g id="Group_447" data-name="Group 447" transform="translate(322.419 1009.701)">
                        <path id="Path_531" d="M190.494 454.519a8.375 8.375 0 0 1-2.737-.547c-6.631-2.494-16.972-12.288-20.926-21.717a1.39 1.39 0 1 1 2.555-1.095c3.893 9.368 14.052 18.189 19.284 20.135 1.217.426 1.947.487 2.19.3 2.312-1.156 5.6-9.672 7.178-15.39a1.387 1.387 0 1 1 2.677.73c-.669 2.494-4.319 14.965-8.577 17.094a2.616 2.616 0 0 1-1.644.49z" class="cls-4" data-name="Path 531" transform="translate(-166.722 -430.322)"/>
                    </g>
                    <g id="Group_448" data-name="Group 448" transform="translate(328.773 1006.017)">
                        <path id="Path_532" d="M190.631 436.636c-4.319 0-11.68-8.395-13.14-10.1a1.383 1.383 0 0 1 2.129-1.764c3.224 3.772 8.76 9.125 11.01 9.125 2.129 0 5.475-4.258 7.117-7.361a1.389 1.389 0 1 1 2.433 1.338c-.79 1.462-5.048 8.762-9.549 8.762z" class="cls-4" data-name="Path 532" transform="translate(-177.167 -424.267)"/>
                    </g>
                    <g id="Group_449" data-name="Group 449" transform="translate(361.825 1001.719)">
                        <path id="Path_533" d="M293.354 420.473a12.176 12.176 0 0 0-4.684-.973h-43.13a11.709 11.709 0 0 0-11.74 11.74v49.578a11.709 11.709 0 0 0 11.74 11.74h43.13a11.446 11.446 0 0 0 6.509-2.007v-66.489a22.064 22.064 0 0 1-1.825-3.589z" class="cls-3" data-name="Path 533" transform="translate(-232.401 -418.101)"/>
                        <path id="Path_534" d="M287.769 493.057H244.64a13.163 13.163 0 0 1-13.14-13.14V430.34a13.163 13.163 0 0 1 13.14-13.14h43.129a12.806 12.806 0 0 1 5.231 1.095 1.425 1.425 0 0 1 .73.73 35.582 35.582 0 0 0 1.7 3.407 1.619 1.619 0 0 1 .182.73v66.488a1.384 1.384 0 0 1-.608 1.156 12.739 12.739 0 0 1-7.235 2.251zM244.64 420a10.333 10.333 0 0 0-10.34 10.34v49.578a10.333 10.333 0 0 0 10.341 10.341h43.129a10.491 10.491 0 0 0 5.11-1.338v-65.334a32.81 32.81 0 0 1-1.521-2.92 10.494 10.494 0 0 0-3.65-.669z" class="cls-4" data-name="Path 534" transform="translate(-231.5 -417.2)"/>
                    </g>
                    <g id="Group_450" data-name="Group 450" transform="translate(367.665 1073.435)">
                        <path id="Path_535" d="M243.837 541.971l.365-5.414a1.372 1.372 0 1 0-2.737-.183l-.365 5.6z" class="cls-4" data-name="Path 535" transform="translate(-241.1 -535.093)"/>
                    </g>
                    <g id="Group_451" data-name="Group 451" transform="translate(369.246 1029.944)">
                        <path id="Path_536" d="M261.645 503.08h-9.064a8.892 8.892 0 0 1-8.881-8.88V465a1.4 1.4 0 0 1 2.8 0v29.2a6.1 6.1 0 0 0 6.083 6.083h9.064a1.377 1.377 0 0 1 1.4 1.4 1.415 1.415 0 0 1-1.402 1.397z" class="cls-4" data-name="Path 536" transform="translate(-243.7 -463.6)"/>
                    </g>
                    <g id="Group_452" data-name="Group 452" transform="translate(423.143 1006.282)">
                        <path id="Path_537" d="M335.159 498.732v-68.374a26.7 26.7 0 0 0 8.821 6.752v61.622h2.8V436.2a1.375 1.375 0 0 0-.852-1.277 24.355 24.355 0 0 1-11.01-9.551 1.359 1.359 0 0 0-1.582-.608 1.424 1.424 0 0 0-1.036 1.336v72.572h2.859z" class="cls-4" data-name="Path 537" transform="translate(-332.3 -424.702)"/>
                    </g>
                    <g id="Group_453" data-name="Group 453" transform="translate(419.493 963.136)">
                        <path id="Path_538" d="M349.487 355.9a25.676 25.676 0 0 0-20.987 25.245v4.562a25.676 25.676 0 0 0 20.987 25.245z" class="cls-3" data-name="Path 538" transform="translate(-327.162 -354.607)"/>
                        <path id="Path_539" d="M348.625 411.519h-.243a27 27 0 0 1-22.082-26.583v-4.562a27.058 27.058 0 0 1 22.082-26.583 1.525 1.525 0 0 1 1.156.3 1.425 1.425 0 0 1 .487 1.095v55.052a1.523 1.523 0 0 1-.487 1.095 4.848 4.848 0 0 1-.913.186zm-1.4-54.687a24.251 24.251 0 0 0-18.189 23.542v4.562a24.3 24.3 0 0 0 18.189 23.542z" class="cls-4" data-name="Path 539" transform="translate(-326.3 -353.774)"/>
                    </g>
                    <g id="Group_454" data-name="Group 454" transform="translate(370.341 858.096)">
                        <path id="Rectangle_42" d="M0 0h37.35v16.607H0z" class="cls-6" data-name="Rectangle 42" transform="translate(1.399 1.46)"/>
                        <path id="Path_540" d="M284.25 200.505H246.9a1.377 1.377 0 0 1-1.4-1.4V182.5a1.377 1.377 0 0 1 1.4-1.4h37.35a1.377 1.377 0 0 1 1.4 1.4v16.607a1.457 1.457 0 0 1-1.4 1.398zm-35.95-2.737h34.55v-13.809H248.3v13.809z" class="cls-4" data-name="Path 540" transform="translate(-245.5 -181.1)"/>
                    </g>
                    <g id="Group_455" data-name="Group 455" transform="translate(325.569 858.156)">
                        <path id="Path_541" d="M200.43 184H173.3a1.4 1.4 0 1 1 0-2.8h27.13a1.377 1.377 0 0 1 1.4 1.4 1.458 1.458 0 0 1-1.4 1.4z" class="cls-4" data-name="Path 541" transform="translate(-171.9 -181.2)"/>
                    </g>
                    <g id="Group_456" data-name="Group 456" transform="translate(325.569 866.43)">
                        <path id="Path_542" d="M200.43 197.6H173.3a1.4 1.4 0 1 1 0-2.8h27.13a1.377 1.377 0 0 1 1.4 1.4 1.415 1.415 0 0 1-1.4 1.4z" class="cls-4" data-name="Path 542" transform="translate(-171.9 -194.8)"/>
                    </g>
                    <g id="Group_457" data-name="Group 457" transform="translate(325.569 874.703)">
                        <path id="Path_543" d="M200.43 211.2H173.3a1.4 1.4 0 1 1 0-2.8h27.13a1.377 1.377 0 0 1 1.4 1.4 1.415 1.415 0 0 1-1.4 1.4z" class="cls-4" data-name="Path 543" transform="translate(-171.9 -208.4)"/>
                    </g>
                    <g id="Group_458" data-name="Group 458" transform="translate(325.569 883.036)">
                        <path id="Path_544" d="M255.422 224.9H173.3a1.4 1.4 0 1 1 0-2.8h82.122a1.377 1.377 0 0 1 1.4 1.4 1.415 1.415 0 0 1-1.4 1.4z" class="cls-4" data-name="Path 544" transform="translate(-171.9 -222.1)"/>
                    </g>
                    <g id="Group_459" data-name="Group 459" transform="translate(325.569 891.31)">
                        <path id="Path_545" d="M255.422 238.5H173.3a1.4 1.4 0 1 1 0-2.8h82.122a1.377 1.377 0 0 1 1.4 1.4 1.415 1.415 0 0 1-1.4 1.4z" class="cls-4" data-name="Path 545" transform="translate(-171.9 -235.7)"/>
                    </g>
                    <g id="Group_460" data-name="Group 460" transform="translate(592 922.638)">
                        <path id="Path_546" d="M671.819 381.489a31.481 31.481 0 0 1-14.417-3.65c-13.444-6.874-18.128-16.911-19.344-20.2l-4.988.365a15.92 15.92 0 0 1-16.364-11.5v-.122l-5.353-25.482c-.426-1.217-3.832-12.227 1.46-21.413 3.285-5.718 9.125-9.429 17.459-11.071a60.151 60.151 0 0 1 11.5-1.217c19.223 0 31.754 11.619 34.431 31.876l.243 2.068c2.737 20.8 5.779 44.346 20.318 45.441a1.4 1.4 0 0 1 .973 2.251c-.49.427-10.527 12.654-25.918 12.654zm-32.849-26.7a1.424 1.424 0 0 1 1.338 1.034c.061.122 3.467 11.984 18.31 19.588a28.531 28.531 0 0 0 13.2 3.346c10.646 0 18.614-6.57 21.96-9.855-14.478-3.589-17.519-26.827-20.2-47.449l-.243-2.068c-2.494-19.04-13.748-29.5-31.693-29.5a54.558 54.558 0 0 0-10.95 1.156c-7.482 1.521-12.714 4.745-15.573 9.733-4.867 8.456-1.217 19.162-1.217 19.223s.061.122.061.182l5.353 25.549a13.083 13.083 0 0 0 13.5 9.429l6.022-.426a.188.188 0 0 0 .133.053z" class="cls-4" data-name="Path 546" transform="translate(-609.882 -287.2)"/>
                    </g>
                    <g id="Group_461" data-name="Group 461" transform="translate(592.418 948.825)">
                        <path id="Path_547" d="M652.562 356.985h-.182c-5.353-.791-8.212-5.6-11.315-10.646a57.685 57.685 0 0 0-5.049-7.482c-5.171-6.266-9.125-6.022-12.288-5.779-.243 0-.487.061-.73.061-3.224.182-10.767 1.521-10.828 1.521a1.36 1.36 0 1 1-.487-2.677c.3-.061 7.726-1.4 11.193-1.582a2.5 2.5 0 0 0 .669-.061c3.407-.243 8.516-.547 14.6 6.813a73.455 73.455 0 0 1 5.292 7.786c2.8 4.684 5.231 8.7 9.307 9.307a1.385 1.385 0 0 1 1.156 1.582 1.322 1.322 0 0 1-1.338 1.157z" class="cls-4" data-name="Path 547" transform="translate(-610.569 -330.248)"/>
                    </g>
                    <g id="Group_462" data-name="Group 462" transform="translate(619.703 967.999)">
                        <path id="Path_548" d="M656.808 386.729a1.393 1.393 0 0 1-1.034-.487 1.362 1.362 0 0 1 .122-1.947c.365-.3 8.456-7.786 6.022-20.865a1.4 1.4 0 0 1 2.737-.547c2.737 14.66-6.509 23.055-6.874 23.42a1.393 1.393 0 0 1-.973.426z" class="cls-4" data-name="Path 548" transform="translate(-655.423 -361.769)"/>
                    </g>
                    <g id="Group_463" data-name="Group 463" transform="translate(604.363 930.064)">
                        <path id="Path_549" d="M679.111 352.388a1.375 1.375 0 0 1-1.277-.852c-2.555-6.2-3.224-11.071-4.015-17.276-.365-2.677-.791-5.718-1.4-9.246-1.277-7.239-4.988-16.789-15.33-20.865a26.341 26.341 0 0 0-24.637 2.737 1.387 1.387 0 0 1-1.7-2.19 28.684 28.684 0 0 1 27.374-3.163c9.125 3.65 15.025 11.558 17.033 22.994a262.44 262.44 0 0 1 1.4 9.368c.852 6.2 1.4 10.706 3.832 16.546a1.412 1.412 0 0 1-.73 1.825 1.776 1.776 0 0 1-.55.122z" class="cls-4" data-name="Path 549" transform="translate(-630.206 -299.409)"/>
                    </g>
                    <g id="Group_464" data-name="Group 464" transform="translate(598.922 990.544)">
                        <path id="Path_550" d="M629.862 470.106a1.62 1.62 0 0 1-.73-.182c-2.129-1.338-12.47-8.516-5.475-21.9 2.859-5.475 12.835-28.652 14.356-32.18l-4.2-15.269a1.387 1.387 0 1 1 2.677-.73l4.319 15.694a1.565 1.565 0 0 1-.061.912c-.487 1.095-11.558 26.827-14.66 32.788-5.657 10.889 2.007 16.729 4.5 18.249a1.4 1.4 0 0 1 .487 1.886 1.352 1.352 0 0 1-1.213.732z" class="cls-4" data-name="Path 550" transform="translate(-621.262 -398.831)"/>
                    </g>
                    <g id="Group_465" data-name="Group 465" transform="translate(615.735 999.547)">
                        <path id="Path_551" d="M650.542 423.163h-.3a1.4 1.4 0 1 1 .122-2.8c.243 0 6.2.122 7.847-5.718a1.387 1.387 0 0 1 2.677.73 10.685 10.685 0 0 1-10.346 7.788z" class="cls-4" data-name="Path 551" transform="translate(-648.9 -413.631)"/>
                    </g>
                    <path id="Path_552" d="M714.869 471.773c.365 6.387.73 19.04.973 32.058h2.8c-.243-13.079-.608-25.793-.973-32.18-.973-16.546-11.619-32.666-12.105-33.336a1.4 1.4 0 1 0-2.312 1.582c.12.061 10.705 16.12 11.617 31.876z" class="cls-4" data-name="Path 552" transform="translate(-54.362 576.482)"/>
                    <g id="Group_466" data-name="Group 466" transform="translate(596.391 1019.07)">
                        <path id="Path_553" d="M620.2 506.966c2.859-5.231 6.813-13.5 12.41-26.462 7.056-16.485 13.322-32.727 13.383-32.91a1.367 1.367 0 1 0-2.555-.973c-7.3 19.1-19.04 47.266-26.34 60.345z" class="cls-4" data-name="Path 553" transform="translate(-617.1 -445.723)"/>
                    </g>
                    <g id="Group_467" data-name="Group 467" transform="translate(624.191 1042.989)">
                        <path id="Path_554" d="M666.207 522.367a88.845 88.845 0 0 0 4.927-7.847c6.935-12.41 14.417-27.252 14.478-27.435a1.4 1.4 0 1 0-2.494-1.277c-.061.122-7.543 14.965-14.417 27.313a98.858 98.858 0 0 1-5.9 9.246z" class="cls-4" data-name="Path 554" transform="translate(-662.8 -485.043)"/>
                    </g>
                    <path id="Path_555" d="M730.52 502.209l13.5-58.581a9.315 9.315 0 0 1 11.132-7 8.962 8.962 0 0 1 5.779 4.137 9.175 9.175 0 0 1 1.156 7l-12.527 54.383h2.859l12.41-53.775a12.078 12.078 0 0 0-23.542-5.414L727.6 502.148h2.92z" class="cls-4" data-name="Path 555" transform="translate(-63.991 578.104)"/>
                    <g id="Group_468" data-name="Group 468" transform="translate(665.753 955.178)">
                        <path id="Path_556" d="M745.1 379.933a1.62 1.62 0 0 1-.73-.182 22.527 22.527 0 0 1-7.847-9.125 62.9 62.9 0 0 1-5.292-28.652 1.4 1.4 0 0 1 2.8.243 60.47 60.47 0 0 0 5.049 27.252 18.975 18.975 0 0 0 6.752 7.908 1.375 1.375 0 0 1 .487 1.886 1.4 1.4 0 0 1-1.219.67z" class="cls-4" data-name="Path 556" transform="translate(-731.125 -340.692)"/>
                    </g>
                    <g id="Group_469" data-name="Group 469" transform="translate(751.033 747.983)">
                        <path id="Path_557" d="M909.995 137.209c-20.014 0-27.557-27.739-28.469-35.282a102.084 102.084 0 0 0-4.2-17.884c0-.061-.061-.122-.061-.182a351.652 351.652 0 0 1-1.4-4.441c-.73-1.7-12.227-29.26 4.38-50.247.3-.426.669-.852.973-1.277 1.764-2.372 9-10.22 26.34-12.714 3.407-.487 7-.912 10.4-1.338 15.816-1.886 32.119-3.832 37.655-13.079A1.318 1.318 0 0 1 956.9.1a1.348 1.348 0 0 1 1.156.791c.365.852 9.246 20.744 6.326 33.214a31.823 31.823 0 0 1-12.47 19.162 27.646 27.646 0 0 1-22.082 4.076c-12.775-2.737-30.355-1.7-40.94 6.813-5.9 4.745-8.881 11.193-8.942 19.162a107.959 107.959 0 0 1 4.258 18.249c.791 6.631 7.908 32.849 25.793 32.849h.973c15.39-.791 24.576-5.414 25.245-12.714a1.4 1.4 0 1 1 2.8.243c-.791 8.821-10.95 14.356-27.861 15.269zM956.531 4.232c-7.056 8.577-22.2 10.4-38.2 12.349-3.407.426-7 .852-10.341 1.338-16.789 2.433-23.42 10.159-24.576 11.68-.365.426-.669.852-1.034 1.277-13.991 17.7-6.692 40.514-4.5 46.171a25.625 25.625 0 0 1 9.307-15.025c12.045-9.733 30.842-10.037 43.251-7.361 14.721 3.163 27.557-5.536 31.267-21.169 2.186-9.308-2.984-23.725-5.174-29.26z" class="cls-4" data-name="Path 557" transform="translate(-871.315 -.087)"/>
                    </g>
                    <g id="Group_470" data-name="Group 470" transform="translate(758.202 766.536)">
                        <path id="Path_558" d="M884.5 62.9a1.427 1.427 0 0 1-1.4-1.46c0-.182.973-18.858 19.648-24.393a133.922 133.922 0 0 1 25.428-4.867 54.192 54.192 0 0 0 9.551-1.521 1.366 1.366 0 0 1 .791 2.616 55.481 55.481 0 0 1-10.1 1.642 127.188 127.188 0 0 0-24.941 4.745c-16.729 4.988-17.641 21.169-17.7 21.838a1.249 1.249 0 0 1-1.277 1.4z" class="cls-4" data-name="Path 558" transform="translate(-883.1 -30.587)"/>
                    </g>
                    <g id="Group_471" data-name="Group 471" transform="translate(803.049 787.77)">
                        <path id="Path_559" d="M987.042 151.087a2.572 2.572 0 0 1-1.886-.912c-2.494-2.737-3.407-12.592-2.677-17.641a9.306 9.306 0 0 1 2.372-5.232c1.156-1.338 2.129-2.555 1.886-7.786-.3-7.117-2.129-10.95-3.711-12.166a1.9 1.9 0 0 0-1.643-.426c-.852.182-1.277 1.886-1.7 3.346a11.83 11.83 0 0 1-1.4 3.467 3.409 3.409 0 0 1-4.015 1.338c-3.163-.912-3.346-5.292-3.528-10.828-.182-5.049-.426-10.767-2.8-14.843-2.555-4.38-10.159-7.421-10.22-7.421a1.367 1.367 0 0 1 .973-2.555c.365.122 8.638 3.407 11.619 8.638 2.677 4.684 2.92 11.01 3.163 16.12.122 3.528.3 7.969 1.521 8.273.669.182.791 0 1.034-.3a9.848 9.848 0 0 0 .973-2.616c.608-2.068 1.277-4.684 3.711-5.292a4.6 4.6 0 0 1 4.015.852c2.8 2.068 4.562 7.3 4.806 14.3.243 6.326-1.217 8.091-2.555 9.672a6.638 6.638 0 0 0-1.764 3.832c-.791 5.6.669 14.052 1.947 15.33a3.246 3.246 0 0 0 1.46-1.034 8.3 8.3 0 0 0 2.068-4.2c.791-4.867 2.8-17.763 3.711-32.362 1.034-16.789-1.947-43.312-2.007-43.616a1.377 1.377 0 1 1 2.737-.3c.061.243 3.042 27.07 2.007 44.1a322.6 322.6 0 0 1-3.772 32.666 10.6 10.6 0 0 1-2.8 5.718 5.839 5.839 0 0 1-3.467 1.886z" class="cls-4" data-name="Path 559" transform="translate(-956.823 -65.492)"/>
                    </g>
                    <g id="Group_472" data-name="Group 472" transform="translate(797.491 865.882)">
                        <path id="Path_560" d="M957.245 249.865a1.331 1.331 0 0 1-1.217-.791l-8.212-16.364a1.486 1.486 0 0 1 .061-1.338 1.281 1.281 0 0 1 1.095-.669c23.116-1.4 31.207-17.519 32.545-20.622-1.4-3.528-1.7-12.835-1.764-14.782a1.364 1.364 0 0 1 1.338-1.4h.061a1.448 1.448 0 0 1 1.4 1.338c.122 4.745.669 12.105 1.642 13.991l.122.122c5.049 5.049 9.611 10.159 8.881 13.809-3.711 22.812-34.37 26.583-35.708 26.7zm-6.022-16.485l6.813 13.626c5.11-.852 29.321-5.657 32.3-24.272v-.061c.365-1.642-1.947-4.988-6.935-10.1-2.553 5.051-11.374 18.677-32.178 20.807z" class="cls-4" data-name="Path 560" transform="translate(-947.686 -193.9)"/>
                    </g>
                    <g id="Group_473" data-name="Group 473" transform="translate(780.464 881.394)">
                        <path id="Path_561" d="M921.1 234.365a1.619 1.619 0 0 1-.73-.182 1.4 1.4 0 0 1-.487-1.886c1.46-2.433 1.521-9.064 1.4-11.436a1.376 1.376 0 0 1 1.338-1.46 1.417 1.417 0 0 1 1.46 1.338c.061.973.365 9.429-1.764 13.018a1.588 1.588 0 0 1-1.217.608z" class="cls-4" data-name="Path 561" transform="translate(-919.696 -219.4)"/>
                    </g>
                    <g id="Group_474" data-name="Group 474" transform="translate(769.699 892.515)">
                        <path id="Path_562" d="M916.9 265.918a1.454 1.454 0 0 1-.852-.3c-.547-.426-13.687-10.95-14.052-20.8a2.586 2.586 0 0 1 .122-.669 12.938 12.938 0 0 1 9.55-6.448 1.439 1.439 0 0 1 1.338.547c1.46 1.947 6.022 7.239 9.186 8.151a1.574 1.574 0 0 1 .852.669 1.367 1.367 0 0 1 .122 1.095l-4.988 16.85a1.371 1.371 0 0 1-.912.912zm-12.1-20.865c.547 6.631 8.03 14.052 11.375 17.033l4.015-13.565c-3.65-1.7-7.421-6.144-8.821-7.969a10.5 10.5 0 0 0-6.569 4.501z" class="cls-4" data-name="Path 562" transform="translate(-902 -237.681)"/>
                    </g>
                    <g id="Group_475" data-name="Group 475" transform="translate(788.114 901.147)">
                        <path id="Path_563" d="M940.2 297.513a1.432 1.432 0 0 1-1.4-1.156l-6.509-42.886a1.385 1.385 0 0 1 2.737-.426l4.562 30.355 1.947-28.652a1.372 1.372 0 1 1 2.737.182l-2.8 41.3a1.182 1.182 0 0 1-1.277 1.277z" class="cls-4" data-name="Path 563" transform="translate(-932.272 -251.872)"/>
                    </g>
                    <g id="Group_476" data-name="Group 476" transform="translate(709.959 898.195)">
                        <path id="Path_564" d="M849.969 414.294c-10.706 0-17.884-1.156-22.447-2.312-14.174-3.711-17.58-20.8-20.865-37.411a433.513 433.513 0 0 0-1.764-8.638c-4.258-19.1 5.049-73 7.786-83.461 2.555-9.794 14.356-15.025 23.846-19.223.973-.426 1.886-.852 2.737-1.217 9.186-4.2 24.819-14.66 25-14.782a1.4 1.4 0 0 1 1.582 2.312c-.669.426-15.938 10.706-25.367 14.965-.913.426-1.825.791-2.8 1.217-8.942 3.954-20.074 8.881-22.264 17.4-2.677 10.341-11.984 63.508-7.786 82.183.669 2.859 1.217 5.84 1.825 8.7 3.285 16.485 6.387 32 18.858 35.282 11.862 3.1 41.3 5.718 105.238-11.375l-4.5-25.184c-6.57.669-36.8 3.65-57.425 2.737-22.69-1.034-32 1.7-32.058 1.7a1.366 1.366 0 0 1-.791-2.616c.365-.122 9.733-2.92 32.971-1.825 22.933 1.034 57.911-2.8 58.276-2.859a1.406 1.406 0 0 1 1.521 1.156l4.988 27.739a1.377 1.377 0 0 1-.973 1.582c-40.877 10.827-68.008 13.93-85.588 13.93z" class="cls-4" data-name="Path 564" transform="translate(-803.794 -247.018)"/>
                    </g>
                    <g id="Group_477" data-name="Group 477" transform="translate(703.133 930.69)">
                        <path id="Path_565" d="M793.927 340.867h-.122a1.33 1.33 0 0 1-1.217-1.521c1.4-12.957 6.691-37.594 6.752-37.837a1.372 1.372 0 1 1 2.677.608c-.061.243-5.292 24.758-6.691 37.533a1.437 1.437 0 0 1-1.399 1.217z" class="cls-4" data-name="Path 565" transform="translate(-792.572 -300.437)"/>
                    </g>
                    <g id="Group_478" data-name="Group 478" transform="translate(747.309 1046.594)">
                        <path id="Path_566" d="M878.884 502.181c-6.57 0-12.045-.426-12.41-.426a1.372 1.372 0 0 1 .183-2.737 165.557 165.557 0 0 0 22.508 0c9.976-.912 46.049-7.969 46.414-8.03a1.4 1.4 0 1 1 .547 2.737c-1.46.3-36.56 7.117-46.719 8.091-3.407.243-7.116.365-10.523.365z" class="cls-4" data-name="Path 566" transform="translate(-865.192 -490.969)"/>
                    </g>
                    <path id="Path_567" d="M867.9 535.707V520.5a1.4 1.4 0 0 0-2.8 0v15.208z" class="cls-4" data-name="Path 567" transform="translate(-117.847 544.606)"/>
                    <g id="Group_479" data-name="Group 479" transform="translate(839.761 891.111)">
                        <path id="Path_568" d="M1067.5 366.055a1.34 1.34 0 0 1-.487-.061 1.38 1.38 0 0 1-.852-1.764c10.159-28.1 11.436-74.579 7.3-92.22-3.346-14.417-21.474-19.649-33.518-23.116a72.473 72.473 0 0 1-7.117-2.251 51.19 51.19 0 0 1-15.208-8.881 1.377 1.377 0 0 1 1.886-2.007 48.679 48.679 0 0 0 14.3 8.334c1.7.669 4.136 1.338 6.874 2.129 12.592 3.65 31.693 9.125 35.4 25.123 4.2 17.945 2.92 65.272-7.421 93.8a1.074 1.074 0 0 1-1.157.914z" class="cls-4" data-name="Path 568" transform="translate(-1017.173 -235.373)"/>
                    </g>
                    <g id="Group_480" data-name="Group 480" transform="translate(847.668 912.017)">
                        <path id="Path_569" d="M1031.588 372.46h-.243a1.419 1.419 0 0 1-1.156-1.582c.487-2.92 11.68-71.173 17.094-86.746 5.779-16.485 22.629-14.3 22.751-14.3a1.385 1.385 0 1 1-.426 2.737c-.608-.061-14.782-1.886-19.77 12.47-5.353 15.33-16.85 85.59-16.972 86.259a1.224 1.224 0 0 1-1.278 1.162z" class="cls-4" data-name="Path 569" transform="translate(-1030.172 -269.741)"/>
                    </g>
                    <g id="Group_481" data-name="Group 481" transform="translate(880.155 922.385)">
                        <path id="Path_570" d="M1094.905 345.374h-.243a1.419 1.419 0 0 1-1.156-1.582c.608-3.65 1.886-36.5-.912-46.779-.973-3.589-2.494-5.961-4.319-7a4.015 4.015 0 0 0-2.859-.365 1.385 1.385 0 1 1-.912-2.616 6.821 6.821 0 0 1 5.049.547c2.616 1.338 4.562 4.319 5.718 8.7 2.981 10.889 1.642 44.164.973 48a1.372 1.372 0 0 1-1.339 1.095z" class="cls-4" data-name="Path 570" transform="translate(-1083.577 -286.784)"/>
                    </g>
                    <g id="Group_482" data-name="Group 482" transform="translate(764.342 896.415)">
                        <path id="Path_571" d="M934.563 295.56a48.761 48.761 0 0 1-5.9-.365c-13.809-1.764-24.272-10.037-30.416-23.907a62.224 62.224 0 0 1-5.049-20.5 1.376 1.376 0 0 1 1.338-1.46 1.412 1.412 0 0 1 1.46 1.338 61.288 61.288 0 0 0 4.867 19.588c5.779 13.079 15.269 20.561 28.165 22.2 10.646 1.338 19.953-1.156 27.678-7.421 10.22-8.334 17.094-23.177 18.371-39.662a1.372 1.372 0 1 1 2.737.182c-1.338 17.276-8.577 32.849-19.405 41.609a36.594 36.594 0 0 1-23.846 8.398z" class="cls-4" data-name="Path 571" transform="translate(-893.193 -244.092)"/>
                    </g>
                    <g id="Group_483" data-name="Group 483" transform="translate(756.639 915.783)">
                        <path id="Path_572" d="M929.664 318.616a45.362 45.362 0 0 1-9.064-.912c-16.424-3.346-26.462-14.052-31.937-22.447a63.237 63.237 0 0 1-8.091-17.58 1.409 1.409 0 1 1 2.737-.669c.061.3 8.212 31.936 37.9 37.9 19.588 3.954 36.5-5.961 43.129-17.763a1.389 1.389 0 0 1 2.433 1.338c-6.996 12.468-21.717 20.133-37.107 20.133z" class="cls-4" data-name="Path 572" transform="translate(-880.531 -275.931)"/>
                    </g>
                    <g id="Group_484" data-name="Group 484" transform="translate(731.663 919.154)">
                        <path id="Path_573" d="M856.522 356.738a1.448 1.448 0 0 1-1.4-1.338c0-.243-.669-21.9-2.8-42.035-2.068-19.649-12.288-29.442-12.41-29.5a1.377 1.377 0 0 1 1.886-2.007c.426.426 11.071 10.524 13.261 31.267 2.129 20.257 2.8 42.035 2.8 42.217a1.36 1.36 0 0 1-1.338 1.4z" class="cls-4" data-name="Path 573" transform="translate(-839.473 -281.473)"/>
                    </g>
                    <g id="Group_485" data-name="Group 485" transform="translate(779.336 1052.07)">
                        <path id="Path_574" d="M998.54 525.538a42.451 42.451 0 0 1-4.441-.3l-.791-.061c-4.5-.487-71.477-12.957-74.336-13.5a1.4 1.4 0 1 1 .548-2.737c.669.122 69.713 12.957 74.093 13.444l.791.061c4.562.487 11.375 1.277 15.634-6.144a50.167 50.167 0 0 0 5.779-15.147 1.385 1.385 0 1 1 2.737.426 49.363 49.363 0 0 1-6.083 16.12c-3.771 6.622-9.371 7.838-13.931 7.838z" class="cls-4" data-name="Path 574" transform="translate(-917.842 -499.972)"/>
                    </g>
                    <path id="Path_575" d="M1080.842 530.106a3035.877 3035.877 0 0 1-.243-23.907 1.377 1.377 0 0 0-1.4-1.4 1.377 1.377 0 0 0-1.4 1.4c0 .243.061 10.95.243 23.907z" class="cls-4" data-name="Path 575" transform="translate(-201.159 550.207)"/>
                    <g id="Group_486" data-name="Group 486" transform="translate(758.554 995.94)">
                        <path id="Path_576" d="M899.994 438.237c-2.494-.061-4.867-.122-7.117-.122h-.547a1.369 1.369 0 0 1-1.338-.973l-7-22.082c-.973-3.163.365-6.387 3.042-7.178a4.629 4.629 0 0 1 1.277-.182 5.894 5.894 0 0 1 5.292 4.38l7.421 23.6c.061.243.122.547.182.791a.9.9 0 0 1 .061.426 1.3 1.3 0 0 1-1.273 1.34zm-6.691-2.92c1.582 0 3.163 0 4.806.061l-7.117-22.568c-.487-1.642-1.947-2.737-3.163-2.372-1.156.365-1.764 2.068-1.217 3.711z" class="cls-4" data-name="Path 576" transform="translate(-883.679 -407.7)"/>
                    </g>
                    <g id="Group_487" data-name="Group 487" transform="translate(749.559 992.107)">
                        <path id="Path_577" d="M878.873 435.831a1.369 1.369 0 0 1-1.338-.973l-8.395-26.888a4.691 4.691 0 0 1 .365-3.832 5.477 5.477 0 0 1 2.981-2.494 6.117 6.117 0 0 1 1.521-.243 4.911 4.911 0 0 1 4.806 3.528l8.881 28.53c.061.122.061.3.122.426v.061a1.312 1.312 0 0 1-.3 1.156 1.424 1.424 0 0 1-1.095.487c-2.616 0-5.171.061-7.543.182zm-4.867-31.693a2.188 2.188 0 0 0-.669.122 2.408 2.408 0 0 0-1.337 1.094 2.231 2.231 0 0 0-.182 1.764l8.03 25.914c1.521-.061 3.1-.122 4.745-.122l-8.456-27.131a2.209 2.209 0 0 0-2.13-1.642z" class="cls-4" data-name="Path 577" transform="translate(-868.892 -401.4)"/>
                    </g>
                    <g id="Group_488" data-name="Group 488" transform="translate(741.651 991.56)">
                        <path id="Path_578" d="M866.238 436.086a1.369 1.369 0 0 1-1.338-.973l-8.76-28.043a4.691 4.691 0 0 1 .365-3.832 5.055 5.055 0 0 1 2.981-2.494 6.114 6.114 0 0 1 1.521-.243 4.911 4.911 0 0 1 4.806 3.528l8.881 28.53a4.184 4.184 0 0 1 .182 1.521 1.448 1.448 0 0 1-1.338 1.4c-2.616.122-5.049.365-7.239.608zm-5.232-32.849a2.187 2.187 0 0 0-.669.122 2.408 2.408 0 0 0-1.337 1.095 2.23 2.23 0 0 0-.182 1.764l8.395 26.948a56.24 56.24 0 0 1 4.684-.365l-8.7-27.922a2.281 2.281 0 0 0-2.19-1.642z" class="cls-4" data-name="Path 578" transform="translate(-855.892 -400.5)"/>
                    </g>
                    <g id="Group_489" data-name="Group 489" transform="translate(736.418 998.434)">
                        <path id="Path_579" d="M856.117 441.668a1.21 1.21 0 0 1-.973-.426 6.954 6.954 0 0 1-1.582-2.677l-5.962-19.404c-.973-3.163.426-6.387 3.042-7.178a4.631 4.631 0 0 1 1.277-.182 5.894 5.894 0 0 1 5.292 4.38l5.961 19.405a6.854 6.854 0 0 1 0 4.136 1.4 1.4 0 0 1-1.156.913 36.962 36.962 0 0 0-5.536 1.034zm-4.2-27.131a1.34 1.34 0 0 0-.487.061c-1.156.365-1.764 2.068-1.217 3.711l5.961 19.405a4.718 4.718 0 0 0 .426.973 41.267 41.267 0 0 1 4.076-.73 3.638 3.638 0 0 0-.183-1.582l-5.961-19.405a3.064 3.064 0 0 0-2.613-2.433z" class="cls-4" data-name="Path 579" transform="translate(-847.29 -411.8)"/>
                    </g>
                    <g id="Group_490" data-name="Group 490" transform="translate(834.787 1000.546)">
                        <path id="Path_580" d="M1060.158 443.272h-11.315a1.4 1.4 0 0 1 0-2.8h11.315a2.921 2.921 0 0 0 2.92-2.92 2.96 2.96 0 0 0-2.92-2.92h-14.964c-3.772-.365-5.11-2.737-5.171-4.684a5.618 5.618 0 0 1 4.867-5.536c2.251-.3 4.136 1.886 6.022 4.015a14.889 14.889 0 0 0 2.92 2.8 2.573 2.573 0 0 0 2.616-.365 2.291 2.291 0 0 0 .912-1.947c-.243-2.251-4.258-8.821-9.672-10.585-4.258-1.4-9.49 2.312-15.086 6.266-1.095.791-2.251 1.642-3.467 2.433-7.239 4.988-17.945 11.193-18.067 11.254a1.377 1.377 0 1 1-1.4-2.372c.122-.061 10.706-6.2 17.884-11.132 1.156-.791 2.312-1.582 3.406-2.372 6.144-4.38 11.923-8.516 17.52-6.691 6.57 2.19 11.193 9.611 11.558 12.957a4.843 4.843 0 0 1-.791 3.224h.852a5.712 5.712 0 0 1 5.718 5.718 5.608 5.608 0 0 1-5.657 5.657zm-14.782-11.436h4.866c-.487-.487-.973-1.034-1.46-1.582-1.034-1.217-2.859-3.224-3.589-3.1a2.894 2.894 0 0 0-2.433 2.737c.061 1.458 1.64 1.884 2.616 1.945z" class="cls-4" data-name="Path 580" transform="translate(-1008.996 -415.273)"/>
                    </g>
                    <g id="Group_491" data-name="Group 491" transform="translate(839.79 1042.901)">
                        <path id="Path_581" d="M1046.468 496.64c-10.1 0-23.42-.547-28.53-3.407a1.388 1.388 0 0 1 1.338-2.433c7.726 4.319 39.236 2.8 39.54 2.737h.061a2.92 2.92 0 1 0 0-5.84h-11.315a1.4 1.4 0 0 1 0-2.8h11.315a5.712 5.712 0 0 1 5.718 5.718 5.779 5.779 0 0 1-5.657 5.718c-.669.067-5.9.307-12.47.307z" class="cls-4" data-name="Path 581" transform="translate(-1017.221 -484.9)"/>
                    </g>
                    <g id="Group_492" data-name="Group 492" transform="translate(870.375 1034.324)">
                        <path id="Path_582" d="M1080.214 482.236H1068.9a1.4 1.4 0 1 1 0-2.8h11.315a2.92 2.92 0 1 0 0-5.84H1068.9a1.4 1.4 0 1 1 0-2.8h11.315a5.712 5.712 0 0 1 5.718 5.718 5.791 5.791 0 0 1-5.719 5.722z" class="cls-4" data-name="Path 582" transform="translate(-1067.5 -470.8)"/>
                    </g>
                    <g id="Group_493" data-name="Group 493" transform="translate(872.504 1025.686)">
                        <path id="Path_583" d="M1083.714 468.036H1072.4a1.4 1.4 0 1 1 0-2.8h11.315a2.92 2.92 0 1 0 0-5.84H1072.4a1.4 1.4 0 1 1 0-2.8h11.315a5.718 5.718 0 1 1 0 11.436z" class="cls-4" data-name="Path 583" transform="translate(-1071 -456.6)"/>
                    </g>
                    <g id="Group_494" data-name="Group 494" transform="translate(1172.406 833.641)">
                        <path id="Path_584" d="M1565.522 173.688a1.62 1.62 0 0 1-.73-.182 1.492 1.492 0 0 1-.669-1.095c-.061-.669-1.217-16.485 5.171-23.42 4.866-5.292 10.159-8.091 15.329-8.091a16.956 16.956 0 0 1 4.867.791 13.494 13.494 0 0 1 8.7 9.855c1.825 8.151-.487 14.417-6.57 17.7a30.562 30.562 0 0 1-15.573 3.772c-1.034 0-2.007 0-2.92-.061-.852 0-1.642-.061-2.372-.061a12.331 12.331 0 0 0-4.684.669 1.777 1.777 0 0 1-.549.123zm19.1-30.112c-5.475 0-10.22 3.954-13.261 7.239-4.441 4.867-4.623 15.451-4.5 19.649a17.346 17.346 0 0 1 3.893-.3c.791 0 1.642 0 2.494.061.912 0 1.886.061 2.859.061a28.6 28.6 0 0 0 14.235-3.407c6.266-3.346 6.266-9.855 5.171-14.66a11.38 11.38 0 0 0-10.889-8.638z" class="cls-4" data-name="Path 584" transform="translate(-1564.004 -140.9)"/>
                    </g>
                    <g id="Group_495" data-name="Group 495" transform="translate(1179.106 839.082)">
                        <path id="Path_585" d="M1576.406 170.621a1.339 1.339 0 0 1-.791-.243 1.431 1.431 0 0 1-.365-1.947l.365-.547a68.784 68.784 0 0 1 8.456-10.524 41.759 41.759 0 0 1 10.037-7.36 1.4 1.4 0 1 1 1.277 2.494 39.866 39.866 0 0 0-9.307 6.813 65.383 65.383 0 0 0-8.212 10.159l-.365.547a1.359 1.359 0 0 1-1.095.608z" class="cls-4" data-name="Path 585" transform="translate(-1575.018 -149.843)"/>
                    </g>
                    <g id="Group_496" data-name="Group 496" transform="translate(1157.802 795.528)">
                        <path id="Path_586" d="M1552.956 125.362a1.387 1.387 0 0 1-.669-.183c-7.908-4.258-12.41-11.193-12.288-18.979a20.99 20.99 0 0 1 11.375-18.189c10.1-4.988 17.337-9.49 17.4-9.551a1.436 1.436 0 0 1 1.4-.061 1.384 1.384 0 0 1 .73 1.217c.061 2.616 1.582 5.6 3.285 8.942 1.825 3.528 3.893 7.482 4.745 12.166 1.764 9.49-6.509 18.128-6.874 18.493a1.377 1.377 0 0 1-2.007-1.886c.122-.122 7.6-8.03 6.083-16.059-.791-4.258-2.738-8.03-4.441-11.375a37.451 37.451 0 0 1-3.346-7.908 255.962 255.962 0 0 1-15.816 8.577 18.11 18.11 0 0 0-9.794 15.755c-.122 6.022 2.859 11.254 8.395 15.025-.608-6.387-.426-21.413 13.261-28.165a1.4 1.4 0 0 1 1.278 2.494c-15.695 7.726-11.375 27.861-11.375 28.1a1.337 1.337 0 0 1-.487 1.4 1.943 1.943 0 0 1-.855.187z" class="cls-4" data-name="Path 586" transform="translate(-1539.996 -78.245)"/>
                    </g>
                    <path id="Path_587" d="M1523.4 190.829V184.2h25a1.4 1.4 0 1 0 0-2.8H1522a1.377 1.377 0 0 0-1.4 1.4v9.429a1.377 1.377 0 0 0 1.4 1.4h71.538v-2.739H1523.4z" class="cls-4" data-name="Path 587" transform="translate(-374.597 676.878)"/>
                    <g id="Group_497" data-name="Group 497" transform="translate(1115.956 834.437)">
                        <path id="Path_588" d="M1521.146 168.847a1.429 1.429 0 0 1-1.4-1.217c0-.182-2.677-20.318-16.729-20.318h-.365c-4.076.061-7.239.3-10.037.487-8.151.547-12.227.791-20.561-2.92a1.39 1.39 0 0 1 1.095-2.555c7.726 3.407 11.375 3.163 19.284 2.677 2.859-.182 6.083-.365 10.159-.487 16.85-.365 19.892 22.508 19.892 22.751a1.33 1.33 0 0 1-1.217 1.521c0 .061-.061.061-.121.061z" class="cls-4" data-name="Path 588" transform="translate(-1471.208 -142.208)"/>
                    </g>
                    <g id="Group_498" data-name="Group 498" transform="translate(1107.083 821.833)">
                        <path id="Path_589" d="M1480.7 151.181q-2.007 0-4.2-.182c-15.025-1.156-19.649-17.945-19.831-18.614a1.457 1.457 0 0 1 .243-1.217 1.3 1.3 0 0 1 1.095-.547c2.737 0 4.866-1.46 7.543-3.224 4.015-2.737 9.064-6.083 18.432-5.9 16.364.365 16.242 16.242 16.242 16.424v.122c-.669 6.021-4.562 13.138-19.524 13.138zm-20.865-17.945c1.521 4.015 6.326 14.235 16.85 15.025q2.1.182 4.015.183c10.341 0 16-3.589 16.729-10.585 0-1.034-.243-13.2-13.565-13.5h-.791c-7.969 0-12.227 2.859-16 5.414-2.313 1.516-4.503 2.976-7.24 3.463z" class="cls-4" data-name="Path 589" transform="translate(-1456.621 -121.488)"/>
                    </g>
                    <g id="Group_499" data-name="Group 499" transform="translate(1108.212 814.347)">
                        <path id="Path_590" d="M1459.89 120.264a1.452 1.452 0 0 1-1.338-.912 1.379 1.379 0 0 1 .852-1.764 55.763 55.763 0 0 0 10.159-5.353c6.326-3.954 15.39-3.467 19.527-1.886a1.367 1.367 0 1 1-.973 2.555c-3.771-1.46-11.8-1.642-17.094 1.642a57.069 57.069 0 0 1-10.767 5.6c-.062.118-.244.118-.366.118z" class="cls-4" data-name="Path 590" transform="translate(-1458.477 -109.182)"/>
                    </g>
                    <g id="Group_500" data-name="Group 500" transform="translate(1132.68 902.928)">
                        <path id="Rectangle_43" d="M0 0h84.799v8.699H0z" class="cls-1" data-name="Rectangle 43" transform="translate(1.399 1.399)"/>
                        <path id="Path_591" d="M1500.1 254.8a1.377 1.377 0 0 0-1.4 1.4v8.7a1.377 1.377 0 0 0 1.4 1.4h84.86v-2.74h-83.521v-5.96h83.521v-2.737h-84.86z" class="cls-4" data-name="Path 591" transform="translate(-1498.7 -254.8)"/>
                    </g>
                    <g id="Group_501" data-name="Group 501" transform="translate(1147.645 911.688)">
                        <path id="Path_592" d="M1537.6 277.169c-7.117 0-14.3-2.251-14.3-6.57a1.4 1.4 0 0 1 2.8 0c0 1.521 4.562 3.832 11.5 3.832s11.5-2.312 11.5-3.832a1.4 1.4 0 0 1 2.8 0c-.07 4.319-7.248 6.57-14.3 6.57z" class="cls-4" data-name="Path 592" transform="translate(-1523.3 -269.2)"/>
                    </g>
                    <g id="Group_502" data-name="Group 502" transform="translate(1150.49 867.632)">
                        <path id="Path_593" d="M1541.252 234.81a1.423 1.423 0 0 1-1.338-.973l-11.862-35.221a1.385 1.385 0 1 1 2.616-.912l11.862 35.221a1.379 1.379 0 0 1-.852 1.764.514.514 0 0 1-.426.121z" class="cls-4" data-name="Path 593" transform="translate(-1527.977 -196.777)"/>
                    </g>
                    <g id="Group_503" data-name="Group 503" transform="translate(1137.121 940.096)">
                        <path id="Path_594" d="M1552.719 318.7H1507.4a1.4 1.4 0 1 1 0-2.8h45.319a1.4 1.4 0 0 1 0 2.8z" class="cls-4" data-name="Path 594" transform="translate(-1506 -315.9)"/>
                    </g>
                    <g id="Group_504" data-name="Group 504" transform="translate(1137.121 950.073)">
                        <path id="Path_595" d="M1552.719 335.1H1507.4a1.4 1.4 0 1 1 0-2.8h45.319a1.4 1.4 0 0 1 0 2.8z" class="cls-4" data-name="Path 595" transform="translate(-1506 -332.3)"/>
                    </g>
                    <g id="Group_505" data-name="Group 505" transform="translate(1137.121 959.988)">
                        <path id="Path_596" d="M1552.719 351.4H1507.4a1.4 1.4 0 1 1 0-2.8h45.319a1.4 1.4 0 0 1 0 2.8z" class="cls-4" data-name="Path 596" transform="translate(-1506 -348.6)"/>
                    </g>
                    <g id="Group_506" data-name="Group 506" transform="translate(1197.162 1014.371)">
                        <path id="Path_597" d="M1627.379 440.687a17.28 17.28 0 0 0-4.015-.487 16.364 16.364 0 0 0 0 32.727 17.279 17.279 0 0 0 4.015-.487z" class="cls-3" data-name="Path 597" transform="translate(-1605.601 -438.861)"/>
                        <path id="Path_598" d="M1604.7 455.641a17.784 17.784 0 0 0 17.763 17.763 18.22 18.22 0 0 0 4.076-.487v-2.8a.771.771 0 0 0-.365.061 15.143 15.143 0 0 1-3.711.487 14.965 14.965 0 0 1 0-29.929 15.536 15.536 0 0 1 3.711.487.771.771 0 0 0 .365.061v-2.8a18.218 18.218 0 0 0-4.076-.487 17.68 17.68 0 0 0-17.763 17.644z" class="cls-4" data-name="Path 598" transform="translate(-1604.7 -437.999)"/>
                    </g>
                    <path id="Path_599" d="M1528.3 390.8a1.377 1.377 0 0 0-1.4 1.4v81.757a1.377 1.377 0 0 0 1.4 1.4h52.376a1.4 1.4 0 1 0 0-2.8H1529.7v-79.02h66.367V390.8H1528.3z" class="cls-4" data-name="Path 599" transform="translate(-377.065 594.859)"/>
                    <g id="Group_507" data-name="Group 507" transform="translate(1203.123 1043.327)">
                        <path id="Path_600" d="M1617.3 522.586V487a1.4 1.4 0 1 0-2.8 0v35.586z" class="cls-4" data-name="Path 600" transform="translate(-1614.5 -485.6)"/>
                    </g>
                    <path id="Path_601" d="M1491.9 528.931V504.6h21.6a1.4 1.4 0 0 0 0-2.8h-23a1.377 1.377 0 0 0-1.4 1.4v25.732z" class="cls-4" data-name="Path 601" transform="translate(-362.259 551.382)"/>
                    <g id="Group_508" data-name="Group 508" transform="translate(897.957 929.744)">
                        <path id="Path_602" d="M1205.1 395.128h-.244a1.419 1.419 0 0 1-1.156-1.582c.061-.3 5.536-33.579.3-58.946-5.9-28.773-16.85-32.727-25.671-33.031-10.767-.3-13.687 5.475-13.809 5.718a1.372 1.372 0 0 1-1.095.791 1.268 1.268 0 0 1-1.217-.487c0-.061-3.771-4.441-14.3-4.441-10.4 0-28.591 13.809-32.362 34.674a1.36 1.36 0 0 1-2.677-.487c3.711-20.439 22.2-36.925 35.039-36.925 8.456 0 13.079 2.616 15.147 4.258 1.764-2.251 6.2-6.022 15.39-5.779 14.478.426 23.481 11.619 28.347 35.221 5.353 25.914-.243 59.676-.3 59.98a1.519 1.519 0 0 1-1.392 1.036z" class="cls-4" data-name="Path 602" transform="translate(-1112.842 -298.882)"/>
                    </g>
                    <g id="Group_509" data-name="Group 509" transform="translate(932.058 965.463)">
                        <path id="Path_603" d="M1189.157 388.806c-9.794 0-20.257-7.3-20.257-27.922a1.4 1.4 0 1 1 2.8 0c0 15.512 6.692 25.123 17.52 25.123 11.619 0 17.52-9.064 17.52-27.009a1.4 1.4 0 0 1 2.8 0c-.065 24.702-11.14 29.808-20.383 29.808z" class="cls-4" data-name="Path 603" transform="translate(-1168.9 -357.6)"/>
                    </g>
                    <g id="Group_510" data-name="Group 510" transform="translate(927.632 943.651)">
                        <path id="Path_604" d="M1163.008 350.673a1.317 1.317 0 0 1-1.277-.852 1.389 1.389 0 0 1 .791-1.825c11.923-4.745 22.447-25.245 22.568-25.488a1.4 1.4 0 0 1 2.494 1.277c-.426.912-11.132 21.656-24.029 26.766a.9.9 0 0 1-.547.122z" class="cls-4" data-name="Path 604" transform="translate(-1161.623 -321.743)"/>
                    </g>
                    <g id="Group_511" data-name="Group 511" transform="translate(949.772 946.373)">
                        <path id="Path_605" d="M1221.306 349.019a1.776 1.776 0 0 1-.547-.122c-11.8-4.927-22.082-19.831-22.508-20.5a1.4 1.4 0 1 1 2.312-1.582c.122.122 10.28 14.843 21.291 19.466a1.361 1.361 0 0 1 .73 1.825 1.435 1.435 0 0 1-1.278.913z" class="cls-4" data-name="Path 605" transform="translate(-1198.019 -326.218)"/>
                    </g>
                    <g id="Group_512" data-name="Group 512" transform="translate(901.343 954.22)">
                        <path id="Path_606" d="M1119.8 399.634a1.775 1.775 0 0 1-.547-.122 1.361 1.361 0 0 1-.73-1.825c1.582-3.832 2.859-13.565 4.076-22.994.912-6.874 1.825-14.052 2.92-18.8 2.616-11.68 10.645-16.364 10.949-16.607a1.377 1.377 0 1 1 1.4 2.372c-.122.061-7.361 4.38-9.672 14.782-1.034 4.623-1.947 11.74-2.859 18.554-1.338 10.037-2.555 19.527-4.258 23.724a1.346 1.346 0 0 1-1.279.916z" class="cls-4" data-name="Path 606" transform="translate(-1118.408 -339.118)"/>
                    </g>
                    <g id="Group_513" data-name="Group 513" transform="translate(935.618 992.004)">
                        <path id="Path_607" d="M1191.449 439.353h-.061a17.23 17.23 0 0 1-14.478-9c-2.129-3.65-2.737-7.6-1.582-9.733 1.46-2.8 4.623-14.174 5.718-18.371a1.387 1.387 0 0 1 2.677.73c-.183.608-4.015 15.269-5.961 18.919-.487.912-.3 3.772 1.582 7.056a13.535 13.535 0 0 0 24.333 0c1.886-3.285 2.007-6.144 1.582-7.056-1.946-3.65-5.779-18.31-5.961-18.919a1.387 1.387 0 0 1 2.677-.73c1.095 4.137 4.258 15.573 5.718 18.371 1.156 2.19.487 6.083-1.582 9.733a17.36 17.36 0 0 1-14.478 9z" class="cls-4" data-name="Path 607" transform="translate(-1174.752 -401.231)"/>
                    </g>
                    <g id="Group_514" data-name="Group 514" transform="translate(904.342 1010.647)">
                        <path id="Path_608" d="M1124.714 470.519a.548.548 0 0 1-.3-.061 1.38 1.38 0 0 1-1.034-1.642c.182-.791 4.562-19.284 10.706-25.306 6.083-5.961 21.23-11.375 21.9-11.558a1.385 1.385 0 1 1 .912 2.616c-.122.061-15.269 5.414-20.865 10.95-5.6 5.475-9.916 23.785-9.916 23.968a1.56 1.56 0 0 1-1.403 1.033z" class="cls-4" data-name="Path 608" transform="translate(-1123.337 -431.877)"/>
                    </g>
                    <g id="Group_515" data-name="Group 515" transform="translate(966.292 1010.647)">
                        <path id="Path_609" d="M1257.918 470.032a1.361 1.361 0 0 1-1.338-1.095c-.061-.182-4.076-18.006-9.611-23.42-5.657-5.536-20.744-10.889-20.865-10.95a1.385 1.385 0 1 1 .912-2.616c.669.243 15.816 5.6 21.9 11.558 6.144 6.022 10.22 23.968 10.4 24.819a1.38 1.38 0 0 1-1.034 1.642.772.772 0 0 1-.364.062z" class="cls-4" data-name="Path 609" transform="translate(-1225.177 -431.877)"/>
                    </g>
                    <g id="Group_516" data-name="Group 516" transform="translate(1159.568 997.46)">
                        <path id="Path_610" d="M1544.3 465.131a1.377 1.377 0 0 1-1.4-1.4V411.6a1.4 1.4 0 1 1 2.8 0v52.133a1.457 1.457 0 0 1-1.4 1.398z" class="cls-4" data-name="Path 610" transform="translate(-1542.9 -410.2)"/>
                    </g>
                    <g id="Group_517" data-name="Group 517" transform="translate(1079.453 887.051)">
                        <path id="Path_611" d="M1418.743 276.027h-6.143a1.4 1.4 0 1 1 0-2.8h6.144a14.513 14.513 0 0 0 14.478-14.478V230.1a1.4 1.4 0 1 1 2.8 0v28.652a17.3 17.3 0 0 1-17.279 17.275z" class="cls-4" data-name="Path 611" transform="translate(-1411.2 -228.7)"/>
                    </g>
                    <g id="Group_518" data-name="Group 518" transform="translate(1057.528 861.704)">
                        <path id="Path_612" d="M1394.842 228.232l-.061-2.068a7.105 7.105 0 0 1 6.935-7.361c7.482-.182 18.675-1.46 23.3-7.178 4.806-5.9 5.292-10.341 3.589-22.325 0 0-10.524 8.395-27.252 8.638s-22.751 5.475-23.724 18.858a193.78 193.78 0 0 0 .547 27.07 3.105 3.105 0 0 0 3.406 2.859l1.095-.061a3.281 3.281 0 0 0 3.042-3.528l-.547-8.395a2.733 2.733 0 0 1 2.737-2.92h3.406a3.506 3.506 0 0 0 3.527-3.589z" class="cls-2" data-name="Path 612" transform="translate(-1376.019 -187.92)"/>
                        <path id="Path_613" d="M1380.476 247.235a4.553 4.553 0 0 1-4.5-4.137 199.883 199.883 0 0 1-.547-27.313c1.034-14.417 7.786-19.892 25.062-20.135a47.037 47.037 0 0 0 26.4-8.334 1.424 1.424 0 0 1 1.4-.182 1.325 1.325 0 0 1 .852 1.095c1.642 11.984 1.338 17.033-3.893 23.42-4.866 5.961-15.938 7.482-24.333 7.665a5.635 5.635 0 0 0-4.015 1.825 6.169 6.169 0 0 0-1.582 4.137l.061 2.068a4.672 4.672 0 0 1-1.338 3.528 4.774 4.774 0 0 1-3.528 1.46h-3.407a1.211 1.211 0 0 0-.973.426 1.535 1.535 0 0 0-.365 1.034l.547 8.395a4.685 4.685 0 0 1-4.319 4.988l-1.095.061zm46.171-56.391a50.076 50.076 0 0 1-26.157 7.6c-15.816.243-21.413 4.623-22.325 17.58a194 194 0 0 0 .547 26.887 1.684 1.684 0 0 0 1.886 1.582l1.095-.061a1.919 1.919 0 0 0 1.764-2.068l-.547-8.395a4.159 4.159 0 0 1 1.095-3.1 4.053 4.053 0 0 1 2.981-1.277h3.407a2.4 2.4 0 0 0 1.521-.608 2.112 2.112 0 0 0 .608-1.521l-.061-2.068a8.435 8.435 0 0 1 2.312-6.144 8.612 8.612 0 0 1 5.962-2.677c6.387-.182 17.824-1.277 22.264-6.691 4.195-5.047 4.925-8.697 3.648-19.038z" class="cls-4" data-name="Path 613" transform="translate(-1375.157 -187.031)"/>
                    </g>
                    <g id="Group_519" data-name="Group 519" transform="translate(1064.732 918.136)">
                        <path id="Path_614" d="M1409.812 312.162c-8.76 0-18.006-7.726-18.432-8.091a1.419 1.419 0 0 1-.182-1.947s1.338-1.825 1.217-5.9c-.122-3.954-1.156-4.623-2.737-5.718l-.061-.061c-2.129-1.4-2.555-6.874-2.616-9.186a1.417 1.417 0 0 1 1.338-1.46h.061a1.448 1.448 0 0 1 1.4 1.338c.122 3.163.791 6.448 1.4 6.935l.061.061c2.251 1.521 3.833 2.92 3.954 7.908a15.047 15.047 0 0 1-1.156 6.509c2.555 1.947 10.1 7.178 16.546 6.691.852-2.251 3.224-9.125 3.163-15.877a1.377 1.377 0 0 1 1.4-1.4 1.377 1.377 0 0 1 1.4 1.4 49.707 49.707 0 0 1-3.711 17.7 1.44 1.44 0 0 1-1.1.852 6.832 6.832 0 0 1-1.945.246z" class="cls-4" data-name="Path 614" transform="translate(-1387 -279.8)"/>
                    </g>
                    <g id="Group_520" data-name="Group 520" transform="translate(1039.243 957.887)">
                        <path id="Path_615" d="M1346.5 372.918a1.377 1.377 0 0 1-1.4-1.4c0-.669.183-16.911 19.284-26.218a1.374 1.374 0 0 1 1.156 2.494c-17.459 8.516-17.7 23.116-17.7 23.724a1.293 1.293 0 0 1-1.34 1.4z" class="cls-4" data-name="Path 615" transform="translate(-1345.1 -345.146)"/>
                    </g>
                    <g id="Group_521" data-name="Group 521" transform="translate(1051.47 947.57)">
                        <path id="Path_616" d="M1372.135 453.507c-2.007 0-3.893-.061-5.6-.122a1.4 1.4 0 0 1 .122-2.8c13.626.73 36.925-1.582 47.144-3.954a5.652 5.652 0 0 0 4.38-5.475c.3-18.31 1.156-78.838-.122-88.631-1.46-11.01-15.695-21.778-15.816-21.838a1.393 1.393 0 1 1 1.642-2.251c.608.487 15.269 11.619 16.911 23.724 1.338 9.976.487 70.625.183 89a8.381 8.381 0 0 1-6.57 8.091c-9.06 2.188-28.344 4.256-42.274 4.256z" class="cls-4" data-name="Path 616" transform="translate(-1365.2 -328.186)"/>
                    </g>
                    <g id="Group_522" data-name="Group 522" transform="translate(1095.573 1010.6)">
                        <path id="Path_617" d="M1439.1 469.576a1.377 1.377 0 0 1-1.4-1.4V433.2a1.4 1.4 0 1 1 2.8 0v34.978a1.457 1.457 0 0 1-1.4 1.398z" class="cls-4" data-name="Path 617" transform="translate(-1437.7 -431.8)"/>
                    </g>
                    <g id="Group_523" data-name="Group 523" transform="translate(1105.063 936.53)">
                        <path id="Path_618" d="M1454.943 377.476h-.3a1.369 1.369 0 0 1 .061-2.737c.061 0 6.874.122 9.855-2.737a4.264 4.264 0 0 0 1.277-3.163c0-7.421-11.071-56.634-11.193-57.121a1.372 1.372 0 1 1 2.677-.608c.487 2.068 11.254 50 11.254 57.729a7.119 7.119 0 0 1-2.129 5.171c-3.412 3.284-9.982 3.466-11.502 3.466z" class="cls-4" data-name="Path 618" transform="translate(-1453.3 -310.037)"/>
                    </g>
                    <g id="Group_524" data-name="Group 524" transform="translate(989.97 1014.554)">
                        <path id="Path_619" d="M1308.02 441.1h-42.52a1.4 1.4 0 1 1 0-2.8h42.521a1.377 1.377 0 0 1 1.4 1.4 1.415 1.415 0 0 1-1.401 1.4z" class="cls-4" data-name="Path 619" transform="translate(-1264.1 -438.3)"/>
                    </g>
                    <g id="Group_525" data-name="Group 525" transform="translate(989.97 968.505)">
                        <path id="Path_620" d="M1308.872 365.4H1265.5a1.4 1.4 0 1 1 0-2.8h43.373a1.4 1.4 0 1 1 0 2.8z" class="cls-4" data-name="Path 620" transform="translate(-1264.1 -362.6)"/>
                    </g>
                    <g id="Group_526" data-name="Group 526" transform="translate(928.348 832.972)">
                        <path id="Path_621" d="M1164.2 240.658a1.377 1.377 0 0 1-1.4-1.4V141.2a1.377 1.377 0 0 1 1.4-1.4h149.828a1.377 1.377 0 0 1 1.4 1.4v37.594a1.4 1.4 0 1 1-2.8 0V142.6H1165.6v96.661a1.377 1.377 0 0 1-1.4 1.397z" class="cls-4" data-name="Path 621" transform="translate(-1162.8 -139.8)"/>
                    </g>
                    <g id="Group_527" data-name="Group 527" transform="translate(1067.104 926.47)">
                        <path id="Path_622" d="M1392.3 310.107a1.377 1.377 0 0 1-1.4-1.4V294.9a1.4 1.4 0 0 1 2.8 0v13.809a1.377 1.377 0 0 1-1.4 1.398z" class="cls-4" data-name="Path 622" transform="translate(-1390.9 -293.5)"/>
                    </g>
                    <g id="Group_528" data-name="Group 528" transform="translate(1026.225 924.098)">
                        <path id="Path_623" d="M1325.1 323.361a1.377 1.377 0 0 1-1.4-1.4V291a1.377 1.377 0 0 1 1.4-1.4h39.358a1.4 1.4 0 1 1 0 2.8H1326.5v29.564a1.376 1.376 0 0 1-1.4 1.397z" class="cls-4" data-name="Path 623" transform="translate(-1323.7 -289.6)"/>
                    </g>
                    <g id="Group_529" data-name="Group 529" transform="translate(1026.225 939.61)">
                        <path id="Path_624" d="M1365.978 317.9H1325.1a1.4 1.4 0 1 1 0-2.8h40.879a1.4 1.4 0 1 1 0 2.8z" class="cls-4" data-name="Path 624" transform="translate(-1323.7 -315.1)"/>
                    </g>
                    <g id="Group_530" data-name="Group 530" transform="translate(992.586 914.426)">
                        <path id="Rectangle_44" d="M0 0h18.493v40.635H0z" class="cls-5" data-name="Rectangle 44" transform="translate(1.399 1.399)"/>
                        <path id="Path_625" d="M1288.292 317.134H1269.8a1.377 1.377 0 0 1-1.4-1.4V275.1a1.377 1.377 0 0 1 1.4-1.4h18.493a1.377 1.377 0 0 1 1.4 1.4v40.635a1.415 1.415 0 0 1-1.401 1.399zm-17.094-2.8h15.695v-37.9H1271.2z" class="cls-4" data-name="Path 625" transform="translate(-1268.4 -273.7)"/>
                    </g>
                    <g id="Group_531" data-name="Group 531" transform="translate(965.333 756.085)">
                        <path id="Path_626" d="M1225 48.685a1.377 1.377 0 0 1-1.4-1.4 42.242 42.242 0 0 1 16.485-33.579 1.387 1.387 0 1 1 1.7 2.19 39.474 39.474 0 0 0-15.39 31.389 1.456 1.456 0 0 1-1.395 1.4z" class="cls-4" data-name="Path 626" transform="translate(-1223.6 -13.406)"/>
                    </g>
                    <g id="Group_532" data-name="Group 532" transform="translate(1097.789 912.959)">
                        <path id="Path_627" d="M1449.59 298.183a3.678 3.678 0 0 1-1.338-.243 4.19 4.19 0 0 1-2.312-2.007l-4.441-9.064a1.36 1.36 0 0 1 2.433-1.217l4.441 9.064a1.219 1.219 0 0 0 1.642.547l3.65-1.764a1.048 1.048 0 0 0 .608-.73 1.35 1.35 0 0 0-.061-.973l-8.942-18.554a1.374 1.374 0 0 1 2.494-1.156l8.942 18.554a3.8 3.8 0 0 1 .182 3.042 4.189 4.189 0 0 1-2.007 2.312l-3.65 1.764a3.455 3.455 0 0 1-1.641.425z" class="cls-4" data-name="Path 627" transform="translate(-1441.343 -271.289)"/>
                    </g>
                    <g id="Group_533" data-name="Group 533" transform="translate(392.522 1066.626)">
                        <path id="Path_628" d="M283.384 526.759a1.432 1.432 0 0 1-1.4-1.156 1.69 1.69 0 0 1 .182-1.1 1.535 1.535 0 0 1 .912-.608h.3a1.432 1.432 0 0 1 1.4 1.156 1.446 1.446 0 0 1-1.156 1.7c-.061-.061-.182 0-.243 0z" class="cls-4" data-name="Path 628" transform="translate(-281.962 -523.9)"/>
                    </g>
                    <g id="Group_534" data-name="Group 534" transform="translate(820.823 764.354)">
                        <path id="Path_629" d="M987.476 29.859a1.441 1.441 0 0 1-.243-2.859h.3a1.441 1.441 0 0 1 .243 2.859z" class="cls-4" data-name="Path 629" transform="translate(-986.042 -27)"/>
                    </g>
                    <g id="Group_535" data-name="Group 535" transform="translate(988.657 752.371)">
                        <path id="Path_630" d="M1263.376 10.159a1.441 1.441 0 0 1-.243-2.859h.3a1.441 1.441 0 0 1 .243 2.859z" class="cls-4" data-name="Path 630" transform="translate(-1261.942 -7.3)"/>
                    </g>
                    <g id="Group_536" data-name="Group 536" transform="translate(1142.865 818.555)">
                        <path id="Path_631" d="M1516.876 118.959a1.441 1.441 0 0 1-.243-2.859h.3a1.441 1.441 0 0 1 .243 2.859z" class="cls-4" data-name="Path 631" transform="translate(-1515.442 -116.1)"/>
                    </g>
                    <g id="Group_537" data-name="Group 537" transform="translate(1063.431 955.304)">
                        <path id="Path_632" d="M1386.284 343.759a1.432 1.432 0 0 1-1.4-1.156 1.69 1.69 0 0 1 .182-1.1 1.378 1.378 0 0 1 .912-.608h.3a1.432 1.432 0 0 1 1.4 1.156 1.69 1.69 0 0 1-.182 1.095 1.535 1.535 0 0 1-.912.608z" class="cls-4" data-name="Path 632" transform="translate(-1384.862 -340.9)"/>
                    </g>
                    <g id="Group_538" data-name="Group 538" transform="translate(1159.472 1057.258)">
                        <path id="Path_633" d="M1544.176 511.359a1.441 1.441 0 0 1-.243-2.859h.3a1.432 1.432 0 0 1 1.4 1.156 1.689 1.689 0 0 1-.183 1.095 1.535 1.535 0 0 1-.912.608z" class="cls-4" data-name="Path 633" transform="translate(-1542.742 -508.5)"/>
                    </g>
                    <g id="Group_539" data-name="Group 539" transform="translate(924.054 950.681)">
                        <path id="Path_634" d="M1157.176 336.159a1.441 1.441 0 0 1-.243-2.859h.3a1.432 1.432 0 0 1 1.4 1.156 1.69 1.69 0 0 1-.183 1.095 1.377 1.377 0 0 1-.912.608z" class="cls-4" data-name="Path 634" transform="translate(-1155.742 -333.3)"/>
                    </g>
                    <g id="Group_540" data-name="Group 540" transform="translate(844 930.972)">
                        <path id="Path_635" d="M1025.576 303.759a1.441 1.441 0 0 1-.243-2.859h.3a1.432 1.432 0 0 1 1.4 1.156 1.688 1.688 0 0 1-.183 1.095 1.535 1.535 0 0 1-.912.608z" class="cls-4" data-name="Path 635" transform="translate(-1024.142 -300.9)"/>
                    </g>
                    <g id="Group_541" data-name="Group 541" transform="translate(823.378 1045.091)">
                        <path id="Path_636" d="M991.676 491.359a1.432 1.432 0 0 1-1.4-1.156 1.446 1.446 0 0 1 1.156-1.7h.3a1.432 1.432 0 0 1 1.4 1.156 1.689 1.689 0 0 1-.182 1.095 1.535 1.535 0 0 1-.912.608z" class="cls-4" data-name="Path 636" transform="translate(-990.242 -488.5)"/>
                    </g>
                    <g id="Group_542" data-name="Group 542" transform="translate(654.583 987.18)">
                        <path id="Path_637" d="M714.184 396.159a1.432 1.432 0 0 1-1.4-1.156 1.69 1.69 0 0 1 .182-1.095 1.535 1.535 0 0 1 .912-.608h.3a1.432 1.432 0 0 1 1.4 1.156 1.69 1.69 0 0 1-.182 1.095 1.535 1.535 0 0 1-.912.608z" class="cls-4" data-name="Path 637" transform="translate(-712.763 -393.3)"/>
                    </g>
                    <g id="Group_543" data-name="Group 543" transform="translate(690.778 995.21)">
                        <path id="Path_638" d="M773.684 409.359a1.432 1.432 0 0 1-1.4-1.156 1.69 1.69 0 0 1 .182-1.095 1.535 1.535 0 0 1 .912-.608h.3a1.441 1.441 0 0 1 .243 2.859z" class="cls-4" data-name="Path 638" transform="translate(-772.263 -406.5)"/>
                    </g>
                    <g id="Group_544" data-name="Group 544" transform="translate(527.955 1000.502)">
                        <path id="Path_639" d="M506 458.147a1.377 1.377 0 0 1-1.4-1.4V453.1a1.4 1.4 0 0 1 2.8 0v3.65a1.377 1.377 0 0 1-1.4 1.397zm0-12.166a1.377 1.377 0 0 1-1.4-1.4v-3.65a1.4 1.4 0 0 1 2.8 0v3.65a1.377 1.377 0 0 1-1.4 1.4zm0-12.166a1.377 1.377 0 0 1-1.4-1.4v-3.65a1.4 1.4 0 0 1 2.8 0v3.65a1.377 1.377 0 0 1-1.4 1.399zm0-12.166a1.377 1.377 0 0 1-1.4-1.4V416.6a1.4 1.4 0 0 1 2.8 0v3.65a1.377 1.377 0 0 1-1.4 1.398z" class="cls-4" data-name="Path 639" transform="translate(-504.6 -415.2)"/>
                    </g>
                    <g id="Group_545" data-name="Group 545" transform="translate(527.955 1037.001)">
                        <path id="Path_640" d="M506 518.147a1.377 1.377 0 0 1-1.4-1.4V513.1a1.4 1.4 0 1 1 2.8 0v3.65a1.415 1.415 0 0 1-1.4 1.397zm0-12.166a1.377 1.377 0 0 1-1.4-1.4v-3.65a1.4 1.4 0 0 1 2.8 0v3.65a1.415 1.415 0 0 1-1.4 1.4zm0-12.166a1.377 1.377 0 0 1-1.4-1.4v-3.65a1.4 1.4 0 0 1 2.8 0v3.65a1.415 1.415 0 0 1-1.4 1.399zm0-12.166a1.377 1.377 0 0 1-1.4-1.4V476.6a1.4 1.4 0 0 1 2.8 0v3.65a1.415 1.415 0 0 1-1.4 1.398z" class="cls-4" data-name="Path 640" transform="translate(-504.6 -475.2)"/>
                    </g>
                    <g id="Group_546" data-name="Group 546" transform="translate(886.009 864.726)">
                        <path id="Path_641" d="M1094.6 234.947a1.377 1.377 0 0 1-1.4-1.4V229.9a1.4 1.4 0 0 1 2.8 0v3.65a1.457 1.457 0 0 1-1.4 1.397zm0-12.166a1.377 1.377 0 0 1-1.4-1.4v-3.65a1.4 1.4 0 0 1 2.8 0v3.65a1.457 1.457 0 0 1-1.4 1.4zm0-12.166a1.377 1.377 0 0 1-1.4-1.4v-3.65a1.4 1.4 0 0 1 2.8 0v3.65a1.457 1.457 0 0 1-1.4 1.399zm0-12.166a1.377 1.377 0 0 1-1.4-1.4V193.4a1.4 1.4 0 0 1 2.8 0v3.65a1.457 1.457 0 0 1-1.4 1.398z" class="cls-4" data-name="Path 641" transform="translate(-1093.2 -192)"/>
                    </g>
                    <g id="Group_547" data-name="Group 547" transform="translate(1038.331 788.565)">
                        <path id="Path_642" d="M1394.942 144.968a1.377 1.377 0 0 1-1.4-1.4v-3.65a1.4 1.4 0 0 1 2.8 0v3.65a1.377 1.377 0 0 1-1.4 1.4zm0-12.166a1.377 1.377 0 0 1-1.4-1.4v-3.65a1.4 1.4 0 0 1 2.8 0v3.65a1.377 1.377 0 0 1-1.4 1.398zm0-12.166a1.377 1.377 0 0 1-1.4-1.4v-3.65a1.4 1.4 0 0 1 2.8 0v3.65a1.377 1.377 0 0 1-1.4 1.4zm0-12.166a1.377 1.377 0 0 1-1.4-1.4v-3.65a1.4 1.4 0 0 1 2.8 0v3.65a1.377 1.377 0 0 1-1.4 1.4zm0-12.166a1.377 1.377 0 0 1-1.4-1.4v-3.65a1.4 1.4 0 0 1 2.8 0V94.9a1.377 1.377 0 0 1-1.4 1.4zm0-12.166a1.377 1.377 0 0 1-1.4-1.4v-3.65a1.4 1.4 0 0 1 2.8 0v3.65a1.377 1.377 0 0 1-1.4 1.399zm0-12.166a1.377 1.377 0 0 1-1.4-1.4V69.6a1.394 1.394 0 0 1-1.277-1.4 1.376 1.376 0 0 1 1.4-1.4h1.278a1.377 1.377 0 0 1 1.4 1.4v2.372a1.377 1.377 0 0 1-1.401 1.399zm-9.794-2.372h-3.65a1.4 1.4 0 1 1 0-2.8h3.65a1.4 1.4 0 1 1 0 2.8zm-12.166 0h-3.65a1.4 1.4 0 1 1 0-2.8h3.65a1.4 1.4 0 0 1 0 2.8zm-12.166 0h-3.65a1.4 1.4 0 1 1 0-2.8h3.65a1.4 1.4 0 1 1 0 2.8zm-12.166 0H1345a1.4 1.4 0 1 1 0-2.8h3.65a1.4 1.4 0 1 1 0 2.8z" class="cls-4" data-name="Path 642" transform="translate(-1343.6 -66.8)"/>
                    </g>
                    <g id="Group_548" data-name="Group 548" transform="translate(1029.556 939.938)">
                        <path id="Path_643" d="M1360.518 389.1h-.243l-29.138-5.11a1.423 1.423 0 0 1-1.156-1.156c-.122-.913-3.042-21.9 3.042-36.742 5.718-13.87 19.892-22.021 26.644-25.914 1.034-.608 1.947-1.095 2.555-1.521 4.927-3.1 7.117-3.1 7.665-2.981l-.426 2.737h.061s-1.7-.061-5.84 2.616c-.669.426-1.582.973-2.677 1.582-6.509 3.772-20.135 11.558-25.488 24.576-5.11 12.41-3.467 29.99-2.981 34.309l26.522 4.623c.061-2.92.608-8.881 3.285-12.531a1.393 1.393 0 0 1 2.251 1.642c-2.981 4.076-2.737 12.349-2.737 12.47a1.524 1.524 0 0 1-.487 1.095 1.2 1.2 0 0 1-.852.305z" class="cls-4" data-name="Path 643" transform="translate(-1329.175 -315.639)"/>
                    </g>
                    <g id="Group_549" data-name="Group 549" transform="translate(974.032 914.426)">
                        <path id="Path_644" d="M1240.3 276v19.04c5.171 3.711 9.55 10.4 12.835 21.6h5.657V276z" class="cls-1" data-name="Path 644" transform="translate(-1238.84 -274.601)"/>
                        <path id="Path_645" d="M1257.853 317.134h-5.653a1.447 1.447 0 0 1-1.338-.973c-3.042-10.281-7.056-17.094-12.349-20.865a1.384 1.384 0 0 1-.608-1.156V275.1a1.377 1.377 0 0 1 1.4-1.4h18.493a1.377 1.377 0 0 1 1.4 1.4v40.635a1.293 1.293 0 0 1-1.345 1.399zm-4.623-2.8h3.224v-37.9h-15.694v16.972c5.352 4.14 9.428 10.953 12.469 20.929z" class="cls-4" data-name="Path 645" transform="translate(-1237.9 -273.7)"/>
                    </g>
                    <g id="Group_550" data-name="Group 550" transform="translate(955.661 914.426)">
                        <path id="Path_646" d="M1216.387 291.147a21.192 21.192 0 0 1 12.045 3.893V276H1210v15.755a24.733 24.733 0 0 1 6.387-.608z" class="cls-2" data-name="Path 646" transform="translate(-1208.601 -274.601)"/>
                        <path id="Path_647" d="M1227.531 295.538a1.223 1.223 0 0 1-.791-.243 19.669 19.669 0 0 0-11.254-3.589h-.852a20.242 20.242 0 0 0-5.232.608 1.287 1.287 0 0 1-1.156-.243 1.479 1.479 0 0 1-.547-1.095V275.1a1.377 1.377 0 0 1 1.4-1.4h18.493a1.377 1.377 0 0 1 1.4 1.4v19.04a1.384 1.384 0 0 1-.73 1.217 1.832 1.832 0 0 1-.731.181zm-12.9-6.691h.912a23.4 23.4 0 0 1 10.646 2.737v-15.147H1210.5v12.714a29.36 29.36 0 0 1 4.135-.304z" class="cls-4" data-name="Path 647" transform="translate(-1207.7 -273.7)"/>
                    </g>
                    <g id="Group_551" data-name="Group 551" transform="translate(1092.372 930.568)">
                        <path id="Path_648" d="M1437.038 327.1a1.394 1.394 0 0 1-1.4-1.277c0-.182-1.764-17.945-3.163-23.907a1.372 1.372 0 0 1 2.677-.608c1.46 6.083 3.163 23.542 3.224 24.272a1.378 1.378 0 0 1-1.217 1.521z" class="cls-4" data-name="Path 648" transform="translate(-1432.437 -300.237)"/>
                    </g>
                    <g id="Group_552" data-name="Group 552" transform="translate(1038.878 1079.704)">
                        <path id="Path_649" d="M1419.444 546.008a1.384 1.384 0 0 0-1.156-.608h-72.633a1.384 1.384 0 0 0-1.156.608z" class="cls-4" data-name="Path 649" transform="translate(-1344.5 -545.4)"/>
                    </g>
                    <g id="Group_553" data-name="Group 553" transform="translate(1051.435 1010.595)">
                        <path id="Path_650" d="M1365.481 501.51h2.555a1.8 1.8 0 0 0 .122-.608c-.73-11.8.487-32.971.608-34.552.243-1.217 2.737-14.113 4.015-27.313a43.7 43.7 0 0 0 0-5.961 1.4 1.4 0 1 0-2.8.243 36.562 36.562 0 0 1 0 5.475c-1.338 13.687-3.954 27.009-4.015 27.131v.182c0 .243-1.338 22.629-.608 34.978.062.121.062.303.123.425z" class="cls-4" data-name="Path 650" transform="translate(-1365.142 -431.792)"/>
                    </g>
                    <g id="Group_554" data-name="Group 554" transform="translate(1099.026 1066.003)">
                        <path id="Path_651" d="M1445.946 537.186h2.8c-1.46-9.794-2.616-13.261-2.677-13.383a1.385 1.385 0 1 0-2.616.912s1.094 3.285 2.493 12.471z" class="cls-4" data-name="Path 651" transform="translate(-1443.376 -522.877)"/>
                    </g>
                    <g id="Group_555" data-name="Group 555" transform="translate(415.174 1074.838)">
                        <path id="Path_652" d="M322 542.875V538.8a1.4 1.4 0 0 0-2.8 0v4.076z" class="cls-4" data-name="Path 652" transform="translate(-319.2 -537.4)"/>
                    </g>
                    <g id="Group_556" data-name="Group 556" transform="translate(400.878 1074.838)">
                        <path id="Path_653" d="M298.5 542.875V538.8a1.4 1.4 0 0 0-2.8 0v4.076z" class="cls-4" data-name="Path 653" transform="translate(-295.7 -537.4)"/>
                    </g>
                    <g id="Group_557" data-name="Group 557" transform="translate(507.244 946.301)">
                        <path id="XMLID_15_" d="M485.737 343.449h24.7a.867.867 0 0 0 .73-.365.922.922 0 0 0 .183-.791l-2.616-9.916a1.7 1.7 0 0 0-1.642-1.277h-17.949a1.634 1.634 0 0 0-1.642 1.277l-2.616 9.916a.968.968 0 0 0 .182.791.7.7 0 0 0 .67.365zm15.938-1.764H499.3a3.341 3.341 0 0 1 2.372-2.372zm1.764 0v-2.372a3.341 3.341 0 0 1 2.372 2.372zm-14.3-8.7h17.763l2.312 8.7h-1.582a5.122 5.122 0 0 0-10.1 0h-10.639z" class="cls-4" transform="translate(-476.157 -328.058)"/>
                        <path id="XMLID_12_" d="M478.037 365.575a2.737 2.737 0 1 0-2.737-2.737 2.765 2.765 0 0 0 2.737 2.737zm0-3.711a.973.973 0 1 1-.973.973.961.961 0 0 1 .973-.973z" class="cls-4" transform="translate(-472.412 -339.417)"/>
                        <path id="XMLID_9_" d="M532.337 365.575a2.737 2.737 0 1 0-2.737-2.737 2.765 2.765 0 0 0 2.737 2.737zm0-3.711a.973.973 0 1 1-.973.973.961.961 0 0 1 .973-.973z" class="cls-4" transform="translate(-493.68 -339.417)"/>
                        <path id="XMLID_1_" d="M471.311 355.6a3.487 3.487 0 0 0 3.042 2.8l.3 3.407a2.261 2.261 0 0 0 2.312 1.947h2.312a2.394 2.394 0 0 0 1.764-.791 2.053 2.053 0 0 0 .547-1.521l-.3-3.042h3.042v.669a.936.936 0 0 0 .912.912h14.9a.936.936 0 0 0 .912-.912v-.669h2.677l-.3 3.042a1.838 1.838 0 0 0 .547 1.521 2.394 2.394 0 0 0 1.764.791h2.312a2.261 2.261 0 0 0 2.312-1.947l.3-3.407a3.455 3.455 0 0 0 3.406-2.8l.73-3.832a7.921 7.921 0 0 0-2.433-7.482 7.015 7.015 0 0 0-2.8-1.338l-3.467-13.261a4.751 4.751 0 0 0-4.623-3.589h-17.941a4.751 4.751 0 0 0-4.623 3.589l-3.528 13.383a6.766 6.766 0 0 0-2.251 1.217 7.824 7.824 0 0 0-2.433 7.482zm8.516 6.022a.223.223 0 0 1-.061.182.691.691 0 0 1-.487.182h-2.312c-.3 0-.547-.182-.547-.3l-.3-3.224h3.407zm19.405-3.407h-13.078v-2.981h13.079v2.981zm9.307 3.407c0 .182-.243.3-.547.3h-2.312a.691.691 0 0 1-.487-.182.223.223 0 0 1-.061-.182l.3-3.224h3.407zm-27.982-31.45a3 3 0 0 1 2.92-2.251h17.945a3 3 0 0 1 2.92 2.251l3.346 12.714h-30.476zm25.063 14.417a4.586 4.586 0 0 1-3.772 1.947h-19.04a4.586 4.586 0 0 1-3.772-1.947zm-31.45 1.095a4.629 4.629 0 0 1 2.068-.973 4.017 4.017 0 0 1 .852-.061 6.363 6.363 0 0 0 5.779 3.711h19.04a6.363 6.363 0 0 0 5.779-3.711h1.034a4.158 4.158 0 0 1 2.433 1.034 6.09 6.09 0 0 1 1.825 5.779l-.73 3.832a1.639 1.639 0 0 1-1.642 1.338H501v-2.312a.936.936 0 0 0-.912-.912h-14.9a.936.936 0 0 0-.912.912v2.312H474.6a1.639 1.639 0 0 1-1.642-1.338l-.73-3.832a6.392 6.392 0 0 1 1.942-5.775z" class="cls-4" transform="translate(-470.552 -326.1)"/>
                    </g>
                    <g id="Group_558" data-name="Group 558" transform="translate(862.346 831.269)">
                        <circle id="Ellipse_19" cx="23.846" cy="23.846" r="23.846" class="cls-5" data-name="Ellipse 19"/>
                    </g>
                    <g id="Group_562" data-name="Group 562" transform="translate(879.074 839.907)">
                        <g id="Group_559" data-name="Group 559" transform="translate(0 4.015)">
                            <path id="Path_654" d="M1090.742 180.673h-2.555a5.452 5.452 0 0 1-5.475-5.475v-1.217h3.163v1.219a2.246 2.246 0 0 0 2.251 2.251h2.555a2.155 2.155 0 0 0 2.129-2.129v-2.433a2.375 2.375 0 0 0-2.372-2.372h-3.406a5.271 5.271 0 0 1-5.231-5.232v-1.217a6.257 6.257 0 0 1 6.266-6.266h1.642a5.361 5.361 0 0 1 5.353 5.353v1.945h-3.162v-1.947a2.181 2.181 0 0 0-2.19-2.19h-1.642a3.115 3.115 0 0 0-3.1 3.1v1.217a2.025 2.025 0 0 0 2.007 2.007h3.406a5.582 5.582 0 0 1 5.6 5.6v2.433a5.221 5.221 0 0 1-5.239 5.353z" class="cls-6" data-name="Path 654" transform="translate(-1081.8 -157.8)"/>
                        </g>
                        <g id="Group_560" data-name="Group 560" transform="translate(5.536 25.306)">
                            <path id="Rectangle_45" d="M0 0h3.163v5.049H0z" class="cls-6" data-name="Rectangle 45"/>
                        </g>
                        <g id="Group_561" data-name="Group 561" transform="translate(5.536)">
                            <path id="Rectangle_46" d="M0 0h3.163v5.657H0z" class="cls-6" data-name="Rectangle 46"/>
                        </g>
                    </g>
                </g>
            </g>
        </g>
    </g>
</svg>
